<svg width="30" height="28" viewBox="0 0 30 28" fill="none" xmlns="http://www.w3.org/2000/svg">
<path opacity="0.2" d="M28.9286 9.04373C28.9286 18.671 15 26.8396 15 26.8396C15 26.8396 1.07144 18.671 1.07144 9.04373C1.07144 6.95466 1.8334 4.95115 3.18969 3.47395C4.54598 1.99675 6.3855 1.16687 8.30358 1.16687C11.329 1.16687 13.9205 2.9625 15 5.83464C16.0795 2.9625 18.671 1.16687 21.6964 1.16687C23.6145 1.16687 25.454 1.99675 26.8103 3.47395C28.1666 4.95115 28.9286 6.95466 28.9286 9.04373Z" fill="#920C74"/>
<path d="M21.6964 0C18.9308 0 16.5094 1.29531 15 3.48478C13.4906 1.29531 11.0692 0 8.30357 0C6.10209 0.00270255 3.99148 0.956397 2.4348 2.65185C0.878116 4.34731 0.00248134 6.64606 0 9.0438C0 19.2545 13.9004 27.5194 14.4924 27.8607C14.6484 27.9522 14.8228 28 15 28C15.1772 28 15.3516 27.9522 15.5076 27.8607C16.0996 27.5194 30 19.2545 30 9.0438C29.9975 6.64606 29.1219 4.34731 27.5652 2.65185C26.0085 0.956397 23.8979 0.00270255 21.6964 0ZM15 25.4977C12.5545 23.9456 2.14286 16.8754 2.14286 9.0438C2.14498 7.26493 2.79474 5.55958 3.94964 4.30173C5.10453 3.04388 6.6703 2.3362 8.30357 2.33388C10.9085 2.33388 13.0955 3.84507 14.0089 6.27231C14.0896 6.48634 14.227 6.6694 14.4034 6.79824C14.5799 6.92707 14.7876 6.99586 15 6.99586C15.2124 6.99586 15.4201 6.92707 15.5966 6.79824C15.773 6.6694 15.9103 6.48634 15.9911 6.27231C16.9045 3.8407 19.0915 2.33388 21.6964 2.33388C23.3297 2.3362 24.8955 3.04388 26.0504 4.30173C27.2053 5.55958 27.855 7.26493 27.8571 9.0438C27.8571 16.8638 17.4429 23.9442 15 25.4977Z" fill="#171932"/>
</svg>
