<svg width="126" height="126" viewBox="0 0 126 126" fill="none" xmlns="http://www.w3.org/2000/svg">
<path d="M26.235 0.0510254C19.058 0.0510254 13.749 6.33502 13.986 13.15C14.214 19.696 13.918 28.176 11.783 35.09C9.64299 42.026 6.02299 46.409 0.109985 46.973V53.36C6.02299 53.923 9.64299 58.307 11.783 65.243C13.918 72.157 14.213 80.637 13.986 87.183C13.748 93.998 19.058 100.281 26.235 100.281H99.775C106.952 100.281 112.261 93.997 112.024 87.183C111.796 80.637 112.092 72.157 114.226 65.243C116.366 58.308 119.977 53.924 125.89 53.36V46.973C119.977 46.41 116.367 42.026 114.226 35.09C112.092 28.176 111.796 19.696 112.024 13.15C112.261 6.33502 106.952 0.0510254 99.774 0.0510254H26.235ZM84.349 61.737C84.349 71.121 77.347 76.81 65.728 76.81H44.306C44.1758 76.81 44.0509 76.7583 43.9588 76.6662C43.8667 76.5741 43.815 76.4492 43.815 76.319V23.993C43.8149 23.9285 43.8275 23.8645 43.8521 23.8048C43.8767 23.7451 43.9128 23.6909 43.9584 23.6452C44.0041 23.5995 44.0582 23.5632 44.1179 23.5385C44.1775 23.5138 44.2414 23.501 44.306 23.501H65.615C75.304 23.501 81.662 28.747 81.662 36.801C81.662 42.454 77.385 47.514 71.935 48.401V48.697C79.353 49.51 84.349 54.645 84.349 61.737ZM63.571 30.262H52.293V46.184H61.793C69.135 46.184 73.184 43.229 73.184 37.946C73.184 32.996 69.703 30.262 63.571 30.262ZM52.293 52.502V70.05H63.988C71.633 70.05 75.683 66.984 75.683 61.22C75.683 55.457 71.52 52.502 63.496 52.502H52.293Z" fill="#7952B3"/>
<path d="M10.398 119.43V101.692H15.445C16.9783 101.692 18.1947 102.067 19.094 102.818C19.9927 103.568 20.442 104.545 20.442 105.749C20.442 106.756 20.17 107.63 19.626 108.372C19.0813 109.114 18.3307 109.642 17.374 109.955V110.005C18.57 110.145 19.5267 110.598 20.244 111.365C20.9613 112.124 21.32 113.113 21.32 114.334C21.32 115.851 20.776 117.08 19.688 118.02C18.5993 118.96 17.226 119.43 15.568 119.43H10.398ZM12.476 103.572V109.299H14.604C15.742 109.299 16.6367 109.027 17.288 108.483C17.9393 107.93 18.265 107.154 18.265 106.157C18.265 104.434 17.131 103.572 14.863 103.572H12.476ZM12.476 111.167V117.55H15.296C16.5167 117.55 17.461 117.261 18.129 116.684C18.805 116.107 19.143 115.315 19.143 114.309C19.143 112.214 17.7163 111.167 14.863 111.167H12.476ZM29.942 119.73C28.07 119.73 26.5733 119.14 25.452 117.961C24.3387 116.774 23.782 115.203 23.782 113.248C23.782 111.121 24.3633 109.459 25.526 108.263C26.6887 107.068 28.2597 106.47 30.239 106.47C32.127 106.47 33.599 107.051 34.655 108.214C35.7183 109.377 36.25 110.989 36.25 113.05C36.25 115.071 35.677 116.691 34.531 117.912C33.393 119.124 31.8633 119.73 29.942 119.73ZM30.09 108.177C28.7873 108.177 27.7567 108.622 26.998 109.513C26.2393 110.395 25.86 111.615 25.86 113.174C25.86 114.675 26.2433 115.859 27.01 116.724C27.7767 117.591 28.8033 118.024 30.09 118.024C31.4013 118.024 32.4077 117.599 33.109 116.749C33.8177 115.9 34.172 114.692 34.172 113.125C34.172 111.542 33.8177 110.321 33.109 109.463C32.4077 108.606 31.4013 108.177 30.09 108.177ZM44.786 119.73C42.914 119.73 41.4173 119.14 40.296 117.961C39.1827 116.774 38.626 115.203 38.626 113.248C38.626 111.121 39.2073 109.459 40.37 108.263C41.5327 107.068 43.1037 106.47 45.083 106.47C46.971 106.47 48.443 107.051 49.499 108.214C50.563 109.377 51.095 110.989 51.095 113.05C51.095 115.071 50.5217 116.691 49.375 117.912C48.237 119.124 46.7073 119.73 44.786 119.73ZM44.934 108.177C43.6313 108.177 42.6007 108.622 41.842 109.513C41.0833 110.395 40.704 111.615 40.704 113.174C40.704 114.675 41.0873 115.859 41.854 116.724C42.6207 117.591 43.6473 118.024 44.934 118.024C46.2453 118.024 47.2517 117.599 47.953 116.749C48.6617 115.9 49.016 114.692 49.016 113.125C49.016 111.542 48.6617 110.321 47.953 109.463C47.2517 108.606 46.2453 108.177 44.934 108.177ZM60.211 119.31C59.733 119.574 59.102 119.706 58.318 119.706C56.1 119.706 54.991 118.469 54.991 115.995V108.499H52.814V106.767H54.991V103.675L57.02 103.019V106.767H60.211V108.499H57.02V115.636C57.02 116.485 57.1643 117.092 57.453 117.455C57.741 117.818 58.219 117.999 58.887 117.999C59.3983 117.999 59.8397 117.859 60.211 117.579V119.31ZM62.153 118.97V116.793C63.2577 117.609 64.474 118.017 65.802 118.017C67.5833 118.017 68.474 117.424 68.474 116.237C68.474 115.898 68.3957 115.614 68.239 115.383C68.0903 115.144 67.884 114.933 67.62 114.752C67.3647 114.571 67.0597 114.41 66.705 114.27C66.3583 114.121 65.983 113.969 65.579 113.812C65.019 113.589 64.5243 113.367 64.095 113.144C63.675 112.913 63.3203 112.658 63.031 112.377C62.751 112.088 62.5367 111.763 62.388 111.4C62.248 111.037 62.178 110.613 62.178 110.126C62.178 109.533 62.314 109.009 62.586 108.555C62.858 108.093 63.2207 107.71 63.674 107.405C64.1273 107.092 64.643 106.856 65.221 106.699C65.8063 106.542 66.4083 106.464 67.027 106.464C68.1237 106.464 69.105 106.654 69.971 107.034V109.087C69.039 108.476 67.9667 108.171 66.754 108.171C66.3747 108.171 66.0327 108.216 65.728 108.307C65.4227 108.39 65.1587 108.51 64.936 108.667C64.7213 108.823 64.5523 109.012 64.429 109.235C64.3137 109.45 64.256 109.689 64.256 109.953C64.256 110.282 64.3137 110.558 64.429 110.781C64.5523 111.004 64.7297 111.202 64.961 111.375C65.1917 111.548 65.472 111.705 65.802 111.845C66.132 111.985 66.5073 112.138 66.928 112.303C67.488 112.517 67.991 112.74 68.437 112.971C68.8823 113.194 69.2617 113.449 69.575 113.738C69.8883 114.018 70.1273 114.344 70.292 114.715C70.4653 115.086 70.552 115.527 70.552 116.038C70.552 116.665 70.412 117.209 70.132 117.671C69.8593 118.133 69.492 118.516 69.03 118.821C68.5687 119.126 68.037 119.353 67.435 119.502C66.833 119.651 66.202 119.725 65.542 119.725C64.2393 119.725 63.1103 119.473 62.153 118.97ZM79.544 119.31C79.066 119.574 78.435 119.706 77.651 119.706C75.433 119.706 74.324 118.469 74.324 115.995V108.499H72.147V106.767H74.324V103.675L76.353 103.019V106.767H79.544V108.499H76.353V115.636C76.353 116.485 76.4973 117.092 76.786 117.455C77.074 117.818 77.552 117.999 78.22 117.999C78.7313 117.999 79.1727 117.859 79.544 117.579V119.31ZM88.859 108.82C88.5043 108.548 87.993 108.412 87.325 108.412C86.459 108.412 85.7333 108.82 85.148 109.636C84.5707 110.453 84.282 111.566 84.282 112.976V119.433H82.254V106.767H84.282V109.377H84.332C84.6207 108.486 85.0617 107.794 85.655 107.299C86.2483 106.796 86.9123 106.544 87.647 106.544C88.1743 106.544 88.5783 106.602 88.859 106.718V108.82ZM100.13 119.43H98.101V117.45H98.051C97.169 118.968 95.8707 119.727 94.156 119.727C92.894 119.727 91.904 119.393 91.186 118.725C90.4773 118.057 90.123 117.17 90.123 116.065C90.123 113.698 91.5163 112.322 94.303 111.935L98.101 111.402C98.101 109.25 97.231 108.174 95.491 108.174C93.9657 108.174 92.5887 108.693 91.36 109.732V107.654C92.6053 106.863 94.0403 106.467 95.665 106.467C98.6417 106.467 100.13 108.042 100.13 111.192V119.43ZM98.101 113.023L95.046 113.443C94.106 113.575 93.3967 113.81 92.918 114.148C92.44 114.478 92.201 115.068 92.201 115.917C92.201 116.536 92.4197 117.043 92.857 117.439C93.3023 117.826 93.892 118.019 94.626 118.019C95.632 118.019 96.4607 117.669 97.112 116.969C97.772 116.26 98.102 115.365 98.102 114.284L98.101 113.023ZM106.03 117.6H105.98V125.257H103.952V106.764H105.981V108.99H106.03C107.028 107.308 108.488 106.467 110.409 106.467C112.042 106.467 113.316 107.036 114.231 108.174C115.146 109.303 115.604 110.821 115.604 112.726C115.604 114.845 115.089 116.544 114.058 117.822C113.027 119.092 111.617 119.727 109.828 119.727C108.187 119.727 106.921 119.019 106.03 117.6ZM105.98 112.491V114.261C105.98 115.308 106.318 116.198 106.995 116.932C107.68 117.658 108.545 118.021 109.592 118.021C110.821 118.021 111.782 117.551 112.475 116.611C113.175 115.671 113.525 114.364 113.525 112.689C113.525 111.279 113.2 110.174 112.549 109.374C111.898 108.574 111.015 108.174 109.902 108.174C108.722 108.174 107.774 108.586 107.057 109.411C106.339 110.228 105.98 111.254 105.98 112.491Z" fill="#7952B3"/>
</svg>
