<svg width="111" height="126" viewBox="0 0 111 126" fill="none" xmlns="http://www.w3.org/2000/svg">
<path d="M0 0L10.055 112.883L55.173 125.463L100.417 112.837L110.48 0H0ZM89.591 25.862L86.244 63.467L86.254 63.67L86.24 64.137V64.133L83.862 90.427L83.6 92.763L55.24 100.607L55.218 100.627L26.907 92.739L24.99 71H38.873L39.858 82.054L55.244 86.224L55.24 86.232V86.23L70.683 82.001L72.315 64H40.032L39.755 60.957L39.124 53.828L38.793 50H73.542L74.806 36H21.88L21.603 32.959L20.973 25.828L20.641 22H89.922L89.591 25.862Z" fill="#1572B6"/>
</svg>
