<svg width="74" height="109" viewBox="0 0 74 109" fill="none" xmlns="http://www.w3.org/2000/svg">
<path d="M18.7461 109.852C28.8797 109.852 37.0547 101.677 37.0547 91.543V73.2344H18.7461C8.6125 73.2344 0.4375 81.4094 0.4375 91.543C0.4375 101.677 8.6125 109.852 18.7461 109.852Z" fill="#0ACF83"/>
<path d="M0.4375 54.9258C0.4375 44.7922 8.6125 36.6172 18.7461 36.6172H37.0547V73.2344H18.7461C8.6125 73.2344 0.4375 65.0594 0.4375 54.9258Z" fill="#A259FF"/>
<path d="M0.4375 18.3086C0.4375 8.175 8.6125 0 18.7461 0H37.0547V36.6172H18.7461C8.6125 36.6172 0.4375 28.4422 0.4375 18.3086Z" fill="#F24E1E"/>
<path d="M37.0547 0H55.3633C65.4969 0 73.6719 8.175 73.6719 18.3086C73.6719 28.4422 65.4969 36.6172 55.3633 36.6172H37.0547V0Z" fill="#FF7262"/>
<path d="M73.6719 54.9258C73.6719 65.0594 65.4969 73.2344 55.3633 73.2344C45.2297 73.2344 37.0547 65.0594 37.0547 54.9258C37.0547 44.7922 45.2297 36.6172 55.3633 36.6172C65.4969 36.6172 73.6719 44.7922 73.6719 54.9258Z" fill="#1ABCFE"/>
</svg>
