<svg width="110" height="126" viewBox="0 0 110 126" fill="none" xmlns="http://www.w3.org/2000/svg">
<path d="M10.037 112.876L0.0319977 0.660889H109.968L99.952 112.859L54.933 125.339L10.037 112.876Z" fill="#E44D26"/>
<path d="M55 115.8L91.378 105.714L99.937 9.83594H55V115.8Z" fill="#F16529"/>
<path d="M55 51.4551H36.788L35.53 37.3611H55V23.5991H20.489L20.819 27.2911L24.201 65.2181H55V51.4551ZM55 87.1981L54.939 87.2151L39.612 83.0751L38.633 72.1001H24.816L26.744 93.7091L54.937 101.535L55 101.518V87.1981Z" fill="#EBEBEB"/>
<path d="M54.952 51.4551V65.2181H71.899L70.302 83.0671L54.952 87.2101V101.529L83.167 93.7091L83.374 91.3841L86.608 55.1511L86.943 51.4551H83.235H54.952ZM54.952 23.5991V37.3611H88.196L88.472 34.2691L89.1 27.2911L89.429 23.5991H54.952Z" fill="white"/>
</svg>
