<svg width="110" height="110" viewBox="0 0 110 110" fill="none" xmlns="http://www.w3.org/2000/svg">
<path d="M0.231995 0.231934H109.768V109.769H0.231995V0.231934Z" fill="#F0DB4F"/>
<path d="M100.804 83.644C100.001 78.6469 96.7428 74.4495 87.0906 70.5356C83.7376 68.9948 79.9996 67.8914 78.8857 65.3504C78.4902 63.8716 78.4377 63.0386 78.688 62.1435C79.4064 59.2385 82.874 58.3329 85.6224 59.1659C87.3925 59.7591 89.0681 61.1233 90.0787 63.2994C94.8055 60.2386 94.7959 60.2588 98.0964 58.1553C96.888 56.2819 96.2431 55.4174 95.4521 54.6159C92.6093 51.4405 88.7356 49.8051 82.5406 49.9303L79.3136 50.3476C76.2214 51.129 73.2744 52.7521 71.5463 54.9283C66.361 60.8118 67.8398 71.1088 74.1494 75.3464C80.3654 80.0119 89.4969 81.0733 90.6632 85.436C91.7981 90.777 86.738 92.506 81.7085 91.8918C78.002 91.1209 75.9405 89.237 73.7119 85.8114C69.6099 88.1853 69.6099 88.1853 65.3924 90.6108C66.3925 92.7974 67.4434 93.787 69.1199 95.6814C77.0544 103.73 96.9099 103.334 100.471 91.1524C100.615 90.7341 101.575 87.9446 100.804 83.644ZM59.7792 50.5751H49.5339L49.4919 77.0631C49.4919 82.6964 49.7833 87.8606 48.8671 89.4435C47.3683 92.5568 43.4841 92.1709 41.714 91.5671C39.9124 90.6816 38.9963 89.4225 37.9349 87.6428C37.6435 87.1318 37.4248 86.7363 37.3513 86.7056L29.0213 91.8069C30.4064 94.6498 32.4469 97.1173 35.0605 98.7203C38.9648 101.064 44.2121 101.782 49.7001 100.522C53.2719 99.4815 56.3536 97.3264 57.9671 94.046C60.2999 89.7454 59.7994 84.54 59.7784 78.7825C59.8309 69.3894 59.7792 59.998 59.7792 50.5751Z" fill="#323330"/>
</svg>
