<svg width="126" height="60" viewBox="0 0 126 60" fill="none" xmlns="http://www.w3.org/2000/svg">
<path fill-rule="evenodd" clip-rule="evenodd" d="M121.301 24.635C120.701 23.336 120.411 21.799 120.349 20.352C120.195 16.791 120.326 13.217 120.165 9.65597C120.021 6.46697 118.883 3.59297 115.821 1.94897C113.125 0.501975 110 0.357975 107 0.323975V6.01497C108 6.04897 107.754 6.07997 107.998 6.09297C112.027 6.29097 113.377 7.56898 113.428 11.566C113.466 14.538 113.44 17.512 113.488 20.483C113.547 24.088 114.085 27.529 117.382 29.805C117.438 29.844 117.433 29.987 117.465 30.153C115.787 31.345 114.459 32.88 114.073 34.975C113.764 36.6767 113.584 38.3992 113.533 40.128C113.437 43.246 113.536 46.371 113.447 49.489C113.377 51.931 112.22 53.077 109.843 53.621C108.948 53.827 108 53.9 107 54.027V59.704C109 59.584 110.017 59.505 111.387 59.357C116.543 58.799 119.446 56.116 120.041 51.114C120.227 49.546 120.206 47.948 120.241 46.364C120.307 43.395 120.273 40.412 120.539 37.461C120.81 34.45 123 32.786 126 32.952V27.001C124 27.359 122.157 26.494 121.301 24.635ZM27.314 36.768C27.313 25.219 27 13.67 27 2.12197V0.304974C24 0.304974 20.774 0.275974 17.609 0.318974C16.324 0.335974 15.191 0.445972 13.917 0.619972C9.04 1.28397 6.689 3.57297 5.825 8.43197C5.575 9.83397 5.625 11.291 5.604 12.725C5.565 15.451 5.643 18.178 5.599 20.903C5.544 24.335 3.927 26.995 0.427 27.197C0.303 27.204 1 27.347 0 27.433V32.738C4 33.366 5.273 34.981 5.539 38.697C5.581 39.289 5.592 39.886 5.598 40.481C5.632 43.801 5.594 47.126 5.744 50.44C5.885 53.533 6.572 56.297 9.495 57.92C12.225 59.436 16 59.559 18 59.638V53.974C18 53.926 17.79 53.882 17.595 53.87C13.256 53.605 12.278 52.427 12.252 48.085C12.235 45.21 12.358 42.335 12.312 39.46C12.254 35.848 11.726 32.422 8.456 30.136C8.406 30.101 8.455 29.953 8.439 29.753C10.638 28.363 11.807 26.237 12.125 23.659C12.301 22.237 12.36 20.795 12.385 19.36C12.435 16.387 12.382 13.411 12.463 10.44C12.52 8.35197 13.853 6.82997 15.554 6.48797C17.166 6.16297 18 6.17297 21 6.02197V8.07797C21 18.388 20.633 28.697 20.687 39.007C20.706 42.538 21.097 46.019 24.882 47.544C26.94 48.373 29.145 48.628 31.509 49.186C31.904 46.874 32.033 44.956 32.356 43.058C27.999 41.808 27.314 41.16 27.314 36.768ZM53.988 16.875C46.648 13.365 37.74 16.434 34.322 23.796C31.748 29.34 31.84 35.046 34.106 40.668C35.335 43.716 37.556 45.998 40.579 47.34C46.483 49.961 52.458 49.324 58.411 47.484C58.732 47.384 59.142 46.766 59.103 46.438C58.9 44.777 58.563 43.132 58.262 41.417C56.845 41.774 55.661 42.139 54.451 42.366C51.254 42.967 48.05 42.966 44.939 41.729C41.867 40.509 39.804 36.999 40.317 33.999H61.189C61.444 30.999 61.343 26.874 60.066 23.463C58.926 20.414 56.958 18.296 53.988 16.875ZM53.944 29H40.228C40.235 25 43.492 21.41 47.765 21.492C51.518 21.564 54.114 25 53.944 29ZM110.052 41.279C110.544 36.225 109.018 33.381 104.518 31.185C102.922 30.406 101.228 29.829 99.602 29.107C98.385 28.567 97.16 28.02 96.022 27.336C94.914 26.671 94.45 25.567 94.614 24.274C94.775 22.997 95.596 22.155 96.782 21.915C98.219 21.623 99.725 21.373 101.17 21.491C103.212 21.658 105.226 22.181 107.333 22.566L108.665 16.748C105.814 16.314 103.156 15.753 100.47 15.541C97.483 15.306 94.574 15.802 91.84 17.211C86.063 20.188 85.957 29.327 91.266 32.327C92.852 33.223 94.549 33.923 96.199 34.707C97.936 35.534 99.736 36.253 101.398 37.211C102.66 37.938 103.111 39.207 102.773 40.686C102.46 42.061 101.419 42.674 100.196 42.791C98.336 42.968 96.428 43.138 94.587 42.919C92.37 42.655 90.2 41.982 87.929 41.468L86.771 47.258C92.104 49.26 97.381 49.588 102.709 48.407C107.168 47.419 109.708 44.811 110.052 41.279ZM81.637 31.827C79.678 30.788 77.571 30.03 75.549 29.104C74.294 28.529 72.965 28.03 71.859 27.233C69.732 25.7 70.128 22.761 72.605 21.975C74.026 21.523 75.633 21.383 77.126 21.495C79.16 21.648 81.167 22.174 83.288 22.558L84.546 17.012C83.469 16.719 82.494 16.4 81.495 16.19C77.524 15.354 73.532 15.03 69.621 16.405C66.261 17.587 63.93 19.797 63.469 23.515C62.953 27.667 64.33 30.945 68.165 32.917C69.7 33.707 71.345 34.28 72.912 35.012C74.476 35.742 76.073 36.439 77.526 37.355C78.637 38.055 79.075 39.24 78.762 40.61C78.451 41.968 77.461 42.652 76.229 42.779C74.369 42.97 72.46 43.147 70.618 42.932C68.392 42.672 66.215 41.997 63.904 41.477C63.563 43.09 63.163 44.715 62.914 46.362C62.86 46.72 63.259 47.408 63.595 47.525C68.979 49.391 74.459 49.659 79.935 48.046C83.205 47.084 85.492 44.995 85.953 41.423C86.476 37.368 85.509 33.879 81.637 31.827Z" fill="#2A4D80"/>
</svg>
