<svg width="132" height="33" viewBox="0 0 132 33" fill="none" xmlns="http://www.w3.org/2000/svg">
<path d="M13.48 21.536C12.4987 21.536 12.008 20.8853 12.008 19.584C12.008 18.176 12.5947 16.032 13.768 13.152C13.5333 13.1733 13.2987 13.184 13.064 13.184C12.8293 13.184 12.5947 13.184 12.36 13.184C7.048 13.184 3.42133 12.2987 1.48 10.528C0.946667 10.0587 0.68 9.57867 0.68 9.088C0.68 8.08533 1.26667 7.232 2.44 6.528C5 4.992 8.12533 4.224 11.816 4.224C12.4987 4.224 13.352 4.26667 14.376 4.352C15.4213 4.416 16.6373 4.52267 18.024 4.672C18.1307 4.50133 18.2693 4.29867 18.44 4.064C18.6107 3.808 18.8133 3.52 19.048 3.2C19.304 2.88 19.816 2.72 20.584 2.72C20.8613 2.72 21 2.77333 21 2.88L19.624 4.832C21.672 5.024 23.336 5.12 24.616 5.12C25.9387 5.12 26.856 5.00267 27.368 4.768C27.5173 4.68267 27.6453 4.64 27.752 4.64C27.944 4.64 28.04 4.74667 28.04 4.96C28.04 5.68533 26.6747 6.048 23.944 6.048C22.536 6.048 20.872 5.952 18.952 5.76C17.4587 7.936 16.2213 10.1013 15.24 12.256C15.5813 12.2347 15.9867 12.192 16.456 12.128C16.9467 12.064 17.7253 11.9573 18.792 11.808C19.56 11.7013 20.232 11.616 20.808 11.552C21.384 11.488 21.8747 11.456 22.28 11.456C22.472 11.456 22.568 11.52 22.568 11.648C22.568 11.904 22.3867 12.0853 22.024 12.192L20.04 12.544C19.272 12.672 18.4293 12.7893 17.512 12.896C16.616 13.0027 15.7307 13.0773 14.856 13.12C13.512 16.128 12.84 18.336 12.84 19.744C12.84 20.512 13.064 20.896 13.512 20.896C13.6827 20.896 13.9493 20.7787 14.312 20.544C14.504 20.416 14.6427 20.32 14.728 20.256C14.8133 20.192 14.8773 20.16 14.92 20.16C15.0907 20.16 15.176 20.256 15.176 20.448C15.176 20.6827 14.9627 20.9173 14.536 21.152C14.088 21.408 13.736 21.536 13.48 21.536ZM12.84 12.32C13.0533 12.32 13.2667 12.32 13.48 12.32C13.6933 12.32 13.9067 12.3093 14.12 12.288C15.1867 9.792 16.296 7.56267 17.448 5.6C16.5733 5.51467 15.6987 5.46133 14.824 5.44C13.9707 5.39733 13.128 5.376 12.296 5.376C5.512 5.376 2.12 6.66667 2.12 9.248C2.12 10.464 3.688 11.328 6.824 11.84C8.68 12.16 10.6853 12.32 12.84 12.32ZM22.7868 20.096C22.1254 20.096 21.7948 19.7333 21.7948 19.008C21.7948 17.92 22.3281 16.5867 23.3948 15.008C24.4401 13.4507 25.4748 12.4907 26.4988 12.128C26.6908 12.064 26.8721 12.0107 27.0428 11.968C27.2134 11.9253 27.3841 11.904 27.5548 11.904C28.3228 11.904 28.8774 12.1707 29.2188 12.704C29.2828 12.7893 29.3148 12.864 29.3148 12.928C29.3148 12.9707 29.2401 13.0027 29.0908 13.024C28.9628 13.0453 28.8561 13.12 28.7708 13.248C28.2588 14.08 28.0028 15.328 28.0028 16.992C28.0028 18.528 28.3334 19.296 28.9948 19.296C29.4428 19.296 30.0934 18.8267 30.9468 17.888C31.0748 17.76 31.2561 17.536 31.4908 17.216C31.7254 16.896 31.9601 16.576 32.1948 16.256C32.4294 15.9147 32.5894 15.6907 32.6748 15.584C32.7388 15.52 32.7921 15.488 32.8348 15.488C32.9201 15.488 32.9628 15.5627 32.9628 15.712C32.9628 15.8187 32.8988 15.968 32.7708 16.16C32.3014 16.9067 31.7681 17.632 31.1708 18.336C30.5734 19.04 30.0614 19.4987 29.6348 19.712C29.2508 19.904 28.8668 20 28.4828 20C27.1814 20 26.5308 19.0827 26.5308 17.248C26.5308 17.0987 26.5308 16.9493 26.5308 16.8C26.5521 16.6293 26.5734 16.4587 26.5948 16.288C25.1441 18.8267 23.8748 20.096 22.7868 20.096ZM23.3307 19.136C23.5654 19.136 23.8428 19.008 24.1628 18.752C24.4828 18.4747 24.8134 18.112 25.1548 17.664C25.6668 16.9813 26.1468 16.256 26.5948 15.488C27.0428 14.72 27.4374 13.888 27.7788 12.992C27.7148 12.9707 27.6188 12.96 27.4908 12.96C26.6161 12.96 25.7308 13.504 24.8348 14.592C23.5334 16.1493 22.8828 17.44 22.8828 18.464C22.8828 18.912 23.0321 19.136 23.3307 19.136ZM32.2913 21.344C31.4379 21.344 31.0113 21.184 31.0113 20.864C31.0113 20.736 31.0753 20.672 31.2033 20.672C31.2886 20.672 31.4379 20.704 31.6513 20.768C31.8859 20.8533 32.0993 20.896 32.2913 20.896C33.2726 20.896 34.2219 20.352 35.1393 19.264C35.5233 18.816 35.8539 18.3573 36.1313 17.888C36.4086 17.3973 36.6539 16.8853 36.8673 16.352C37.2726 15.392 37.4753 14.336 37.4753 13.184C37.4753 12.48 37.3153 12.128 36.9953 12.128C36.2913 12.128 35.3526 13.0987 34.1793 15.04C33.0699 16.8533 32.5153 18.208 32.5153 19.104C32.5153 19.3387 32.5899 19.52 32.7393 19.648C32.9099 19.776 32.9953 19.8827 32.9953 19.968C32.9953 20.0533 32.9419 20.096 32.8353 20.096C32.0459 20.096 31.6513 19.52 31.6513 18.368C31.6513 16.7253 32.5153 14.272 34.2433 11.008C34.8833 9.792 35.5553 8.608 36.2593 7.456C36.9846 6.304 37.7313 5.19467 38.4993 4.128L39.6833 2.432C40.2806 1.70667 40.8033 1.344 41.2513 1.344C41.7633 1.344 42.0193 1.472 42.0193 1.728C42.0193 1.74933 41.9873 1.81333 41.9233 1.92C41.7526 2.112 41.4539 2.44267 41.0273 2.912C40.6006 3.36 40.2379 3.776 39.9392 4.16C39.2992 4.94933 38.6593 5.80267 38.0193 6.72C37.3793 7.63733 36.7606 8.58667 36.1633 9.568C34.7126 11.9787 33.7739 13.9413 33.3473 15.456C33.6033 14.9867 33.9019 14.5067 34.2433 14.016C34.6059 13.504 34.9579 13.0667 35.2993 12.704C36.3446 11.5307 37.2513 10.944 38.0193 10.944C38.6593 10.944 38.9792 11.4027 38.9792 12.32C38.9792 13.6213 38.5633 15.1253 37.7313 16.832C37.1553 18.0053 36.4299 19.008 35.5553 19.84C34.4886 20.8427 33.4006 21.344 32.2913 21.344ZM42.7605 11.84C42.2485 11.84 41.9925 11.584 41.9925 11.072C41.9925 10.816 42.0885 10.592 42.2805 10.4C42.4938 10.1867 42.7392 10.08 43.0165 10.08C43.5285 10.08 43.7845 10.336 43.7845 10.848C43.7845 11.104 43.6885 11.328 43.4965 11.52C43.2832 11.7333 43.0378 11.84 42.7605 11.84ZM40.9045 20.544C39.7312 20.544 39.1445 19.9147 39.1445 18.656C39.1445 18.0587 39.3578 17.184 39.7845 16.032C39.9765 15.4987 40.1685 15.0507 40.3605 14.688C40.5738 14.304 40.7872 13.952 41.0005 13.632C41.1285 13.44 41.2778 13.344 41.4485 13.344C41.6192 13.344 41.7898 13.4293 41.9605 13.6C42.0672 13.7067 42.1205 13.8453 42.1205 14.016C42.1205 14.1653 42.0778 14.3147 41.9925 14.464C41.5232 15.1893 41.1392 15.9253 40.8405 16.672C40.5418 17.3973 40.3925 18.048 40.3925 18.624C40.3925 19.392 40.6698 19.776 41.2245 19.776C41.5232 19.776 41.8645 19.7013 42.2485 19.552C42.6325 19.3813 43.0165 19.1253 43.4005 18.784C43.6565 18.5493 43.9232 18.2827 44.2005 17.984C44.4992 17.6853 44.7978 17.3333 45.0965 16.928C45.6512 16.2453 45.9285 15.904 45.9285 15.904C46.0352 15.904 46.0885 15.9893 46.0885 16.16C46.0885 16.3307 46.0138 16.5013 45.8645 16.672C43.9232 19.2533 42.2698 20.544 40.9045 20.544ZM45.5993 20.096C44.9379 20.096 44.6073 19.7333 44.6073 19.008C44.6073 17.92 45.1406 16.5867 46.2073 15.008C47.2526 13.4507 48.2873 12.4907 49.3113 12.128C49.5033 12.064 49.6846 12.0107 49.8553 11.968C50.0259 11.9253 50.1966 11.904 50.3673 11.904C51.1353 11.904 51.6899 12.1707 52.0312 12.704C52.0953 12.7893 52.1273 12.864 52.1273 12.928C52.1273 12.9707 52.0526 13.0027 51.9033 13.024C51.7753 13.0453 51.6686 13.12 51.5833 13.248C51.0713 14.08 50.8153 15.328 50.8153 16.992C50.8153 18.528 51.1459 19.296 51.8073 19.296C52.2553 19.296 52.9059 18.8267 53.7593 17.888C53.8873 17.76 54.0686 17.536 54.3033 17.216C54.5379 16.896 54.7726 16.576 55.0073 16.256C55.2419 15.9147 55.4019 15.6907 55.4873 15.584C55.5513 15.52 55.6046 15.488 55.6473 15.488C55.7326 15.488 55.7753 15.5627 55.7753 15.712C55.7753 15.8187 55.7113 15.968 55.5833 16.16C55.1139 16.9067 54.5806 17.632 53.9833 18.336C53.3859 19.04 52.8739 19.4987 52.4473 19.712C52.0633 19.904 51.6793 20 51.2953 20C49.9939 20 49.3433 19.0827 49.3433 17.248C49.3433 17.0987 49.3433 16.9493 49.3433 16.8C49.3646 16.6293 49.3859 16.4587 49.4073 16.288C47.9566 18.8267 46.6873 20.096 45.5993 20.096ZM46.1432 19.136C46.3779 19.136 46.6553 19.008 46.9753 18.752C47.2953 18.4747 47.6259 18.112 47.9673 17.664C48.4793 16.9813 48.9593 16.256 49.4073 15.488C49.8553 14.72 50.2499 13.888 50.5913 12.992C50.5273 12.9707 50.4313 12.96 50.3033 12.96C49.4286 12.96 48.5433 13.504 47.6473 14.592C46.3459 16.1493 45.6953 17.44 45.6953 18.464C45.6953 18.912 45.8446 19.136 46.1432 19.136ZM59.6158 20.192C58.3998 20.192 57.7918 19.424 57.7918 17.888C57.7918 17.2053 57.8984 16.544 58.1118 15.904C58.3464 15.264 58.6131 14.6773 58.9118 14.144C58.1651 14.8053 57.3758 15.6267 56.5438 16.608C55.7331 17.568 54.9331 18.6453 54.1438 19.84C54.0158 20.032 53.9198 20.128 53.8558 20.128C53.6638 20.128 53.5678 19.936 53.5678 19.552C53.5678 19.4667 53.5891 19.3813 53.6318 19.296C53.8664 18.72 54.1011 18.0587 54.3358 17.312C54.5704 16.544 54.8051 15.648 55.0398 14.624C55.0824 14.4107 55.1251 14.1973 55.1678 13.984C55.2104 13.7707 55.2744 13.4933 55.3598 13.152C55.4024 13.024 55.5518 12.8747 55.8078 12.704C56.0211 12.5547 56.2344 12.48 56.4478 12.48C56.5971 12.48 56.6718 12.544 56.6718 12.672C56.6718 12.7787 56.5438 13.2373 56.2878 14.048C56.0318 14.8587 55.6584 16.0213 55.1678 17.536C55.2958 17.3653 55.5624 17.056 55.9678 16.608C56.3731 16.1387 56.9064 15.5413 57.5677 14.816L59.5518 12.64C59.7011 12.4907 59.8718 12.416 60.0638 12.416C60.5544 12.416 60.7998 12.6613 60.7998 13.152C60.7998 13.2587 60.7571 13.3867 60.6718 13.536C59.4771 15.4987 58.8798 17.056 58.8798 18.208C58.8798 19.0187 59.2638 19.424 60.0318 19.424C60.5864 19.424 61.2264 19.1147 61.9518 18.496C62.2504 18.2613 62.5064 18.0053 62.7198 17.728C62.9544 17.4293 63.1998 17.1093 63.4558 16.768C63.9038 16.1493 64.1598 15.84 64.2238 15.84C64.2878 15.84 64.3198 15.904 64.3198 16.032C64.3198 16.16 64.2558 16.3413 64.1278 16.576C62.6771 18.9867 61.1731 20.192 59.6158 20.192ZM65.834 20.192C65.13 20.192 64.5113 19.9893 63.978 19.584C63.4447 19.1787 63.178 18.496 63.178 17.536C63.178 16.96 63.306 16.3413 63.562 15.68C63.818 14.9973 64.1593 14.3573 64.586 13.76C65.034 13.1627 65.5247 12.672 66.058 12.288C66.5913 11.904 67.1353 11.712 67.69 11.712C67.9033 11.712 68.0847 11.7867 68.234 11.936C68.4047 12.0853 68.49 12.3093 68.49 12.608C68.49 13.2693 67.9887 14.0693 66.986 15.008C66.5807 15.392 66.154 15.7333 65.706 16.032C65.2793 16.3307 64.8847 16.544 64.522 16.672C64.4367 16.9493 64.394 17.2693 64.394 17.632C64.394 18.1227 64.5113 18.5707 64.746 18.976C64.9807 19.3813 65.354 19.584 65.866 19.584C66.506 19.584 67.0927 19.4027 67.626 19.04C68.1593 18.6773 68.65 18.24 69.098 17.728C69.546 17.1947 69.9407 16.704 70.282 16.256C70.4313 16.0427 70.5807 15.936 70.73 15.936C70.8153 15.936 70.858 15.9787 70.858 16.064C70.858 16.1067 70.8473 16.16 70.826 16.224C70.8047 16.2667 70.7833 16.3093 70.762 16.352C70.3993 16.864 69.9833 17.4187 69.514 18.016C69.0447 18.6133 68.5113 19.1253 67.914 19.552C67.3167 19.9787 66.6233 20.192 65.834 20.192ZM64.746 16.032C65.3007 15.7973 65.8767 15.3813 66.474 14.784C67.178 14.1013 67.53 13.504 67.53 12.992C67.53 12.736 67.402 12.608 67.146 12.608C66.8047 12.608 66.3353 13.0987 65.738 14.08C65.2047 14.8907 64.874 15.5413 64.746 16.032ZM84.831 20.288C83.999 20.288 83.583 19.648 83.583 18.368C83.583 17.8773 83.647 17.312 83.775 16.672C83.903 16.0107 84.1057 15.296 84.383 14.528L85.887 10.816C86.9537 8.192 87.487 6.66667 87.487 6.24C87.487 4.78933 86.6443 4.064 84.959 4.064C83.231 4.064 81.311 4.704 79.199 5.984C78.1537 6.64533 77.2683 7.33867 76.543 8.064C75.8177 8.78933 75.295 9.504 74.975 10.208C74.591 11.04 74.399 11.712 74.399 12.224C74.399 12.8853 74.7723 13.216 75.519 13.216C75.6897 13.216 75.935 13.184 76.255 13.12C76.6177 13.056 76.863 13.024 76.991 13.024C77.1403 13.024 77.215 13.0773 77.215 13.184C77.215 13.4613 76.9163 13.6747 76.319 13.824C76.1057 13.888 75.8923 13.9307 75.679 13.952C75.4657 13.9733 75.2737 13.984 75.103 13.984C73.759 13.984 73.087 13.4293 73.087 12.32C73.087 11.872 73.2363 11.328 73.535 10.688C73.9617 9.792 74.5803 8.91733 75.391 8.064C76.223 7.21067 77.2897 6.38933 78.591 5.6C81.087 4.064 83.3803 3.296 85.471 3.296C87.6043 3.296 88.671 4.11733 88.671 5.76C88.671 6.67733 88.223 8.256 87.327 10.496C87.071 11.136 86.7937 11.808 86.495 12.512C86.2177 13.1947 85.9617 13.8133 85.727 14.368C85.407 15.2 85.1723 15.9467 85.023 16.608C84.8737 17.2693 84.799 17.8453 84.799 18.336C84.799 19.0613 84.9697 19.424 85.311 19.424C85.4177 19.424 85.535 19.392 85.663 19.328C87.583 18.3467 90.3883 14.688 94.079 8.352C97.2363 2.89067 99.6363 0.16 101.279 0.16C101.834 0.16 102.111 0.287999 102.111 0.543999C102.111 0.714666 101.983 0.799999 101.727 0.799999C101.514 0.799999 101.279 0.863999 101.023 0.991999C100.788 1.09867 100.575 1.23733 100.383 1.408C100.148 1.62133 99.807 1.99467 99.359 2.528C98.9323 3.06133 98.5057 3.62667 98.079 4.224C96.4577 6.464 94.847 8.88533 93.247 11.488C92.607 12.5333 91.999 13.4613 91.423 14.272C90.847 15.0613 90.239 15.8507 89.599 16.64C87.5937 19.072 86.0043 20.288 84.831 20.288ZM96.6355 11.84C96.1235 11.84 95.8675 11.584 95.8675 11.072C95.8675 10.816 95.9635 10.592 96.1555 10.4C96.3688 10.1867 96.6142 10.08 96.8915 10.08C97.4035 10.08 97.6595 10.336 97.6595 10.848C97.6595 11.104 97.5635 11.328 97.3715 11.52C97.1582 11.7333 96.9128 11.84 96.6355 11.84ZM94.7795 20.544C93.6062 20.544 93.0195 19.9147 93.0195 18.656C93.0195 18.0587 93.2328 17.184 93.6595 16.032C93.8515 15.4987 94.0435 15.0507 94.2355 14.688C94.4488 14.304 94.6622 13.952 94.8755 13.632C95.0035 13.44 95.1528 13.344 95.3235 13.344C95.4942 13.344 95.6648 13.4293 95.8355 13.6C95.9422 13.7067 95.9955 13.8453 95.9955 14.016C95.9955 14.1653 95.9528 14.3147 95.8675 14.464C95.3982 15.1893 95.0142 15.9253 94.7155 16.672C94.4168 17.3973 94.2675 18.048 94.2675 18.624C94.2675 19.392 94.5448 19.776 95.0995 19.776C95.3982 19.776 95.7395 19.7013 96.1235 19.552C96.5075 19.3813 96.8915 19.1253 97.2755 18.784C97.5315 18.5493 97.7982 18.2827 98.0755 17.984C98.3742 17.6853 98.6728 17.3333 98.9715 16.928C99.5262 16.2453 99.8035 15.904 99.8035 15.904C99.9102 15.904 99.9635 15.9893 99.9635 16.16C99.9635 16.3307 99.8888 16.5013 99.7395 16.672C97.7982 19.2533 96.1448 20.544 94.7795 20.544ZM101.49 20.192C100.786 20.192 100.168 19.9893 99.6343 19.584C99.1009 19.1787 98.8343 18.496 98.8343 17.536C98.8343 16.96 98.9623 16.3413 99.2183 15.68C99.4743 14.9973 99.8156 14.3573 100.242 13.76C100.69 13.1627 101.181 12.672 101.714 12.288C102.248 11.904 102.792 11.712 103.346 11.712C103.56 11.712 103.741 11.7867 103.89 11.936C104.061 12.0853 104.146 12.3093 104.146 12.608C104.146 13.2693 103.645 14.0693 102.642 15.008C102.237 15.392 101.81 15.7333 101.362 16.032C100.936 16.3307 100.541 16.544 100.178 16.672C100.093 16.9493 100.05 17.2693 100.05 17.632C100.05 18.1227 100.168 18.5707 100.402 18.976C100.637 19.3813 101.01 19.584 101.522 19.584C102.162 19.584 102.749 19.4027 103.282 19.04C103.816 18.6773 104.306 18.24 104.754 17.728C105.202 17.1947 105.597 16.704 105.938 16.256C106.088 16.0427 106.237 15.936 106.386 15.936C106.472 15.936 106.514 15.9787 106.514 16.064C106.514 16.1067 106.504 16.16 106.482 16.224C106.461 16.2667 106.44 16.3093 106.418 16.352C106.056 16.864 105.64 17.4187 105.17 18.016C104.701 18.6133 104.168 19.1253 103.57 19.552C102.973 19.9787 102.28 20.192 101.49 20.192ZM100.402 16.032C100.957 15.7973 101.533 15.3813 102.13 14.784C102.834 14.1013 103.186 13.504 103.186 12.992C103.186 12.736 103.058 12.608 102.802 12.608C102.461 12.608 101.992 13.0987 101.394 14.08C100.861 14.8907 100.53 15.5413 100.402 16.032ZM99.8005 32.992C98.7552 32.992 97.9018 32.6933 97.2405 32.096C96.5365 31.4773 96.1845 30.6773 96.1845 29.696C96.1845 27.4133 97.8058 25.2267 101.048 23.136C103.8 21.3653 106.467 20.2773 109.049 19.872C109.134 19.4667 109.23 18.9547 109.337 18.336C109.465 17.7173 109.614 17.0027 109.785 16.192C108.334 18.7307 107.065 20 105.977 20C105.315 20 104.985 19.6373 104.985 18.912C104.985 17.824 105.518 16.4907 106.585 14.912C107.63 13.3547 108.665 12.3947 109.689 12.032C109.881 11.968 110.062 11.9147 110.233 11.872C110.425 11.8293 110.595 11.808 110.745 11.808C111.086 11.808 111.449 11.904 111.833 12.096C112.003 12.1813 112.153 12.288 112.281 12.416C112.409 12.5227 112.473 12.6507 112.473 12.8C112.473 12.8853 112.377 12.96 112.185 13.024C111.993 13.088 111.865 13.184 111.801 13.312L111.449 14.944C111.342 15.4773 111.182 16.16 110.969 16.992C110.777 17.8027 110.563 18.752 110.329 19.84H110.457C111.587 19.84 112.153 20.0853 112.153 20.576C112.153 20.704 112.11 20.768 112.025 20.768C112.025 20.768 111.939 20.7147 111.769 20.608C111.598 20.5013 111.289 20.448 110.841 20.448C110.734 20.448 110.627 20.448 110.521 20.448C110.414 20.448 110.307 20.4587 110.201 20.48C109.795 22.08 109.337 23.4987 108.825 24.736C108.313 25.9947 107.758 27.0613 107.161 27.936C104.856 31.3067 102.403 32.992 99.8005 32.992ZM106.521 19.04C106.755 19.04 107.033 18.912 107.353 18.656C107.673 18.3787 108.003 18.016 108.345 17.568C108.857 16.8853 109.337 16.16 109.785 15.392C110.233 14.624 110.627 13.792 110.969 12.896C110.905 12.8747 110.809 12.864 110.681 12.864C109.806 12.864 108.921 13.408 108.025 14.496C106.723 16.0533 106.073 17.344 106.073 18.368C106.073 18.816 106.222 19.04 106.521 19.04ZM99.9285 32.544C101.272 32.544 102.574 31.9893 103.832 30.88C104.835 30.0267 105.742 28.9067 106.553 27.52C107.683 25.5787 108.505 23.2213 109.016 20.448C107.63 20.6613 105.955 21.2693 103.992 22.272C103.011 22.7627 102.147 23.2533 101.4 23.744C100.654 24.2347 100.024 24.7253 99.5125 25.216C97.9125 26.752 97.1125 28.2773 97.1125 29.792C97.1125 30.624 97.3685 31.2853 97.8805 31.776C98.4352 32.288 99.1178 32.544 99.9285 32.544ZM113.662 20.096C113 20.096 112.67 19.7333 112.67 19.008C112.67 17.92 113.203 16.5867 114.27 15.008C115.315 13.4507 116.35 12.4907 117.374 12.128C117.566 12.064 117.747 12.0107 117.918 11.968C118.088 11.9253 118.259 11.904 118.43 11.904C119.198 11.904 119.752 12.1707 120.094 12.704C120.158 12.7893 120.19 12.864 120.19 12.928C120.19 12.9707 120.115 13.0027 119.966 13.024C119.838 13.0453 119.731 13.12 119.646 13.248C119.134 14.08 118.878 15.328 118.878 16.992C118.878 18.528 119.208 19.296 119.87 19.296C120.318 19.296 120.968 18.8267 121.822 17.888C121.95 17.76 122.131 17.536 122.366 17.216C122.6 16.896 122.835 16.576 123.07 16.256C123.304 15.9147 123.464 15.6907 123.55 15.584C123.614 15.52 123.667 15.488 123.71 15.488C123.795 15.488 123.838 15.5627 123.838 15.712C123.838 15.8187 123.774 15.968 123.646 16.16C123.176 16.9067 122.643 17.632 122.046 18.336C121.448 19.04 120.936 19.4987 120.51 19.712C120.126 19.904 119.742 20 119.358 20C118.056 20 117.406 19.0827 117.406 17.248C117.406 17.0987 117.406 16.9493 117.406 16.8C117.427 16.6293 117.448 16.4587 117.47 16.288C116.019 18.8267 114.75 20.096 113.662 20.096ZM114.206 19.136C114.44 19.136 114.718 19.008 115.038 18.752C115.358 18.4747 115.688 18.112 116.03 17.664C116.542 16.9813 117.022 16.256 117.47 15.488C117.918 14.72 118.312 13.888 118.654 12.992C118.59 12.9707 118.494 12.96 118.366 12.96C117.491 12.96 116.606 13.504 115.71 14.592C114.408 16.1493 113.758 17.44 113.758 18.464C113.758 18.912 113.907 19.136 114.206 19.136ZM125.47 20.736C124.468 20.736 123.561 20.3733 122.75 19.648C121.918 18.9013 121.502 18.048 121.502 17.088C121.502 16.4693 121.673 16.16 122.014 16.16C122.228 16.16 122.452 16.3093 122.686 16.608C122.985 16.352 123.518 15.552 124.286 14.208C124.628 13.632 125.001 13.0453 125.406 12.448C125.812 11.8293 126.249 11.3173 126.718 10.912C127.188 10.4853 127.678 10.272 128.19 10.272C128.596 10.272 128.937 10.368 129.214 10.56C129.534 10.752 129.694 10.9867 129.694 11.264C129.694 11.4347 129.449 11.52 128.958 11.52C128.489 11.52 128.041 11.6693 127.614 11.968C127.209 12.288 127.006 12.6827 127.006 13.152C127.006 13.3227 127.038 13.504 127.102 13.696L127.902 15.776C128.073 16.1813 128.18 16.576 128.222 16.96C128.286 17.3227 128.318 17.6533 128.318 17.952C129.556 17.76 130.612 17.1307 131.486 16.064C131.529 16 131.582 15.968 131.646 15.968C131.774 15.968 131.838 16.0533 131.838 16.224C131.838 16.2667 131.828 16.3093 131.806 16.352C131.806 16.3947 131.796 16.4373 131.774 16.48C131.07 17.5893 129.886 18.304 128.222 18.624C128.158 18.9653 128.041 19.264 127.87 19.52C127.7 19.776 127.497 19.9893 127.262 20.16C126.729 20.544 126.132 20.736 125.47 20.736ZM127.198 18.112V17.792C127.198 17.5573 127.145 17.2373 127.038 16.832C126.953 16.4267 126.814 15.904 126.622 15.264C126.43 14.624 126.281 14.048 126.174 13.536C126.089 13.0027 126.057 12.6613 126.078 12.512C125.524 13.408 124.969 14.2613 124.414 15.072C123.881 15.8613 123.401 16.5013 122.974 16.992C123.636 17.312 124.34 17.568 125.086 17.76C125.833 17.952 126.537 18.0693 127.198 18.112ZM125.054 19.84C125.481 19.84 125.897 19.7653 126.302 19.616C126.729 19.4453 127.017 19.1467 127.166 18.72C126.206 18.72 125.31 18.624 124.478 18.432C123.668 18.24 123.017 17.9413 122.526 17.536L122.334 17.728C122.91 19.136 123.817 19.84 125.054 19.84Z" fill="#302B37"/>
</svg>
