<svg width="20" height="20" viewBox="0 0 20 20" fill="none" xmlns="http://www.w3.org/2000/svg">
<path d="M15.1511 10.7412L10.9142 9.18258C10.8928 9.17443 10.8734 9.1619 10.8572 9.14579C10.8409 9.12969 10.8282 9.11036 10.8199 9.08906L9.26129 4.85133C9.18049 4.63225 9.03447 4.44322 8.84291 4.3097C8.65135 4.17618 8.42346 4.10459 8.18996 4.10459C7.95646 4.10459 7.72857 4.17618 7.53702 4.3097C7.34546 4.44322 7.19944 4.63225 7.11863 4.85133L5.56004 9.08824C5.55189 9.10962 5.53936 9.12905 5.52326 9.1453C5.50715 9.16154 5.48783 9.17424 5.46653 9.18258L1.22879 10.7412C1.00972 10.822 0.82068 10.968 0.68716 11.1596C0.55364 11.3511 0.482056 11.579 0.482056 11.8125C0.482056 12.046 0.55364 12.2739 0.68716 12.4654C0.82068 12.657 1.00972 12.803 1.22879 12.8838L5.4657 14.4424C5.48708 14.4506 5.50651 14.4631 5.52276 14.4792C5.53901 14.4953 5.55171 14.5146 5.56004 14.5359L7.11863 18.7737C7.19944 18.9927 7.34546 19.1818 7.53702 19.3153C7.72857 19.4488 7.95646 19.5204 8.18996 19.5204C8.42346 19.5204 8.65135 19.4488 8.84291 19.3153C9.03447 19.1818 9.18049 18.9927 9.26129 18.7737L10.8199 14.5368C10.828 14.5154 10.8406 14.4959 10.8567 14.4797C10.8728 14.4635 10.8921 14.4508 10.9134 14.4424L15.1511 12.8838C15.3702 12.803 15.5592 12.657 15.6928 12.4654C15.8263 12.2739 15.8979 12.046 15.8979 11.8125C15.8979 11.579 15.8263 11.3511 15.6928 11.1596C15.5592 10.968 15.3702 10.822 15.1511 10.7412ZM14.8107 11.9602L10.573 13.5187C10.4179 13.5761 10.2771 13.6663 10.1602 13.7833C10.0434 13.9003 9.95333 14.0412 9.89621 14.1963L8.33762 18.4332C8.32643 18.4634 8.30629 18.4894 8.27989 18.5077C8.2535 18.5261 8.22211 18.5359 8.18996 18.5359C8.15781 18.5359 8.12643 18.5261 8.10003 18.5077C8.07364 18.4894 8.05349 18.4634 8.04231 18.4332L6.48371 14.1955C6.42621 14.0407 6.33598 13.9001 6.21919 13.7833C6.1024 13.6665 5.96179 13.5763 5.80695 13.5187L1.57004 11.9602C1.5399 11.949 1.5139 11.9288 1.49555 11.9024C1.47719 11.876 1.46735 11.8447 1.46735 11.8125C1.46735 11.7803 1.47719 11.749 1.49555 11.7226C1.5139 11.6962 1.5399 11.676 1.57004 11.6648L5.80778 10.1062C5.96286 10.0489 6.10367 9.95869 6.2205 9.84172C6.33734 9.72474 6.42742 9.58382 6.48453 9.42867L8.04313 5.19176C8.05431 5.16162 8.07446 5.13562 8.10085 5.11726C8.12725 5.0989 8.15863 5.08907 8.19078 5.08907C8.22293 5.08907 8.25432 5.0989 8.28071 5.11726C8.30711 5.13562 8.32725 5.16162 8.33844 5.19176L9.89703 9.42949C9.95434 9.58457 10.0446 9.72538 10.1616 9.84222C10.2785 9.95905 10.4195 10.0491 10.5746 10.1062L14.8115 11.6648C14.8417 11.676 14.8677 11.6962 14.886 11.7226C14.9044 11.749 14.9142 11.7803 14.9142 11.8125C14.9142 11.8447 14.9044 11.876 14.886 11.9024C14.8677 11.9288 14.8417 11.949 14.8115 11.9602H14.8107ZM10.9766 3.28125C10.9766 3.15071 11.0284 3.02552 11.1207 2.93322C11.213 2.84092 11.3382 2.78906 11.4688 2.78906H12.9453V1.3125C12.9453 1.18196 12.9972 1.05677 13.0895 0.964471C13.1818 0.872168 13.307 0.820313 13.4375 0.820312C13.568 0.820312 13.6932 0.872168 13.7855 0.964471C13.8778 1.05677 13.9297 1.18196 13.9297 1.3125V2.78906H15.4063C15.5368 2.78906 15.662 2.84092 15.7543 2.93322C15.8466 3.02552 15.8984 3.15071 15.8984 3.28125C15.8984 3.41179 15.8466 3.53698 15.7543 3.62928C15.662 3.72158 15.5368 3.77344 15.4063 3.77344H13.9297V5.25C13.9297 5.38054 13.8778 5.50573 13.7855 5.59803C13.6932 5.69033 13.568 5.74219 13.4375 5.74219C13.307 5.74219 13.1818 5.69033 13.0895 5.59803C12.9972 5.50573 12.9453 5.38054 12.9453 5.25V3.77344H11.4688C11.3382 3.77344 11.213 3.72158 11.1207 3.62928C11.0284 3.53698 10.9766 3.41179 10.9766 3.28125ZM19.1797 7.21875C19.1797 7.34929 19.1278 7.47448 19.0355 7.56678C18.9432 7.65908 18.818 7.71094 18.6875 7.71094H17.8672V8.53125C17.8672 8.66179 17.8153 8.78697 17.723 8.87928C17.6307 8.97158 17.5055 9.02344 17.375 9.02344C17.2445 9.02344 17.1193 8.97158 17.027 8.87928C16.9347 8.78697 16.8828 8.66179 16.8828 8.53125V7.71094H16.0625C15.932 7.71094 15.8068 7.65908 15.7145 7.56678C15.6222 7.47448 15.5703 7.34929 15.5703 7.21875C15.5703 7.08821 15.6222 6.96302 15.7145 6.87072C15.8068 6.77842 15.932 6.72656 16.0625 6.72656H16.8828V5.90625C16.8828 5.77571 16.9347 5.65052 17.027 5.55822C17.1193 5.46592 17.2445 5.41406 17.375 5.41406C17.5055 5.41406 17.6307 5.46592 17.723 5.55822C17.8153 5.65052 17.8672 5.77571 17.8672 5.90625V6.72656H18.6875C18.818 6.72656 18.9432 6.77842 19.0355 6.87072C19.1278 6.96302 19.1797 7.08821 19.1797 7.21875Z" fill="#270C3D"/>
</svg>
