<svg width="26" height="23" viewBox="0 0 26 23" fill="none" xmlns="http://www.w3.org/2000/svg">
<path d="M15.0953 1.37297C14.627 1.82443 14.3056 2.40665 14.1733 3.04359C13.7376 2.75245 13.2379 2.571 12.7168 2.51472C12.1958 2.45844 11.6689 2.529 11.181 2.72037C10.6931 2.91175 10.2588 3.21827 9.91495 3.6138C9.57114 4.00933 9.32808 4.48213 9.20649 4.9919L6.24551 1.92571C5.64675 1.30568 4.8262 0.948893 3.96438 0.93385C3.10256 0.918807 2.27006 1.24674 1.65002 1.8455C1.02998 2.44426 0.673197 3.26481 0.658154 4.12663C0.643111 4.98846 0.971041 5.82096 1.5698 6.44099L9.12421 14.2638L7.39646 13.8297C6.56745 13.5933 5.67849 13.6959 4.92514 14.115C4.17179 14.534 3.61576 15.2352 3.37938 16.0642C3.143 16.8932 3.24562 17.7822 3.66467 18.5355C4.08373 19.2889 4.78488 19.8449 5.6139 20.0813L6.75018 20.4176C15.0173 22.8603 18.4333 23.8659 22.5506 19.8898C24.5985 17.9076 25.7765 15.194 25.8262 12.3444C25.876 9.49479 24.7934 6.74178 22.8159 4.68932L19.6908 1.45319C19.3944 1.14618 19.0403 0.900567 18.6489 0.730383C18.2575 0.560199 17.8364 0.468772 17.4097 0.461323C16.983 0.453875 16.559 0.530551 16.1619 0.686972C15.7648 0.843393 15.4024 1.0765 15.0953 1.37297ZM21.7378 5.73221C23.4392 7.49834 24.3706 9.86718 24.3278 12.3191C24.285 14.7711 23.2715 17.106 21.5095 18.8117C18.0207 22.1808 15.2917 21.3702 7.17574 18.9796L6.03245 18.6397C5.5865 18.5119 5.20952 18.2123 4.98436 17.8067C4.75921 17.4012 4.70429 16.9228 4.83169 16.4767C4.91548 16.181 5.07637 15.9129 5.29787 15.6999C5.51884 15.4857 5.79238 15.3336 6.09091 15.2588C6.38943 15.1841 6.70238 15.1894 6.99819 15.2743L7.02195 15.2809L11.3066 16.3564C11.4641 16.3947 11.6297 16.3809 11.7788 16.3172C11.9278 16.2535 12.0522 16.1432 12.1333 16.0029C12.2144 15.8625 12.2478 15.6997 12.2286 15.5387C12.2094 15.3778 12.1385 15.2274 12.0267 15.1101L2.64881 5.39901C2.3264 5.06514 2.14982 4.61687 2.15792 4.15281C2.16602 3.68875 2.35814 3.24692 2.69201 2.92451C3.02587 2.6021 3.47414 2.42552 3.9382 2.43362C4.40226 2.44172 4.84409 2.63384 5.1665 2.9677L11.0711 9.08209C11.2093 9.22518 11.3986 9.30751 11.5975 9.31098C11.7964 9.31445 11.9885 9.23878 12.1316 9.1006C12.2747 8.96243 12.357 8.77307 12.3605 8.57419C12.364 8.3753 12.2883 8.18319 12.1501 8.0401L11.1081 6.96109C10.7857 6.62723 10.6091 6.17896 10.6172 5.7149C10.6253 5.25084 10.8174 4.80901 11.1513 4.4866C11.4852 4.16419 11.9334 3.98761 12.3975 3.99571C12.8616 4.00381 13.3034 4.19592 13.6258 4.52979L15.3625 6.32814C15.5006 6.47122 15.69 6.55356 15.8889 6.55703C16.0878 6.5605 16.2799 6.48482 16.423 6.34665C16.566 6.20847 16.6484 6.01911 16.6518 5.82023C16.6553 5.62135 16.5796 5.42924 16.4415 5.28615L16.0941 4.92648C15.7717 4.59261 15.5951 4.14434 15.6032 3.68029C15.6113 3.21623 15.8035 2.77439 16.1373 2.45198C16.4712 2.12957 16.9195 1.95299 17.3835 1.9611C17.8476 1.9692 18.2894 2.16131 18.6118 2.49518L21.7378 5.73221Z" fill="#270C3D"/>
</svg>
