<svg width="25" height="25" viewBox="0 0 25 25" fill="none" xmlns="http://www.w3.org/2000/svg">
<path d="M0 4.6875C0 3.82324 0.797991 3.125 1.78571 3.125H23.2143C24.202 3.125 25 3.82324 25 4.6875C25 5.55176 24.202 6.25 23.2143 6.25H1.78571C0.797991 6.25 0 5.55176 0 4.6875ZM2.5 12.5C2.5 11.6357 3.51228 10.9375 4.5 10.9375H23.2143C24.202 10.9375 25 11.6357 25 12.5C25 13.3643 24.202 14.0625 23.2143 14.0625H4.5C3.51228 14.0625 2.5 13.3643 2.5 12.5ZM25 20.3125C25 21.1768 24.202 21.875 23.2143 21.875H1.78571C0.797991 21.875 0 21.1768 0 20.3125C0 19.4482 0.797991 18.75 1.78571 18.75H23.2143C24.202 18.75 25 19.4482 25 20.3125Z" fill="#FF8C39"/>
</svg>
