<svg width="79" height="17" viewBox="0 0 79 17" fill="none" xmlns="http://www.w3.org/2000/svg">
<path d="M19.3198 14.4766L20.44 9.63392L16.683 6.37672L21.6464 5.94588L23.5766 1.37891L25.5068 5.94588L30.4702 6.37672L26.7132 9.63392L27.8334 14.4766L23.5766 11.9088L19.3198 14.4766Z" fill="#FFCC00"/>
<path d="M4.01551 14.4766L5.13571 9.63392L1.37872 6.37672L6.34209 5.94588L8.27229 1.37891L10.2025 5.94588L15.1658 6.37672L11.4089 9.63392L12.5291 14.4766L8.27229 11.9088L4.01551 14.4766Z" fill="#FFCC00"/>
<path d="M49.9268 14.4766L51.047 9.63392L47.29 6.37672L52.2533 5.94588L54.1835 1.37891L56.1137 5.94588L61.0771 6.37672L57.3201 9.63392L58.4403 14.4766L54.1835 11.9088L49.9268 14.4766Z" fill="#FFCC00"/>
<path d="M66.471 14.4766L67.5912 9.63392L63.8342 6.37672L68.7975 5.94588L70.7277 1.37891L72.6579 5.94588L77.6213 6.37672L73.8643 9.63392L74.9845 14.4766L70.7277 11.9088L66.471 14.4766Z" fill="#FFCC00"/>
<path d="M34.6224 14.4766L35.7426 9.63392L31.9857 6.37672L36.949 5.94588L38.8792 1.37891L40.8094 5.94588L45.7728 6.37672L42.0158 9.63392L43.136 14.4766L38.8792 11.9088L34.6224 14.4766Z" fill="#FFCC00"/>
</svg>
