<svg width="22" height="22" viewBox="0 0 22 22" fill="none" xmlns="http://www.w3.org/2000/svg">
<g clip-path="url(#clip0_540_12)">
<path d="M7.66388 0.723118C5.46574 1.48567 3.57007 2.93303 2.2553 4.85259C0.940541 6.77215 0.275992 9.06274 0.359267 11.3879C0.442542 13.7131 1.26925 15.9502 2.71797 17.7708C4.16668 19.5914 6.16104 20.8995 8.4081 21.5028C10.2298 21.9729 12.1385 21.9935 13.97 21.563C15.6291 21.1903 17.163 20.3931 18.4215 19.2495C19.7314 18.0229 20.6821 16.4625 21.1715 14.7361C21.7035 12.8586 21.7982 10.8843 21.4483 8.96452H11.2183V13.2081H17.1428C17.0244 13.8849 16.7706 14.5309 16.3968 15.1074C16.0229 15.6839 15.5365 16.179 14.9669 16.5631C14.2434 17.0417 13.4279 17.3637 12.5726 17.5084C11.7149 17.6679 10.8351 17.6679 9.97732 17.5084C9.10796 17.3287 8.28555 16.9699 7.56247 16.4548C6.40086 15.6326 5.52864 14.4644 5.07029 13.117C4.60419 11.7444 4.60419 10.2563 5.07029 8.88374C5.39655 7.92161 5.93591 7.0456 6.6481 6.32109C7.46312 5.47675 8.49495 4.87321 9.6304 4.57669C10.7658 4.28017 11.961 4.30212 13.0848 4.64015C13.9627 4.90963 14.7655 5.38048 15.4292 6.01515C16.0972 5.35057 16.7641 4.68426 17.4298 4.01624C17.7736 3.65702 18.1483 3.31499 18.4869 2.94718C17.4738 2.00441 16.2846 1.27081 14.9875 0.78843C12.6254 -0.0692437 10.0409 -0.0922929 7.66388 0.723118Z" fill="white"/>
<path d="M7.6639 0.723953C10.0407 -0.0920118 12.6252 -0.0695693 14.9875 0.787546C16.2848 1.2732 17.4735 2.01033 18.4851 2.95661C18.1414 3.32442 17.7787 3.66817 17.4281 4.02567C16.7612 4.6914 16.0949 5.35484 15.4292 6.01598C14.7655 5.38131 13.9627 4.91047 13.0848 4.64098C11.9614 4.30177 10.7663 4.27855 9.63052 4.57385C8.49477 4.86916 7.46231 5.47159 6.6464 6.31505C5.9342 7.03956 5.39485 7.91557 5.06858 8.8777L1.50562 6.11911C2.78094 3.59007 4.98909 1.65556 7.6639 0.723953Z" fill="#E33629"/>
<path d="M0.560288 8.85195C0.751793 7.90285 1.06973 6.98372 1.5056 6.11914L5.06857 8.88461C4.60247 10.2572 4.60247 11.7453 5.06857 13.1179C3.88149 14.0346 2.69383 14.9558 1.5056 15.8816C0.414453 13.7097 0.0816723 11.235 0.560288 8.85195Z" fill="#F8BD00"/>
<path d="M11.2183 8.96289H21.4483C21.7982 10.8826 21.7036 12.857 21.1716 14.7345C20.6821 16.4609 19.7314 18.0213 18.4216 19.2479C17.2717 18.3507 16.1167 17.4604 14.9669 16.5632C15.537 16.1787 16.0235 15.683 16.3974 15.1059C16.7713 14.5288 17.0249 13.8822 17.1428 13.2048H11.2183C11.2166 11.792 11.2183 10.3774 11.2183 8.96289Z" fill="#587DBD"/>
<path d="M1.50391 15.8809C2.69214 14.9643 3.87979 14.043 5.06688 13.1172C5.52614 14.465 6.3996 15.6333 7.5625 16.455C8.28783 16.9676 9.11201 17.3235 9.9825 17.5C10.8403 17.6595 11.7201 17.6595 12.5778 17.5C13.4331 17.3552 14.2486 17.0332 14.972 16.5547C16.1219 17.4519 17.2769 18.3422 18.4267 19.2394C17.1684 20.3836 15.6345 21.1814 13.9752 21.5545C12.1437 21.9851 10.235 21.9644 8.41328 21.4944C6.97246 21.1097 5.62663 20.4315 4.46016 19.5023C3.22551 18.5221 2.21711 17.2868 1.50391 15.8809Z" fill="#319F43"/>
</g>
<defs>
<clipPath id="clip0_540_12">
<rect width="22" height="22" fill="white"/>
</clipPath>
</defs>
</svg>
