<svg width="70" height="70" viewBox="0 0 70 70" fill="none" xmlns="http://www.w3.org/2000/svg">
<path d="M55.5625 14.3207C52.8881 11.6201 49.703 9.4789 46.1928 8.02172C42.6825 6.56454 38.9173 5.82057 35.1167 5.83317C19.1917 5.83317 6.21252 18.8123 6.21252 34.7373C6.21252 39.8415 7.55419 44.7998 10.0625 49.1748L5.97919 64.1665L21.2917 60.1415C25.5209 62.4457 30.275 63.6707 35.1167 63.6707C51.0417 63.6707 64.0209 50.6915 64.0209 34.7665C64.0209 27.0373 61.0167 19.7748 55.5625 14.3207ZM35.1167 58.7707C30.8 58.7707 26.5709 57.604 22.8667 55.4165L21.9917 54.8915L12.8917 57.2832L15.3125 48.4165L14.7292 47.5123C12.3304 43.6829 11.0569 39.256 11.0542 34.7373C11.0542 21.4957 21.8459 10.704 35.0875 10.704C41.5042 10.704 47.5417 13.2123 52.0625 17.7623C54.3014 19.9903 56.0756 22.6406 57.2823 25.5595C58.4889 28.4785 59.1039 31.608 59.0917 34.7665C59.15 48.0082 48.3584 58.7707 35.1167 58.7707ZM48.3 40.804C47.5709 40.454 44.0125 38.704 43.3709 38.4415C42.7 38.2082 42.2334 38.0915 41.7375 38.7915C41.2417 39.5207 39.8709 41.154 39.4625 41.6207C39.0542 42.1165 38.6167 42.1748 37.8875 41.7957C37.1584 41.4457 34.825 40.6582 32.0834 38.2082C29.925 36.2832 28.4959 33.9207 28.0584 33.1915C27.65 32.4623 28 32.0832 28.3792 31.704C28.7 31.3832 29.1084 30.8582 29.4584 30.4498C29.8084 30.0415 29.9542 29.7207 30.1875 29.254C30.4209 28.7582 30.3042 28.3498 30.1292 27.9998C29.9542 27.6498 28.4959 24.0915 27.9125 22.6332C27.3292 21.2332 26.7167 21.4082 26.2792 21.379H24.8792C24.3834 21.379 23.625 21.554 22.9542 22.2832C22.3125 23.0123 20.4459 24.7623 20.4459 28.3207C20.4459 31.879 23.0417 35.3207 23.3917 35.7873C23.7417 36.2832 28.4959 43.5748 35.7292 46.6957C37.45 47.454 38.7917 47.8915 39.8417 48.2123C41.5625 48.7665 43.1375 48.679 44.3917 48.504C45.7917 48.2998 48.6792 46.754 49.2625 45.0623C49.875 43.3707 49.875 41.9415 49.6709 41.6207C49.4667 41.2998 49.0292 41.154 48.3 40.804Z" fill="white"/>
</svg>
