<svg width="32" height="32" viewBox="0 0 32 32" fill="none" xmlns="http://www.w3.org/2000/svg">
<path d="M23.2648 24.381L24.1648 23.487C28.3288 23.623 28.3928 23.477 28.5758 23.049L29.7198 20.264L29.8048 20L29.7118 19.769C29.6628 19.647 29.5118 19.283 26.9118 16.804V15.5C29.9118 12.61 29.8478 12.462 29.6768 12.039L28.5378 9.22502C28.3668 8.80302 28.3018 8.63802 24.1678 8.75102L23.2678 7.82102C23.3619 6.45114 23.3146 5.07521 23.1268 3.71502L23.0108 3.45202L20.0368 2.15202C19.5988 1.95202 19.4448 1.88002 16.6368 4.93802L15.3748 4.91902C12.4838 1.83302 12.3468 1.88902 11.9138 2.06402L9.14882 3.18202C8.71582 3.35702 8.56282 3.41902 8.73082 7.61902L7.83782 8.50902C3.67582 8.37302 3.61182 8.52102 3.43082 8.94702L2.28482 11.733L2.19482 12L2.28882 12.232C2.33782 12.352 2.48282 12.712 5.08882 15.194V16.494C2.08882 19.384 2.15382 19.532 2.32582 19.956L3.46382 22.773C3.63782 23.204 3.69982 23.357 7.83282 23.249L8.73282 24.184C8.63924 25.5518 8.68514 26.9255 8.86982 28.284L8.98582 28.549L11.9788 29.857C12.4138 30.039 12.5648 30.104 15.3648 27.057L16.6268 27.073C19.5218 30.163 19.6698 30.103 20.0928 29.932L22.8518 28.817C23.2878 28.644 23.4398 28.583 23.2648 24.381ZM11.4068 17.857C11.0579 16.9451 10.986 15.9504 11.2003 14.9978C11.4146 14.0451 11.9054 13.177 12.6112 12.5023C13.3171 11.8276 14.2064 11.3764 15.1678 11.2053C16.1291 11.0341 17.1195 11.1507 18.0148 11.5404C18.9101 11.9301 19.6704 12.5755 20.2002 13.3957C20.7301 14.2159 21.0059 15.1743 20.9931 16.1506C20.9802 17.1269 20.6794 18.0778 20.1282 18.8837C19.577 19.6897 18.8 20.315 17.8948 20.681C16.6598 21.164 15.2836 21.138 14.0677 20.6087C12.8517 20.0795 11.895 19.09 11.4068 17.857Z" fill="#0ACF83"/>
</svg>
