<svg width="54" height="53" viewBox="0 0 54 53" fill="none" xmlns="http://www.w3.org/2000/svg">
<path d="M18.1348 35.2268L22.5381 22.0168L35.7482 17.6134L31.3448 30.8235L18.1348 35.2268Z" stroke="#5C3B94" stroke-width="3" stroke-linecap="round" stroke-linejoin="round"/>
<path d="M7.12646 26.4201C7.12646 29.0222 7.639 31.5989 8.6348 34.003C9.6306 36.4071 11.0902 38.5915 12.9302 40.4315C14.7702 42.2715 16.9546 43.7311 19.3587 44.7269C21.7627 45.7227 24.3394 46.2352 26.9416 46.2352M7.12646 26.4201C7.12646 23.8179 7.639 21.2413 8.6348 18.8372C9.6306 16.4331 11.0902 14.2487 12.9302 12.4087C14.7702 10.5687 16.9546 9.10912 19.3587 8.11332C21.7627 7.11751 24.3394 6.60498 26.9416 6.60498M7.12646 26.4201H11.5298M26.9416 46.2352C29.5437 46.2352 32.1204 45.7227 34.5245 44.7269C36.9286 43.7311 39.113 42.2715 40.953 40.4315C42.793 38.5915 44.2525 36.4071 45.2483 34.003C46.2442 31.5989 46.7567 29.0222 46.7567 26.4201M26.9416 46.2352V41.8318M46.7567 26.4201C46.7567 23.8179 46.2442 21.2413 45.2483 18.8372C44.2525 16.4331 42.793 14.2487 40.953 12.4087C39.113 10.5687 36.9286 9.10912 34.5245 8.11332C32.1204 7.11751 29.5437 6.60498 26.9416 6.60498M46.7567 26.4201H42.3533M26.9416 6.60498V11.0083" stroke="#5C3B94" stroke-width="3" stroke-linecap="round" stroke-linejoin="round"/>
</svg>
