<svg width="32" height="32" viewBox="0 0 32 32" fill="none" xmlns="http://www.w3.org/2000/svg">
<path d="M7.43317 2.76536C7.60292 2.84698 7.74617 2.97488 7.84643 3.13434C7.94668 3.2938 7.99986 3.47833 7.99984 3.66669C7.99984 4.77336 8.41584 5.41069 8.93717 6.18669L8.97584 6.24269C9.4185 6.90136 9.99984 7.76402 9.99984 9.00002C9.99984 9.97248 9.61353 10.9051 8.9259 11.5927C8.23826 12.2804 7.30563 12.6667 6.33317 12.6667C5.36071 12.6667 4.42808 12.2804 3.74045 11.5927C3.05281 10.9051 2.6665 9.97248 2.6665 9.00002C2.6665 8.50936 2.6665 7.66536 3.17717 6.57602C3.67717 5.50936 4.62784 4.28402 6.3745 2.88536C6.52171 2.7676 6.69921 2.69386 6.88652 2.67262C7.07384 2.65139 7.26334 2.68354 7.43317 2.76536ZM6.33317 14.6667C7.45615 14.6686 8.55414 14.3353 9.4865 13.7094C9.8345 14.688 9.99984 15.9894 9.99984 17.6734C9.99984 19.956 9.69317 22.6974 9.19317 24.8867C8.94517 25.9747 8.63717 26.9787 8.2705 27.732C8.09819 28.1073 7.86881 28.4536 7.5905 28.7587C7.31584 29.04 6.89317 29.34 6.33317 29.34C5.77317 29.34 5.3505 29.04 5.07717 28.7587C4.79887 28.4536 4.56948 28.1073 4.39717 27.732C4.02917 26.9774 3.72117 25.9747 3.47317 24.8854C2.95261 22.5158 2.68224 20.0981 2.6665 17.672C2.6665 15.9894 2.83184 14.688 3.17984 13.7094C4.1122 14.3353 5.21019 14.6686 6.33317 14.6667ZM11.3118 18.7694C11.9535 19.0514 12.6357 19.2305 13.3332 19.3V16.3334C13.3332 15.7643 13.4453 15.2008 13.663 14.6751C13.8808 14.1493 14.2 13.6716 14.6024 13.2692C15.415 12.4566 16.5172 12 17.6665 12H20.6332C20.5237 10.9087 20.1466 9.86117 19.5353 8.95043C18.9241 8.03968 18.0976 7.29383 17.1291 6.77898C16.1606 6.26413 15.08 5.9962 13.9832 5.99894C12.8863 6.00168 11.8071 6.27501 10.8412 6.79469C10.6336 6.35693 10.3892 5.93763 10.1105 5.54136L10.0438 5.44269L9.80517 5.08002C11.0754 4.37745 12.5017 4.00517 13.9532 3.99733C15.4047 3.9895 16.835 4.34637 18.1127 5.03519C19.3904 5.724 20.4746 6.72271 21.2658 7.93964C22.0571 9.15657 22.53 10.5527 22.6412 12H24.9998C25.5689 12 26.1324 12.1121 26.6581 12.3299C27.1839 12.5476 27.6616 12.8668 28.064 13.2692C28.4664 13.6716 28.7855 14.1493 29.0033 14.6751C29.2211 15.2008 29.3332 15.7643 29.3332 16.3334V23.6667C29.3332 24.2357 29.2211 24.7992 29.0033 25.325C28.7855 25.8507 28.4664 26.3284 28.064 26.7308C27.6616 27.1332 27.1839 27.4524 26.6581 27.6702C26.1324 27.8879 25.5689 28 24.9998 28H17.6665C16.5172 28 15.415 27.5435 14.6024 26.7308C13.7897 25.9182 13.3332 24.816 13.3332 23.6667V21.308C12.5966 21.2518 11.8703 21.1017 11.1718 20.8614C11.2385 20.1547 11.2865 19.4507 11.3118 18.7694ZM24.9998 14H22.5652C22.2817 15.8163 21.4284 17.4956 20.1286 18.7954C18.8287 20.0953 17.1495 20.9485 15.3332 21.232V23.6667C15.3332 24.9547 16.3785 26 17.6665 26H24.9998C25.6187 26 26.2122 25.7542 26.6498 25.3166C27.0873 24.879 27.3332 24.2855 27.3332 23.6667V16.3334C27.3332 15.7145 27.0873 15.121 26.6498 14.6834C26.2122 14.2459 25.6187 14 24.9998 14ZM15.3332 19.2C16.6136 18.9371 17.7888 18.3043 18.7131 17.38C19.6375 16.4557 20.2703 15.2805 20.5332 14H17.6665C17.0477 14 16.4542 14.2459 16.0166 14.6834C15.579 15.121 15.3332 15.7145 15.3332 16.3334V19.2Z" fill="#0ACF83"/>
</svg>
