<svg width="20" height="20" viewBox="0 0 20 20" fill="none" xmlns="http://www.w3.org/2000/svg">
<g clip-path="url(#clip0_431_110)">
<path d="M0.423473 9.88029C0.423008 11.5607 0.862078 13.2014 1.69696 14.6477L0.343628 19.5889L5.40037 18.263C6.79901 19.0244 8.36606 19.4233 9.95851 19.4235H9.9627C15.2197 19.4235 19.499 15.1457 19.5012 9.88781C19.5022 7.33998 18.5109 4.94416 16.7098 3.14168C14.9091 1.33936 12.5141 0.346256 9.96231 0.345093C4.70471 0.345093 0.425721 4.62261 0.42355 9.88029" fill="url(#paint0_linear_431_110)"/>
<path d="M0.0829457 9.87721C0.0824031 11.6181 0.537209 13.3175 1.40186 14.8155L0 19.9339L5.23806 18.5605C6.68132 19.3474 8.30628 19.7622 9.95977 19.7629H9.96403C15.4096 19.7629 19.8426 15.3312 19.845 9.88512C19.8459 7.24574 18.8189 4.7638 16.9535 2.89674C15.0878 1.02992 12.6072 0.00108527 9.96403 0C4.51752 0 0.0851163 4.43101 0.0829457 9.87721ZM3.2024 14.5575L3.00682 14.2471C2.18465 12.9398 1.7507 11.4291 1.75132 9.87783C1.75302 5.35109 5.43706 1.66822 9.96713 1.66822C12.1609 1.66915 14.2226 2.52434 15.7733 4.07597C17.324 5.62775 18.1772 7.69054 18.1767 9.8845C18.1747 14.4112 14.4905 18.0946 9.96403 18.0946H9.96078C8.4869 18.0938 7.0414 17.698 5.78078 16.95L5.48078 16.7721L2.3724 17.5871L3.2024 14.5575Z" fill="url(#paint1_linear_431_110)"/>
<path d="M7.4944 5.74789C7.30944 5.3368 7.11479 5.32851 6.9389 5.3213C6.79487 5.31509 6.63021 5.31556 6.46572 5.31556C6.30107 5.31556 6.03355 5.3775 5.80742 5.6244C5.58107 5.87153 4.94324 6.46874 4.94324 7.68339C4.94324 8.89804 5.82797 10.072 5.9513 10.2369C6.07479 10.4015 7.65928 12.9739 10.1687 13.9635C12.2543 14.7859 12.6787 14.6223 13.1314 14.5811C13.5841 14.54 14.5922 13.984 14.7978 13.4075C15.0036 12.8311 15.0036 12.337 14.9419 12.2337C14.8802 12.1308 14.7156 12.069 14.4687 11.9456C14.2218 11.8222 13.0079 11.2249 12.7816 11.1425C12.5553 11.0601 12.3907 11.019 12.226 11.2663C12.0614 11.5131 11.5886 12.069 11.4445 12.2337C11.3005 12.3987 11.1564 12.4193 10.9096 12.2958C10.6625 12.1719 9.86742 11.9115 8.92409 11.0705C8.19014 10.4161 7.69463 9.60796 7.5506 9.36075C7.40657 9.11393 7.53518 8.98013 7.65897 8.85711C7.7699 8.74649 7.90595 8.56882 8.02952 8.42471C8.15262 8.28052 8.1937 8.17765 8.27603 8.013C8.35843 7.8482 8.31719 7.70401 8.25556 7.58052C8.1937 7.45703 7.71394 6.23603 7.4944 5.74789Z" fill="white"/>
</g>
<defs>
<linearGradient id="paint0_linear_431_110" x1="958.224" y1="1924.73" x2="958.224" y2="0.345093" gradientUnits="userSpaceOnUse">
<stop stop-color="#1FAF38"/>
<stop offset="1" stop-color="#60D669"/>
</linearGradient>
<linearGradient id="paint1_linear_431_110" x1="992.248" y1="1993.39" x2="992.248" y2="0" gradientUnits="userSpaceOnUse">
<stop stop-color="#F9F9F9"/>
<stop offset="1" stop-color="white"/>
</linearGradient>
<clipPath id="clip0_431_110">
<rect width="19.845" height="20" fill="white"/>
</clipPath>
</defs>
</svg>
