<svg width="20" height="20" viewBox="0 0 20 20" fill="none" xmlns="http://www.w3.org/2000/svg">
<path d="M13.6334 11.6665C13.7 11.1165 13.75 10.5665 13.75 9.99984C13.75 9.43317 13.7 8.88317 13.6334 8.33317H16.45C16.5834 8.8665 16.6667 9.42484 16.6667 9.99984C16.6667 10.5748 16.5834 11.1332 16.45 11.6665M12.1584 16.2998C12.6584 15.3748 13.0417 14.3748 13.3084 13.3332H15.7667C14.9593 14.7234 13.6784 15.7765 12.1584 16.2998ZM11.95 11.6665H8.05002C7.96669 11.1165 7.91669 10.5665 7.91669 9.99984C7.91669 9.43317 7.96669 8.87484 8.05002 8.33317H11.95C12.025 8.87484 12.0834 9.43317 12.0834 9.99984C12.0834 10.5665 12.025 11.1165 11.95 11.6665ZM10 16.6332C9.30835 15.6332 8.75002 14.5248 8.40835 13.3332H11.5917C11.25 14.5248 10.6917 15.6332 10 16.6332ZM6.66669 6.6665H4.23335C5.03222 5.27237 6.31224 4.21754 7.83335 3.69984C7.33335 4.62484 6.95835 5.62484 6.66669 6.6665ZM4.23335 13.3332H6.66669C6.95835 14.3748 7.33335 15.3748 7.83335 16.2998C6.31524 15.7768 5.03693 14.7233 4.23335 13.3332ZM3.55002 11.6665C3.41669 11.1332 3.33335 10.5748 3.33335 9.99984C3.33335 9.42484 3.41669 8.8665 3.55002 8.33317H6.36669C6.30002 8.88317 6.25002 9.43317 6.25002 9.99984C6.25002 10.5665 6.30002 11.1165 6.36669 11.6665M10 3.35817C10.6917 4.35817 11.25 5.47484 11.5917 6.6665H8.40835C8.75002 5.47484 9.30835 4.35817 10 3.35817ZM15.7667 6.6665H13.3084C13.0471 5.63451 12.661 4.63826 12.1584 3.69984C13.6917 4.22484 14.9667 5.28317 15.7667 6.6665ZM10 1.6665C5.39169 1.6665 1.66669 5.4165 1.66669 9.99984C1.66669 12.21 2.54466 14.3296 4.10746 15.8924C4.88129 16.6662 5.79994 17.28 6.81099 17.6988C7.82204 18.1176 8.90567 18.3332 10 18.3332C12.2102 18.3332 14.3298 17.4552 15.8926 15.8924C17.4554 14.3296 18.3334 12.21 18.3334 9.99984C18.3334 8.90549 18.1178 7.82185 17.699 6.81081C17.2802 5.79976 16.6664 4.8811 15.8926 4.10728C15.1188 3.33346 14.2001 2.71963 13.189 2.30084C12.178 1.88205 11.0944 1.6665 10 1.6665Z" fill="#0ACF83"/>
</svg>
