<svg width="54" height="53" viewBox="0 0 54 53" fill="none" xmlns="http://www.w3.org/2000/svg">
<path d="M48.2986 5.55338C48.2811 5.46868 48.2397 5.39076 48.1794 5.32878C48.1191 5.2668 48.0423 5.22334 47.9581 5.20352C42.3459 3.83091 29.3814 8.72173 22.3501 15.7478C21.0971 16.9907 19.9544 18.3402 18.9351 19.781C16.7679 19.585 14.6006 19.7501 12.7553 20.5551C7.54454 22.8462 6.02848 28.8299 5.60534 31.3987C5.58242 31.5394 5.59221 31.6836 5.63396 31.8199C5.67571 31.9563 5.7483 32.0812 5.8461 32.185C5.9439 32.2888 6.06429 32.3687 6.19793 32.4184C6.33157 32.4682 6.47487 32.4865 6.61674 32.472L14.9835 31.5535C14.9892 32.1846 15.0271 32.8149 15.097 33.4421C15.1407 33.8756 15.3341 34.2804 15.644 34.5866L18.8835 37.8262C19.1901 38.1363 19.5952 38.3298 20.0291 38.3732C20.6525 38.4427 21.2791 38.4806 21.9064 38.4867L20.9889 46.8462C20.9746 46.9879 20.993 47.131 21.0428 47.2644C21.0926 47.3978 21.1724 47.518 21.276 47.6157C21.3797 47.7133 21.5044 47.7858 21.6405 47.8276C21.7767 47.8694 21.9206 47.8793 22.0612 47.8566C24.6309 47.4438 30.6271 45.9277 32.9048 40.718C33.7098 38.8706 33.8749 36.7147 33.6891 34.5578C35.1342 33.5394 36.4876 32.3967 37.7337 31.1427C44.7908 24.1249 49.6506 11.4453 48.2986 5.55338ZM31.461 22.0515C30.8446 21.4353 30.4248 20.65 30.2546 19.7952C30.0845 18.9403 30.1717 18.0542 30.5052 17.2489C30.8387 16.4436 31.4036 15.7553 32.1283 15.271C32.853 14.7868 33.7051 14.5283 34.5767 14.5283C35.4483 14.5283 36.3004 14.7868 37.0251 15.271C37.7498 15.7553 38.3146 16.4436 38.6481 17.2489C38.9816 18.0542 39.0689 18.9403 38.8987 19.7952C38.7286 20.65 38.3088 21.4353 37.6924 22.0515C37.2836 22.4612 36.7979 22.7863 36.2633 23.0081C35.7286 23.2299 35.1555 23.344 34.5767 23.344C33.9979 23.344 33.4247 23.2299 32.8901 23.0081C32.3555 22.7863 31.8698 22.4612 31.461 22.0515Z" stroke="#5C3B94" stroke-width="3" stroke-linecap="round" stroke-linejoin="round"/>
<path d="M11.9534 36.3278C10.9246 36.4541 9.96742 36.9205 9.23396 37.6529C7.41551 39.4775 7.24316 46.2353 7.24316 46.2353C7.24316 46.2353 14.0051 46.063 15.8245 44.2424C16.56 43.5102 17.0271 42.5514 17.1507 41.521" stroke="#5C3B94" stroke-width="3" stroke-linecap="round" stroke-linejoin="round"/>
</svg>
