<svg width="54" height="53" viewBox="0 0 54 53" fill="none" xmlns="http://www.w3.org/2000/svg">
<g clip-path="url(#clip0_593_893)">
<path d="M48.4075 6.60498C49.0955 6.60498 49.7406 6.73399 50.3426 6.99199C50.9446 7.25 51.4692 7.60262 51.9164 8.04983C52.3637 8.49705 52.7163 9.02167 52.9743 9.62369C53.2323 10.2257 53.3613 10.8707 53.3613 11.5588V41.2814C53.3613 41.9694 53.2323 42.6145 52.9743 43.2165C52.7163 43.8185 52.3637 44.3431 51.9164 44.7903C51.4692 45.2376 50.9446 45.5902 50.3426 45.8482C49.7406 46.1062 49.0955 46.2352 48.4075 46.2352H0.520996V6.60498H48.4075ZM3.82351 42.9327H7.12603V9.9075H3.82351V42.9327ZM50.0588 11.5588C50.0588 11.1115 49.8954 10.7245 49.5686 10.3977C49.2417 10.0709 48.8547 9.9075 48.4075 9.9075H10.4286V42.9327H48.4075C48.8547 42.9327 49.2417 42.7693 49.5686 42.4425C49.8954 42.1157 50.0588 41.7286 50.0588 41.2814V11.5588ZM20.3361 16.5125H40.1512V26.4201H20.3361V16.5125ZM23.6386 23.1176H36.8487V19.8151H23.6386V23.1176Z" fill="#FF5C5C"/>
</g>
<defs>
<clipPath id="clip0_593_893">
<rect width="52.8403" height="52.8403" fill="white" transform="translate(0.520996)"/>
</clipPath>
</defs>
</svg>
