<svg width="50" height="50" viewBox="0 0 50 50" fill="none" xmlns="http://www.w3.org/2000/svg">
<path d="M33.5937 3.90625V6.10312C32.3121 6.32096 31.0951 6.82163 30.0312 7.56875L28.4187 6.05313L26.2703 8.35L27.8328 9.81406C27.1198 10.8567 26.6367 12.0391 26.4156 13.2828H24.2187V16.4078H26.4156C26.6437 17.7047 27.1562 18.8859 27.8812 19.9234L26.2203 21.5328L28.4703 23.7828L30.0797 22.1203C31.1172 22.8453 32.2984 23.3578 33.5953 23.5859V25.7812H36.7203V23.5844C37.9638 23.3638 39.1463 22.8812 40.1891 22.1687L41.6516 23.7312L43.9484 21.5813L42.4328 19.9719C43.1672 18.925 43.6672 17.7141 43.8984 16.4062H46.0937V13.2812H43.8969C43.6724 12.016 43.172 10.8157 42.4312 9.76562L43.8969 8.3L41.6984 6.10312L40.2344 7.56875C39.1843 6.82798 37.984 6.32759 36.7187 6.10312V3.90625H33.5937ZM35.1562 9.08281C35.9142 9.07783 36.6657 9.22343 37.367 9.51116C38.0683 9.79889 38.7054 10.223 39.2415 10.759C39.7776 11.2949 40.2019 11.9319 40.4898 12.6331C40.7777 13.3343 40.9235 14.0857 40.9187 14.8438C40.9187 18.0547 38.3672 20.6062 35.1562 20.6062C31.9453 20.6062 29.3937 18.0547 29.3937 14.8438C29.3937 11.6328 31.9453 9.08125 35.1562 9.08125V9.08281ZM14.8906 18.3094L12.0125 19.4813L13.1344 22.3094C11.6411 23.2032 10.3849 24.4433 9.47186 25.925L6.69061 24.8L5.51874 27.6828L8.29999 28.8047C8.08055 29.6499 7.96614 30.519 7.95936 31.3922C7.95936 32.2828 8.09217 33.1516 8.29999 33.9797L5.51874 35.1047L6.69061 37.9844L9.47186 36.8594C10.3767 38.3603 11.6339 39.6179 13.1344 40.5234L12.0094 43.3047L14.8922 44.4766L16.0172 41.6953C16.8624 41.9148 17.7315 42.0292 18.6047 42.0359C19.4953 42.0359 20.3672 41.9031 21.1922 41.6953L22.3172 44.4766L25.1969 43.3047L24.0719 40.5234C25.5551 39.6124 26.7956 38.3557 27.6875 36.8609L30.5156 37.9828L31.6875 35.1031L28.8594 33.9781C29.0625 33.15 29.2 32.2797 29.2 31.3906C29.2 30.5 29.0641 29.6281 28.8562 28.8016L31.6891 27.6797L30.5172 24.7969L27.6891 25.9219C26.7912 24.4442 25.5511 23.2041 24.0734 22.3063L25.1984 19.4781L22.3156 18.3062L21.1953 21.1344C20.3489 20.9184 19.4797 20.8045 18.6062 20.7953C17.7156 20.7953 16.8469 20.9297 16.0187 21.1359L14.8937 18.3078L14.8906 18.3094ZM18.6031 23.9219C22.7641 23.9219 26.0719 27.2344 26.0719 31.3937C26.075 35.5547 22.7641 38.9125 18.6031 38.9125C17.6154 38.9137 16.6371 38.7201 15.7244 38.3427C14.8116 37.9653 13.9822 37.4115 13.2838 36.7131C12.5854 36.0146 12.0316 35.1853 11.6542 34.2725C11.2768 33.3597 11.0831 32.3815 11.0844 31.3937C11.0844 27.2328 14.4437 23.9219 18.6031 23.9219Z" fill="#5C3B94"/>
</svg>
