<svg width="25" height="25" viewBox="0 0 25 25" fill="none" xmlns="http://www.w3.org/2000/svg">
<path d="M21.2499 3.62546C20.1039 2.47172 18.7389 1.55696 17.2345 0.934515C15.7301 0.312075 14.1164 -0.00558149 12.4875 7.4214e-05C5.66248 7.4214e-05 0.0999999 5.54405 0.0999999 12.3463C0.0999999 14.5265 0.674998 16.6445 1.74999 18.5132L0 24.9168L6.56248 23.1976C8.37498 24.1818 10.4125 24.705 12.4875 24.705C19.3124 24.705 24.8749 19.161 24.8749 12.3588C24.8749 9.05731 23.5874 5.95517 21.2499 3.62546ZM12.4875 22.612C10.6375 22.612 8.82497 22.1137 7.23748 21.1793L6.86248 20.955L2.96249 21.9766L3.99999 18.1893L3.74999 17.8031C2.72217 16.1673 2.17642 14.2764 2.17499 12.3463C2.17499 6.69022 6.79998 2.08062 12.475 2.08062C15.225 2.08062 17.8124 3.15204 19.7499 5.09555C20.7093 6.04732 21.4696 7.17941 21.9867 8.4262C22.5038 9.67299 22.7675 11.0097 22.7624 12.3588C22.7874 18.0149 18.1624 22.612 12.4875 22.612ZM18.1374 14.9377C17.8249 14.7882 16.3 14.0407 16.025 13.9285C15.7375 13.8289 15.5375 13.779 15.325 14.078C15.1125 14.3895 14.525 15.0872 14.35 15.2865C14.175 15.4983 13.9875 15.5232 13.675 15.3612C13.3625 15.2117 12.3625 14.8754 11.1875 13.8289C10.2625 13.0066 9.64997 11.9975 9.46247 11.686C9.28747 11.3746 9.43747 11.2126 9.59997 11.0506C9.73747 10.9136 9.91247 10.6894 10.0625 10.5149C10.2125 10.3405 10.275 10.2035 10.375 10.0041C10.475 9.79235 10.425 9.61794 10.35 9.46844C10.275 9.31893 9.64997 7.79901 9.39997 7.1761C9.14997 6.57809 8.88747 6.65284 8.69997 6.64038H8.09998C7.88748 6.64038 7.56248 6.71513 7.27498 7.02659C6.99998 7.33805 6.19998 8.08556 6.19998 9.60548C6.19998 11.1254 7.31248 12.5955 7.46248 12.7948C7.61248 13.0066 9.64997 16.1212 12.75 17.4542C13.4875 17.7782 14.0625 17.965 14.5125 18.1021C15.25 18.3388 15.925 18.3014 16.4625 18.2267C17.0625 18.1395 18.2999 17.4792 18.5499 16.7566C18.8124 16.034 18.8124 15.4235 18.7249 15.2865C18.6374 15.1495 18.4499 15.0872 18.1374 14.9377Z" fill="#FF8C39"/>
</svg>
