<svg width="25" height="17" viewBox="0 0 25 17" fill="none" xmlns="http://www.w3.org/2000/svg">
<path d="M24.5206 6.11682L22.1281 1.32995C22.0399 1.15376 21.918 0.99666 21.7691 0.867619C21.6202 0.738577 21.4474 0.640123 21.2605 0.577877C21.0736 0.515631 20.8763 0.490814 20.6798 0.504842C20.4833 0.51887 20.2914 0.57147 20.1153 0.659636L17.7837 1.82495L12.8721 0.525573C12.7461 0.492778 12.6138 0.492778 12.4878 0.525573L7.5762 1.82495L5.24464 0.659636C5.06847 0.57147 4.87665 0.51887 4.68015 0.504842C4.48364 0.490814 4.2863 0.515631 4.09939 0.577877C3.91248 0.640123 3.73966 0.738577 3.5908 0.867619C3.44194 0.99666 3.31996 1.15376 3.23183 1.32995L0.839327 6.11589C0.75116 6.29206 0.698561 6.48387 0.684533 6.68038C0.670505 6.87688 0.695322 7.07422 0.757568 7.26113C0.819813 7.44805 0.918268 7.62086 1.04731 7.76972C1.17635 7.91858 1.33345 8.04056 1.50964 8.1287L4.04089 9.39526L9.24308 13.1106C9.31978 13.165 9.40593 13.2048 9.49714 13.2278L15.4971 14.7278C15.6228 14.7593 15.7545 14.7577 15.8793 14.7232C16.0042 14.6887 16.118 14.6224 16.2096 14.5309L21.3725 9.36714L23.8493 8.1287C24.2049 7.95069 24.4753 7.63878 24.601 7.26152C24.7267 6.88426 24.6974 6.47253 24.5196 6.11682H24.5206ZM19.3746 9.24526L16.1487 6.66151C16.0042 6.54577 15.822 6.48758 15.6371 6.49814C15.4523 6.5087 15.2779 6.58726 15.1475 6.7187C13.4778 8.40057 11.6168 8.18776 10.43 7.43776L14.4837 3.50026H17.4659L20.0168 8.6012L19.3746 9.24526ZM4.57339 2.00026L6.49245 2.95839L4.09526 7.74432L2.17995 6.78714L4.57339 2.00026ZM15.4484 13.1687L10.0006 11.8074L5.38808 8.51307L8.01308 3.26307L12.68 2.02651L13.5987 2.26932L9.37995 6.36432L9.37245 6.37276C9.21364 6.53157 9.09253 6.72401 9.01803 6.93588C8.94354 7.14775 8.91757 7.37365 8.94204 7.5969C8.96652 7.82014 9.04081 8.03505 9.15944 8.22575C9.27807 8.41645 9.43801 8.57807 9.62745 8.6987C11.555 9.92964 13.8809 9.72995 15.7128 8.22995L18.305 10.3121L15.4484 13.1687ZM21.2609 7.74339L18.8684 2.96214L20.7865 2.00026L23.18 6.78714L21.2609 7.74339ZM13.0343 16.4312C12.9938 16.5933 12.9003 16.7372 12.7687 16.8401C12.6371 16.9431 12.4749 16.9991 12.3078 16.9993C12.2461 16.9994 12.1847 16.9918 12.125 16.9768L8.21839 15.9999C8.12703 15.9774 8.0408 15.9376 7.96433 15.8828L5.49401 14.1184C5.34212 13.9991 5.24209 13.8259 5.21474 13.6347C5.18739 13.4435 5.23483 13.2492 5.34719 13.0921C5.45956 12.9351 5.62817 12.8274 5.81793 12.7915C6.00769 12.7557 6.20397 12.7944 6.36589 12.8996L8.71995 14.5815L12.4925 15.5228C12.6854 15.571 12.8512 15.6939 12.9536 15.8645C13.0559 16.035 13.0863 16.2392 13.0381 16.4321L13.0343 16.4312Z" fill="#0ACF83"/>
</svg>
