<svg width="22" height="16" viewBox="0 0 22 16" fill="none" xmlns="http://www.w3.org/2000/svg">
<path d="M19.8 0H2.2C0.99 0 0 0.9 0 2V14C0 15.1 0.99 16 2.2 16H19.8C21.01 16 22 15.1 22 14V2C22 0.9 21.01 0 19.8 0ZM19.36 4.25L12.166 8.34C11.451 8.75 10.549 8.75 9.834 8.34L2.64 4.25C2.5297 4.19371 2.43311 4.11766 2.35608 4.02645C2.27904 3.93525 2.22317 3.83078 2.19183 3.71937C2.1605 3.60796 2.15435 3.49194 2.17377 3.37831C2.19319 3.26468 2.23777 3.15581 2.30481 3.0583C2.37185 2.96079 2.45996 2.87666 2.5638 2.811C2.66764 2.74533 2.78506 2.69951 2.90895 2.6763C3.03283 2.65309 3.16061 2.65297 3.28455 2.67595C3.40849 2.69893 3.52601 2.74453 3.63 2.81L11 7L18.37 2.81C18.474 2.74453 18.5915 2.69893 18.7155 2.67595C18.8394 2.65297 18.9672 2.65309 19.0911 2.6763C19.2149 2.69951 19.3324 2.74533 19.4362 2.811C19.54 2.87666 19.6282 2.96079 19.6952 3.0583C19.7622 3.15581 19.8068 3.26468 19.8262 3.37831C19.8456 3.49194 19.8395 3.60796 19.8082 3.71937C19.7768 3.83078 19.721 3.93525 19.6439 4.02645C19.5669 4.11766 19.4703 4.19371 19.36 4.25Z" fill="#5C3B94"/>
</svg>
