<svg width="32" height="32" viewBox="0 0 32 32" fill="none" xmlns="http://www.w3.org/2000/svg">
<path d="M6.6665 22.6667C5.93317 22.6667 5.30562 22.4058 4.78384 21.884C4.26206 21.3623 4.00073 20.7343 3.99984 20V8.00004C3.99984 7.26671 4.26117 6.63915 4.78384 6.11737C5.3065 5.5956 5.93406 5.33426 6.6665 5.33337H25.3332C26.0665 5.33337 26.6945 5.59471 27.2172 6.11737C27.7398 6.64004 28.0007 7.2676 27.9998 8.00004H20.6665C19.3776 8.00004 18.2776 8.4556 17.3665 9.36671C16.4554 10.2778 15.9998 11.3778 15.9998 12.6667V22.6667H6.6665ZM20.6665 26.6667C20.1109 26.6667 19.6389 26.4725 19.2505 26.084C18.8621 25.6956 18.6674 25.2232 18.6665 24.6667V12.6667C18.6665 12.1112 18.8612 11.6392 19.2505 11.2507C19.6398 10.8623 20.1118 10.6676 20.6665 10.6667H27.3332C27.8887 10.6667 28.3612 10.8614 28.7505 11.2507C29.1398 11.64 29.3341 12.112 29.3332 12.6667V24.6667C29.3332 25.2223 29.1389 25.6947 28.7505 26.084C28.3621 26.4734 27.8896 26.6676 27.3332 26.6667H20.6665ZM2.6665 26.6667V24H15.9998V26.6667H2.6665ZM23.9998 16.6667C24.2887 16.6667 24.5278 16.5667 24.7172 16.3667C24.9065 16.1667 25.0007 15.9334 24.9998 15.6667C24.9998 15.3778 24.9052 15.1392 24.7158 14.9507C24.5265 14.7623 24.2878 14.6676 23.9998 14.6667C23.7332 14.6667 23.4998 14.7614 23.2998 14.9507C23.0998 15.14 22.9998 15.3787 22.9998 15.6667C22.9998 15.9334 23.0998 16.1667 23.2998 16.3667C23.4998 16.5667 23.7332 16.6667 23.9998 16.6667Z" fill="#5C3B94"/>
</svg>
