<svg width="3336" height="1314" viewBox="0 0 3336 1314" fill="none" xmlns="http://www.w3.org/2000/svg">
<path d="M933.777 425.031C1068.18 623.251 1019.35 1314 1019.35 1314C1019.35 1314 912.879 707.598 890.989 679.069C872.425 654.875 455.258 631.293 261.445 450.533C114.303 313.301 0 0 0 0C0 0 270.67 203.326 465.945 288.694C640.846 365.156 890.99 361.93 933.777 425.031Z" fill="#56357E"/>
<path d="M823.661 964.821C834.258 977.011 964.294 1231.61 964.294 1231.61C964.294 1231.61 861.729 797.751 848.201 780.749C834.674 763.748 689.212 757.119 591.474 719.283C499.15 683.543 362.12 595.044 362.12 595.044C362.12 595.044 431.815 697.573 486.393 753.94C529.631 798.594 555.531 822.626 605.947 858.236C683.677 913.139 814.851 954.685 823.661 964.821Z" fill="#56357E"/>
<path d="M1359.2 797V517H1525.6V547.8H1393.2V643.4H1510V674.2H1393.2V797H1359.2Z" fill="#523768"/>
<path d="M1600.79 802.6C1594.65 802.6 1589.32 800.467 1584.79 796.2C1580.52 791.667 1578.39 786.467 1578.39 780.6C1578.39 774.467 1580.52 769.267 1584.79 765C1589.32 760.467 1594.65 758.2 1600.79 758.2C1606.92 758.2 1612.12 760.467 1616.39 765C1620.65 769.267 1622.79 774.467 1622.79 780.6C1622.79 786.467 1620.65 791.667 1616.39 796.2C1612.12 800.467 1606.92 802.6 1600.79 802.6Z" fill="#523768"/>
<path d="M1900.82 797L1784.82 517H1820.42L1919.62 758.6L2018.82 517H2054.42L1938.42 797H1900.82Z" fill="#523768"/>
<path d="M2115.76 797V517H2149.76V797H2115.76Z" fill="#523768"/>
<path d="M2244.36 797V517H2409.96V547.8H2278.36V638.2H2398.36V668.6H2278.36V766.2H2410.76V797H2244.36Z" fill="#523768"/>
<path d="M2627.88 801.8C2599.34 801.8 2574.14 795.667 2552.27 783.4C2530.41 770.867 2513.21 753.8 2500.68 732.2C2488.41 710.333 2482.27 685.4 2482.27 657.4C2482.27 628.867 2488.41 603.8 2500.68 582.2C2513.21 560.333 2530.41 543.267 2552.27 531C2574.14 518.467 2599.34 512.2 2627.88 512.2C2642.81 512.2 2657.34 514.733 2671.48 519.8C2685.61 524.6 2698.54 531.267 2710.27 539.8C2722.01 548.333 2731.48 558.067 2738.68 569L2711.88 587.4C2706.54 578.867 2699.34 571.267 2690.27 564.6C2681.21 557.667 2671.21 552.333 2660.27 548.6C2649.61 544.867 2638.81 543 2627.88 543C2606.27 543 2587.07 547.933 2570.27 557.8C2553.47 567.4 2540.28 580.733 2530.68 597.8C2521.08 614.867 2516.27 634.733 2516.27 657.4C2516.27 679.267 2520.94 698.867 2530.27 716.2C2539.87 733.267 2553.07 746.733 2569.88 756.6C2586.94 766.467 2606.27 771.4 2627.88 771.4C2645.74 771.4 2661.61 767.667 2675.48 760.2C2689.61 752.733 2700.68 742.333 2708.68 729C2716.68 715.667 2720.81 700.467 2721.07 683.4H2652.27V654.2H2753.48V680.6C2753.48 704.867 2748.01 726.067 2737.07 744.2C2726.41 762.333 2711.61 776.467 2692.68 786.6C2673.74 796.733 2652.14 801.8 2627.88 801.8Z" fill="#523768"/>
<path d="M2788.65 797L2902.65 517H2937.85L3051.85 797H3016.25L2983.85 717.4H2857.05L2824.65 797H2788.65ZM2868.65 687H2971.85L2920.25 559.4L2868.65 687Z" fill="#523768"/>
<path d="M3202.55 801.8C3187.08 801.8 3173.35 800.2 3161.35 797C3149.35 793.533 3138.95 788.867 3130.15 783C3121.35 776.867 3114.15 770.2 3108.55 763C3102.95 755.533 3098.82 747.667 3096.15 739.4L3128.55 728.2C3132.55 739.933 3140.55 750.2 3152.55 759C3164.82 767.533 3179.75 771.8 3197.35 771.8C3218.95 771.8 3235.88 767.533 3248.15 759C3260.42 750.467 3266.55 739.133 3266.55 725C3266.55 711.933 3261.08 701.4 3250.15 693.4C3239.22 685.133 3224.82 678.733 3206.95 674.2L3176.15 666.2C3163.62 663 3152.02 658.333 3141.35 652.2C3130.95 645.8 3122.55 637.8 3116.15 628.2C3110.02 618.333 3106.95 606.6 3106.95 593C3106.95 567.667 3115.08 547.933 3131.35 533.8C3147.88 519.4 3171.62 512.2 3202.55 512.2C3220.95 512.2 3236.82 515.267 3250.15 521.4C3263.48 527.267 3274.28 534.867 3282.55 544.2C3291.08 553.267 3297.08 563.133 3300.55 573.8L3268.55 585C3263.48 571.667 3254.95 561.267 3242.95 553.8C3230.95 546.067 3216.42 542.2 3199.35 542.2C3181.48 542.2 3167.22 546.6 3156.55 555.4C3146.15 563.933 3140.95 575.667 3140.95 590.6C3140.95 603.4 3145.08 613.267 3153.35 620.2C3161.62 626.867 3172.42 631.8 3185.75 635L3216.55 642.6C3243.75 649 3264.55 659.667 3278.95 674.6C3293.62 689.267 3300.95 705.133 3300.95 722.2C3300.95 736.867 3297.22 750.333 3289.75 762.6C3282.28 774.6 3271.22 784.2 3256.55 791.4C3242.15 798.333 3224.15 801.8 3202.55 801.8Z" fill="#523768"/>
<path d="M1564.5 980H1581.2L1533.7 1128H1511.5L1468.6 996.9L1425.6 1128H1403.4L1355.7 980H1373.4L1415.4 1113L1458.8 980H1478.9L1522.1 1113.6L1564.5 980Z" fill="#8456BC"/>
<path d="M1696.46 1114.2H1783.66V1128H1679.46V980H1782.66V993.8H1696.46V1045.2H1772.46V1058.9H1696.46V1114.2Z" fill="#8456BC"/>
<path d="M1964.95 1051.7C1975.42 1053.43 1983.25 1057.4 1988.45 1063.6C1993.72 1069.73 1996.35 1077.6 1996.35 1087.2C1996.35 1096.47 1994.05 1104.2 1989.45 1110.4C1984.92 1116.6 1977.52 1121.3 1967.25 1124.5C1956.98 1127.7 1943.42 1129.3 1926.55 1129.3C1913.02 1129.3 1899.25 1128.37 1885.25 1126.5V983.2C1892.72 981.6 1900.18 980.4 1907.65 979.6C1915.12 978.8 1923.05 978.4 1931.45 978.4C1952.52 978.4 1967.88 981.733 1977.55 988.4C1987.28 995 1992.15 1004.97 1992.15 1018.3C1992.15 1026.9 1989.88 1034.1 1985.35 1039.9C1980.88 1045.7 1974.08 1049.63 1964.95 1051.7ZM1932.95 991.5C1921.22 991.5 1910.92 992.333 1902.05 994V1045.5H1937.85C1950.85 1045.5 1960.42 1043.37 1966.55 1039.1C1972.75 1034.83 1975.85 1028.07 1975.85 1018.8C1975.85 1012.27 1974.38 1007.03 1971.45 1003.1C1968.58 999.1 1964.02 996.167 1957.75 994.3C1951.55 992.433 1943.28 991.5 1932.95 991.5ZM1930.05 1116.2C1942.78 1116.2 1952.82 1115.1 1960.15 1112.9C1967.48 1110.7 1972.68 1107.47 1975.75 1103.2C1978.82 1098.93 1980.35 1093.4 1980.35 1086.6C1980.35 1076.87 1977.08 1069.77 1970.55 1065.3C1964.08 1060.83 1953.88 1058.6 1939.95 1058.6H1902.05V1114.4C1906.32 1115.07 1910.62 1115.53 1914.95 1115.8C1919.28 1116.07 1924.32 1116.2 1930.05 1116.2Z" fill="#8456BC"/>
<path d="M2265.19 1129.1C2250.99 1129.1 2237.12 1128.23 2223.59 1126.5V983.2C2230.39 981.733 2237.79 980.6 2245.79 979.8C2253.85 979 2261.55 978.6 2268.89 978.6C2296.15 978.6 2316.75 984.9 2330.69 997.5C2344.62 1010.03 2351.59 1028.87 2351.59 1054C2351.59 1079.47 2344.39 1098.37 2329.99 1110.7C2315.65 1122.97 2294.05 1129.1 2265.19 1129.1ZM2268.59 1114.8C2290.65 1114.8 2307.05 1109.87 2317.79 1100C2328.59 1090.07 2333.99 1074.7 2333.99 1053.9C2333.99 1033.17 2328.59 1017.8 2317.79 1007.8C2307.05 997.8 2290.79 992.8 2268.99 992.8C2260.52 992.8 2251.09 993.633 2240.69 995.3V1113.1C2248.62 1114.23 2257.92 1114.8 2268.59 1114.8Z" fill="#8456BC"/>
<path d="M2472.35 1114.2H2559.55V1128H2455.35V980H2558.55V993.8H2472.35V1045.2H2548.35V1058.9H2472.35V1114.2Z" fill="#8456BC"/>
<path d="M2695.54 1129.9C2688.41 1129.9 2681.24 1129.33 2674.04 1128.2C2666.84 1127.07 2659.94 1125.43 2653.34 1123.3V1108.9C2660.21 1111.17 2667.34 1112.9 2674.74 1114.1C2682.21 1115.23 2689.24 1115.8 2695.84 1115.8C2722.91 1115.8 2736.44 1106.63 2736.44 1088.3C2736.44 1083.23 2735.34 1079.07 2733.14 1075.8C2730.94 1072.47 2727.44 1069.73 2722.64 1067.6C2717.91 1065.4 2711.44 1063.5 2703.24 1061.9L2694.24 1060.2C2679.24 1057.27 2668.28 1052.53 2661.34 1046C2654.41 1039.4 2650.94 1030.63 2650.94 1019.7C2650.94 1011.03 2653.11 1003.6 2657.44 997.4C2661.78 991.2 2668.24 986.433 2676.84 983.1C2685.51 979.767 2696.18 978.1 2708.84 978.1C2722.38 978.1 2735.01 979.833 2746.74 983.3V997.7C2734.74 994.033 2722.14 992.2 2708.94 992.2C2695.14 992.2 2684.88 994.5 2678.14 999.1C2671.48 1003.7 2668.14 1010.33 2668.14 1019C2668.14 1024 2669.11 1028.17 2671.04 1031.5C2672.98 1034.83 2676.14 1037.6 2680.54 1039.8C2684.94 1042 2690.91 1043.87 2698.44 1045.4L2707.44 1047.1C2718.44 1049.23 2727.31 1052.1 2734.04 1055.7C2740.84 1059.3 2745.78 1063.7 2748.84 1068.9C2751.98 1074.1 2753.54 1080.3 2753.54 1087.5C2753.54 1096.43 2751.28 1104.1 2746.74 1110.5C2742.21 1116.83 2735.58 1121.67 2726.84 1125C2718.18 1128.27 2707.74 1129.9 2695.54 1129.9Z" fill="#8456BC"/>
<path d="M2854.24 1128V980H2871.34V1128H2854.24Z" fill="#8456BC"/>
<path d="M3098.49 1056V1126C3091.09 1127.2 3084.39 1128.03 3078.39 1128.5C3072.39 1129.03 3066.09 1129.3 3059.49 1129.3C3031.69 1129.3 3010.72 1123.03 2996.59 1110.5C2982.46 1097.9 2975.36 1079.2 2975.29 1054.4C2975.29 1037.47 2978.59 1023.3 2985.19 1011.9C2991.86 1000.5 3001.22 992.033 3013.29 986.5C3025.42 980.9 3039.72 978.1 3056.19 978.1C3068.32 978.1 3080.96 979.733 3094.09 983V997.6C3087.29 995.8 3080.96 994.533 3075.09 993.8C3069.22 993.067 3063.32 992.7 3057.39 992.7C3037.12 992.7 3021.36 997.667 3010.09 1007.6C2998.82 1017.53 2993.19 1032.93 2993.19 1053.8C2993.19 1094.47 3015.06 1114.8 3058.79 1114.8C3066.99 1114.8 3074.82 1114.37 3082.29 1113.5V1056H3098.49Z" fill="#8456BC"/>
<path d="M3318.89 980H3335.19V1128H3317.59L3224.69 1003.8V1128H3208.39V980H3225.99L3318.89 1104.2V980Z" fill="#8456BC"/>
</svg>
