<svg width="181" height="59" viewBox="0 0 181 59" fill="none" xmlns="http://www.w3.org/2000/svg">
<g clip-path="url(#clip0_482_269)">
<path d="M175.362 36.057L180.383 39.3824C178.754 41.767 174.856 45.8584 168.117 45.8584C159.748 45.8584 153.516 39.4263 153.516 31.244C153.516 22.5369 159.814 16.6299 167.412 16.6299C175.054 16.6299 178.798 22.6679 180.009 25.9276L180.67 27.5905L160.982 35.6851C162.479 38.6168 164.814 40.1045 168.117 40.1045C171.42 40.1045 173.71 38.4855 175.362 36.057ZM159.925 30.785L173.072 25.3591C172.345 23.5434 170.187 22.2528 167.61 22.2528C164.329 22.2528 159.771 25.1406 159.925 30.785Z" fill="#FF302F"/>
<path d="M144.025 1.73145H150.367V44.524H144.025V1.73145Z" fill="#20B15A"/>
<path d="M134.027 17.7677H140.149V43.7582C140.149 54.5436 133.74 58.9848 126.164 58.9848C119.029 58.9848 114.735 54.2156 113.127 50.3434L118.743 48.0241C119.756 50.4087 122.2 53.2312 126.164 53.2312C131.031 53.2312 134.027 50.2338 134.027 44.6334V42.5333H133.806C132.353 44.2833 129.578 45.8584 126.055 45.8584C118.699 45.8584 111.96 39.492 111.96 31.2882C111.96 23.0401 118.699 16.6084 126.055 16.6084C129.556 16.6084 132.353 18.1617 133.806 19.8681H134.027V17.7677ZM134.467 31.2882C134.467 26.125 131.009 22.362 126.605 22.362C122.156 22.362 118.413 26.125 118.413 31.2882C118.413 36.3853 122.156 40.0827 126.605 40.0827C131.01 40.1048 134.467 36.3853 134.467 31.2882" fill="#3686F7"/>
<path d="M77.1428 31.1788C77.1428 39.6018 70.5363 45.7929 62.4319 45.7929C54.3279 45.7929 47.7211 39.58 47.7211 31.1788C47.7211 22.7123 54.3279 16.543 62.4319 16.543C70.5363 16.543 77.1428 22.7123 77.1428 31.1788ZM70.7123 31.1788C70.7123 25.9285 66.8802 22.3183 62.4319 22.3183C57.9836 22.3183 54.1515 25.9285 54.1515 31.1788C54.1515 36.3856 57.9836 40.0394 62.4319 40.0394C66.8806 40.0394 70.7123 36.3856 70.7123 31.1788Z" fill="#FF302F"/>
<path d="M109.273 31.244C109.273 39.6669 102.667 45.8581 94.5626 45.8581C86.4583 45.8581 79.8517 39.6666 79.8517 31.244C79.8517 22.7775 86.4583 16.6299 94.5626 16.6299C102.667 16.6299 109.273 22.7557 109.273 31.244ZM102.821 31.244C102.821 25.9937 98.989 22.3834 94.5403 22.3834C90.0917 22.3834 86.2599 25.9937 86.2599 31.244C86.2599 36.4507 90.092 40.1045 94.5403 40.1045C99.0109 40.1045 102.821 36.429 102.821 31.244Z" fill="#FFBA40"/>
<path d="M23.5406 39.4488C14.3131 39.4488 7.09011 32.0541 7.09011 22.8873C7.09011 13.7209 14.3131 6.32621 23.5406 6.32621C28.5177 6.32621 32.1512 8.27321 34.8379 10.7674L39.2646 6.37011C35.5209 2.80412 30.5218 0.0908203 23.5406 0.0908203C10.8999 0.0911715 0.263016 10.3301 0.263016 22.8873C0.263016 35.4445 10.8999 45.6838 23.5406 45.6838C30.3677 45.6838 35.5209 43.4523 39.551 39.2956C43.691 35.1825 44.9682 29.4068 44.9682 24.7251C44.9682 23.2592 44.7922 21.7498 44.5939 20.6341H23.5406V26.716H38.5378C38.0973 30.5229 36.8862 33.1263 35.1023 34.898C32.9441 37.0642 29.5309 39.4488 23.5406 39.4488Z" fill="#3686F7"/>
</g>
<defs>
<clipPath id="clip0_482_269">
<rect width="181" height="59" fill="white"/>
</clipPath>
</defs>
</svg>
