<svg width="42" height="42" viewBox="0 0 42 42" fill="none" xmlns="http://www.w3.org/2000/svg">
<circle cx="21" cy="21" r="21" fill="#FF5C5C"/>
<path d="M20.116 33.432C18.628 33.432 17.284 33.216 16.084 32.784C14.884 32.328 13.876 31.692 13.06 30.876C12.268 30.036 11.716 29.052 11.404 27.924L15.94 26.592C16.108 26.88 16.336 27.24 16.624 27.672C16.912 28.08 17.308 28.428 17.812 28.716C18.316 29.004 18.976 29.148 19.792 29.148C20.992 29.148 21.94 28.824 22.636 28.176C23.356 27.504 23.716 26.64 23.716 25.584C23.716 24.864 23.536 24.228 23.176 23.676C22.816 23.124 22.228 22.704 21.412 22.416C20.62 22.104 19.576 21.948 18.28 21.948H16.768V18.6H18.1C19.54 18.6 20.896 18.78 22.168 19.14C23.44 19.476 24.556 19.98 25.516 20.652C26.5 21.3 27.268 22.092 27.82 23.028C28.372 23.94 28.648 24.984 28.648 26.16C28.648 27.672 28.252 28.98 27.46 30.084C26.668 31.164 25.624 31.992 24.328 32.568C23.032 33.144 21.628 33.432 20.116 33.432ZM16.768 21.048V17.916H18.28C19.96 17.916 21.208 17.628 22.024 17.052C22.84 16.476 23.248 15.684 23.248 14.676C23.248 14.1 23.104 13.584 22.816 13.128C22.528 12.672 22.12 12.312 21.592 12.048C21.064 11.784 20.452 11.652 19.756 11.652C19.3 11.652 18.832 11.736 18.352 11.904C17.872 12.048 17.428 12.3 17.02 12.66C16.636 12.996 16.324 13.488 16.084 14.136L11.62 12.804C11.956 11.628 12.532 10.644 13.348 9.852C14.188 9.036 15.184 8.424 16.336 8.016C17.488 7.584 18.676 7.368 19.9 7.368C21.46 7.368 22.864 7.668 24.112 8.268C25.36 8.844 26.344 9.648 27.064 10.68C27.784 11.712 28.144 12.9 28.144 14.244C28.144 15.396 27.868 16.392 27.316 17.232C26.764 18.072 26.008 18.78 25.048 19.356C24.112 19.932 23.044 20.364 21.844 20.652C20.644 20.916 19.396 21.048 18.1 21.048H16.768ZM35.5479 33.54C34.7559 33.54 34.0719 33.252 33.4959 32.676C32.9439 32.1 32.6679 31.416 32.6679 30.624C32.6679 29.856 32.9439 29.184 33.4959 28.608C34.0719 28.032 34.7559 27.744 35.5479 27.744C36.3399 27.744 37.0119 28.032 37.5639 28.608C38.1399 29.184 38.4279 29.856 38.4279 30.624C38.4279 31.416 38.1399 32.1 37.5639 32.676C37.0119 33.252 36.3399 33.54 35.5479 33.54Z" fill="white"/>
</svg>
