<svg width="42" height="42" viewBox="0 0 42 42" fill="none" xmlns="http://www.w3.org/2000/svg">
<circle cx="21" cy="21" r="21" fill="#FF5C5C"/>
<path d="M11.836 33V29.364C11.836 28.668 12.052 27.9 12.484 27.06C12.916 26.22 13.516 25.38 14.284 24.54C15.052 23.7 15.952 22.92 16.984 22.2L20.8 19.464C21.328 19.104 21.82 18.696 22.276 18.24C22.756 17.784 23.14 17.292 23.428 16.764C23.74 16.212 23.896 15.684 23.896 15.18C23.896 14.556 23.74 13.992 23.428 13.488C23.14 12.984 22.708 12.588 22.132 12.3C21.556 12.012 20.848 11.868 20.008 11.868C19.288 11.868 18.64 12.012 18.064 12.3C17.512 12.588 17.056 12.972 16.696 13.452C16.336 13.932 16.084 14.448 15.94 15L10.864 14.136C11.104 12.936 11.62 11.82 12.412 10.788C13.204 9.756 14.236 8.928 15.508 8.304C16.804 7.656 18.268 7.332 19.9 7.332C21.772 7.332 23.38 7.668 24.724 8.34C26.068 9.012 27.1 9.936 27.82 11.112C28.564 12.264 28.936 13.608 28.936 15.144C28.936 16.704 28.504 18.096 27.64 19.32C26.8 20.52 25.636 21.648 24.148 22.704L20.728 25.188C20.032 25.668 19.432 26.196 18.928 26.772C18.424 27.348 18.04 27.984 17.776 28.68H29.26V33H11.836ZM36.3917 33.54C35.5997 33.54 34.9157 33.252 34.3397 32.676C33.7877 32.1 33.5117 31.416 33.5117 30.624C33.5117 29.856 33.7877 29.184 34.3397 28.608C34.9157 28.032 35.5997 27.744 36.3917 27.744C37.1837 27.744 37.8557 28.032 38.4077 28.608C38.9837 29.184 39.2717 29.856 39.2717 30.624C39.2717 31.416 38.9837 32.1 38.4077 32.676C37.8557 33.252 37.1837 33.54 36.3917 33.54Z" fill="white"/>
</svg>
