<svg width="42" height="42" viewBox="0 0 42 42" fill="none" xmlns="http://www.w3.org/2000/svg">
<circle cx="21" cy="21" r="21" fill="#5C3B94"/>
<path d="M18.672 34V29.032H6.936V25.108L18.096 8.8H23.316V24.82H27.708V29.032H23.316V34H18.672ZM12.012 24.82H18.672V15.064L12.012 24.82ZM34.3253 34.54C33.5333 34.54 32.8493 34.252 32.2732 33.676C31.7213 33.1 31.4453 32.416 31.4453 31.624C31.4453 30.856 31.7213 30.184 32.2732 29.608C32.8493 29.032 33.5333 28.744 34.3253 28.744C35.1173 28.744 35.7893 29.032 36.3413 29.608C36.9173 30.184 37.2053 30.856 37.2053 31.624C37.2053 32.416 36.9173 33.1 36.3413 33.676C35.7893 34.252 35.1173 34.54 34.3253 34.54Z" fill="white"/>
</svg>
