<svg width="42" height="42" viewBox="0 0 42 42" fill="none" xmlns="http://www.w3.org/2000/svg">
<circle cx="21" cy="21" r="21" fill="#FF5C5C"/>
<path d="M17.02 33V10.428L17.488 7.8H21.736V33H17.02ZM11.692 15.756V11.292C12.292 11.34 12.94 11.196 13.636 10.86C14.332 10.5 15.016 10.044 15.688 9.492C16.384 8.916 16.984 8.34 17.488 7.764L20.62 10.824C19.756 11.784 18.844 12.66 17.884 13.452C16.924 14.22 15.928 14.82 14.896 15.252C13.888 15.684 12.82 15.852 11.692 15.756ZM30.7315 33.54C29.9395 33.54 29.2555 33.252 28.6795 32.676C28.1275 32.1 27.8515 31.416 27.8515 30.624C27.8515 29.856 28.1275 29.184 28.6795 28.608C29.2555 28.032 29.9395 27.744 30.7315 27.744C31.5235 27.744 32.1955 28.032 32.7475 28.608C33.3235 29.184 33.6115 29.856 33.6115 30.624C33.6115 31.416 33.3235 32.1 32.7475 32.676C32.1955 33.252 31.5235 33.54 30.7315 33.54Z" fill="white"/>
</svg>
