<svg width="42" height="42" viewBox="0 0 42 42" fill="none" xmlns="http://www.w3.org/2000/svg">
<circle cx="21" cy="21" r="21" fill="#FF5C5C"/>
<path d="M16.548 34.432C15.396 34.432 14.208 34.24 12.984 33.856C11.784 33.472 10.692 32.896 9.708 32.128C8.748 31.36 8.04 30.412 7.584 29.284L12.084 27.952C12.612 28.72 13.236 29.284 13.956 29.644C14.7 30.004 15.468 30.184 16.26 30.184C17.508 30.184 18.516 29.812 19.284 29.068C20.076 28.3 20.472 27.28 20.472 26.008C20.472 24.832 20.088 23.848 19.32 23.056C18.576 22.264 17.58 21.868 16.332 21.868C15.588 21.868 14.904 22.036 14.28 22.372C13.656 22.708 13.176 23.104 12.84 23.56L8.412 22.588L9.924 8.8H24.18V13.264H14.136L13.416 19.312C14.064 18.952 14.784 18.664 15.576 18.448C16.368 18.208 17.22 18.1 18.132 18.124C19.5 18.124 20.748 18.46 21.876 19.132C23.004 19.78 23.892 20.68 24.54 21.832C25.212 22.96 25.548 24.28 25.548 25.792C25.548 27.496 25.164 28.996 24.396 30.292C23.628 31.588 22.572 32.608 21.228 33.352C19.884 34.072 18.324 34.432 16.548 34.432ZM32.462 34.54C31.67 34.54 30.986 34.252 30.41 33.676C29.858 33.1 29.582 32.416 29.582 31.624C29.582 30.856 29.858 30.184 30.41 29.608C30.986 29.032 31.67 28.744 32.462 28.744C33.254 28.744 33.926 29.032 34.478 29.608C35.054 30.184 35.342 30.856 35.342 31.624C35.342 32.416 35.054 33.1 34.478 33.676C33.926 34.252 33.254 34.54 32.462 34.54Z" fill="white"/>
</svg>
