<svg width="50" height="50" viewBox="0 0 50 50" fill="none" xmlns="http://www.w3.org/2000/svg">
<path d="M45.0986 5.2548C45.082 5.17466 45.0429 5.10093 44.9858 5.04228C44.9287 4.98363 44.856 4.94251 44.7764 4.92375C39.4658 3.62492 27.1982 8.25285 20.5449 14.9013C19.3592 16.0774 18.278 17.3543 17.3135 18.7177C15.2627 18.5322 13.2119 18.6884 11.4658 19.4501C6.53514 21.6181 5.10057 27.2802 4.70018 29.7109C4.67849 29.844 4.68776 29.9804 4.72726 30.1095C4.76677 30.2385 4.83546 30.3567 4.928 30.4549C5.02054 30.5531 5.13446 30.6287 5.26091 30.6758C5.38737 30.7229 5.52297 30.7402 5.65721 30.7265L13.5742 29.8573C13.5796 30.4545 13.6155 31.051 13.6816 31.6445C13.7229 32.0547 13.906 32.4376 14.1992 32.7275L17.2646 35.7929C17.5547 36.0863 17.9381 36.2694 18.3486 36.3105C18.9386 36.3763 19.5314 36.4121 20.125 36.4179L19.2568 44.3281C19.2433 44.4621 19.2607 44.5975 19.3078 44.7238C19.355 44.85 19.4305 44.9637 19.5285 45.0561C19.6266 45.1485 19.7446 45.2172 19.8734 45.2567C20.0023 45.2962 20.1384 45.3056 20.2715 45.2841C22.7031 44.8935 28.3769 43.4589 30.5322 38.5292C31.2939 36.7812 31.4502 34.7411 31.2744 32.7001C32.6418 31.7365 33.9224 30.6553 35.1016 29.4687C41.7793 22.8281 46.3779 10.83 45.0986 5.2548ZM29.166 20.8661C28.5827 20.283 28.1855 19.54 28.0245 18.7311C27.8635 17.9222 27.9461 17.0837 28.2617 16.3217C28.5772 15.5597 29.1117 14.9084 29.7975 14.4501C30.4832 13.9919 31.2895 13.7473 32.1142 13.7473C32.939 13.7473 33.7453 13.9919 34.431 14.4501C35.1168 14.9084 35.6513 15.5597 35.9668 16.3217C36.2824 17.0837 36.365 17.9222 36.204 18.7311C36.043 19.54 35.6458 20.283 35.0625 20.8661C34.6756 21.2538 34.2161 21.5614 33.7102 21.7713C33.2043 21.9811 32.662 22.0892 32.1142 22.0892C31.5665 22.0892 31.0242 21.9811 30.5183 21.7713C30.0124 21.5614 29.5529 21.2538 29.166 20.8661Z" stroke="#FF5C5C" stroke-width="3" stroke-linecap="round" stroke-linejoin="round"/>
<path d="M10.707 34.375C9.73351 34.4945 8.82782 34.9358 8.13379 35.6289C6.41309 37.3555 6.25 43.75 6.25 43.75C6.25 43.75 12.6484 43.5869 14.3701 41.8643C15.066 41.1713 15.5081 40.2641 15.625 39.2891" stroke="#FF5C5C" stroke-width="3" stroke-linecap="round" stroke-linejoin="round"/>
</svg>
