<svg width="50" height="50" viewBox="0 0 50 50" fill="none" xmlns="http://www.w3.org/2000/svg">
<path fill-rule="evenodd" clip-rule="evenodd" d="M25 5.72925C14.3604 5.72925 5.72919 14.3772 5.72919 25.0542C5.72919 34.9751 13.1854 43.148 22.7771 44.2522C23.7396 44.3626 24.7709 43.9605 25.5959 43.1334C25.9584 42.7702 26.1621 42.2779 26.1621 41.7647C26.1621 41.2514 25.9584 40.7592 25.5959 40.3959C24.9459 39.7459 24.2938 38.8751 23.9375 37.8897C23.5729 36.8792 23.4813 35.6105 24.2229 34.4313C24.8959 33.3626 25.9042 32.7897 26.9625 32.5105C27.9834 32.2438 29.1104 32.2272 30.1959 32.2938C31.3374 32.3773 32.4757 32.5017 33.6084 32.6667C34.7688 32.8167 35.9 32.9563 36.9958 33.0084C39.2334 33.1147 40.9584 32.8334 42.1354 31.8709C43.2646 30.948 44.2709 29.0772 44.2709 25.0542C44.2709 14.3772 35.6396 5.72925 25 5.72925ZM2.60419 25.0542C2.60419 12.6584 12.6271 2.60425 25 2.60425C37.3729 2.60425 47.3959 12.6584 47.3959 25.0542C47.3959 29.523 46.2771 32.5209 44.1146 34.2897C42.0021 36.0167 39.2688 36.2459 36.8459 36.1292C35.5478 36.0524 34.2535 35.9203 32.9667 35.7334C31.8834 35.5938 30.9042 35.4667 30.0084 35.4126C29.0354 35.3542 28.2979 35.3917 27.7584 35.5334C27.2584 35.6647 27.0167 35.8605 26.8688 36.0959C26.7875 36.2251 26.7313 36.4251 26.8771 36.8272C27.0313 37.2563 27.3688 37.748 27.8084 38.1897C28.7549 39.1387 29.2864 40.4243 29.2864 41.7647C29.2864 43.105 28.7549 44.3906 27.8084 45.3397C26.4542 46.698 24.5167 47.598 22.4188 47.3563C11.2625 46.073 2.60419 36.5751 2.60419 25.0542ZM19.9688 13.0209C19.5544 13.0209 19.1569 13.1855 18.8639 13.4786C18.5709 13.7716 18.4063 14.169 18.4063 14.5834C18.4063 14.9978 18.5709 15.3952 18.8639 15.6883C19.1569 15.9813 19.5544 16.1459 19.9688 16.1459C20.3832 16.1459 20.7806 15.9813 21.0736 15.6883C21.3666 15.3952 21.5313 14.9978 21.5313 14.5834C21.5313 14.169 21.3666 13.7716 21.0736 13.4786C20.7806 13.1855 20.3832 13.0209 19.9688 13.0209ZM15.2813 14.5834C15.2813 13.3402 15.7751 12.1479 16.6542 11.2689C17.5333 10.3898 18.7256 9.89591 19.9688 9.89591C21.212 9.89591 22.4043 10.3898 23.2833 11.2689C24.1624 12.1479 24.6563 13.3402 24.6563 14.5834C24.6563 15.8266 24.1624 17.0189 23.2833 17.898C22.4043 18.7771 21.212 19.2709 19.9688 19.2709C18.7256 19.2709 17.5333 18.7771 16.6542 17.898C15.7751 17.0189 15.2813 15.8266 15.2813 14.5834ZM30.2084 13.0209C29.794 13.0209 29.3965 13.1855 29.1035 13.4786C28.8105 13.7716 28.6459 14.169 28.6459 14.5834C28.6459 14.9978 28.8105 15.3952 29.1035 15.6883C29.3965 15.9813 29.794 16.1459 30.2084 16.1459C30.6228 16.1459 31.0202 15.9813 31.3132 15.6883C31.6062 15.3952 31.7709 14.9978 31.7709 14.5834C31.7709 14.169 31.6062 13.7716 31.3132 13.4786C31.0202 13.1855 30.6228 13.0209 30.2084 13.0209ZM25.5209 14.5834C25.5209 13.3402 26.0147 12.1479 26.8938 11.2689C27.7729 10.3898 28.9652 9.89591 30.2084 9.89591C31.4516 9.89591 32.6438 10.3898 33.5229 11.2689C34.402 12.1479 34.8959 13.3402 34.8959 14.5834C34.8959 15.8266 34.402 17.0189 33.5229 17.898C32.6438 18.7771 31.4516 19.2709 30.2084 19.2709C28.9652 19.2709 27.7729 18.7771 26.8938 17.898C26.0147 17.0189 25.5209 15.8266 25.5209 14.5834ZM13.5417 22.3959C13.1273 22.3959 12.7299 22.5605 12.4368 22.8536C12.1438 23.1466 11.9792 23.544 11.9792 23.9584C11.9792 24.3728 12.1438 24.7702 12.4368 25.0633C12.7299 25.3563 13.1273 25.5209 13.5417 25.5209C13.9561 25.5209 14.3535 25.3563 14.6465 25.0633C14.9396 24.7702 15.1042 24.3728 15.1042 23.9584C15.1042 23.544 14.9396 23.1466 14.6465 22.8536C14.3535 22.5605 13.9561 22.3959 13.5417 22.3959ZM8.85419 23.9584C8.85419 22.7152 9.34805 21.5229 10.2271 20.6439C11.1062 19.7648 12.2985 19.2709 13.5417 19.2709C14.7849 19.2709 15.9772 19.7648 16.8562 20.6439C17.7353 21.5229 18.2292 22.7152 18.2292 23.9584C18.2292 25.2016 17.7353 26.3939 16.8562 27.273C15.9772 28.1521 14.7849 28.6459 13.5417 28.6459C12.2985 28.6459 11.1062 28.1521 10.2271 27.273C9.34805 26.3939 8.85419 25.2016 8.85419 23.9584ZM36.4584 22.3959C36.044 22.3959 35.6465 22.5605 35.3535 22.8536C35.0605 23.1466 34.8959 23.544 34.8959 23.9584C34.8959 24.3728 35.0605 24.7702 35.3535 25.0633C35.6465 25.3563 36.044 25.5209 36.4584 25.5209C36.8728 25.5209 37.2702 25.3563 37.5632 25.0633C37.8562 24.7702 38.0209 24.3728 38.0209 23.9584C38.0209 23.544 37.8562 23.1466 37.5632 22.8536C37.2702 22.5605 36.8728 22.3959 36.4584 22.3959ZM31.7709 23.9584C31.7709 23.3428 31.8921 22.7333 32.1277 22.1646C32.3632 21.5959 32.7085 21.0791 33.1438 20.6439C33.5791 20.2086 34.0958 19.8633 34.6645 19.6277C35.2332 19.3922 35.8428 19.2709 36.4584 19.2709C37.0739 19.2709 37.6835 19.3922 38.2522 19.6277C38.8209 19.8633 39.3376 20.2086 39.7729 20.6439C40.2082 21.0791 40.5535 21.5959 40.789 22.1646C41.0246 22.7333 41.1459 23.3428 41.1459 23.9584C41.1459 25.2016 40.652 26.3939 39.7729 27.273C38.8938 28.1521 37.7016 28.6459 36.4584 28.6459C35.2151 28.6459 34.0229 28.1521 33.1438 27.273C32.2647 26.3939 31.7709 25.2016 31.7709 23.9584Z" fill="#FF5C5C"/>
</svg>
