<svg width="50" height="50" viewBox="0 0 50 50" fill="none" xmlns="http://www.w3.org/2000/svg">
<path d="M16.6667 33.3334L20.8334 20.8334L33.3334 16.6667L29.1667 29.1667L16.6667 33.3334Z" stroke="#FF5C5C" stroke-width="3" stroke-linecap="round" stroke-linejoin="round"/>
<path d="M6.25 25C6.25 27.4623 6.73498 29.9005 7.67726 32.1753C8.61953 34.4502 10.0006 36.5172 11.7417 38.2582C13.4828 39.9993 15.5498 41.3805 17.8247 42.3227C20.0995 43.265 22.5377 43.75 25 43.75M6.25 25C6.25 22.5377 6.73498 20.0995 7.67726 17.8247C8.61953 15.5498 10.0006 13.4828 11.7417 11.7417C13.4828 10.0006 15.5498 8.61953 17.8247 7.67726C20.0995 6.73498 22.5377 6.25 25 6.25M6.25 25H10.4167M25 43.75C27.4623 43.75 29.9005 43.265 32.1753 42.3227C34.4502 41.3805 36.5172 39.9993 38.2582 38.2582C39.9993 36.5172 41.3805 34.4502 42.3227 32.1753C43.265 29.9005 43.75 27.4623 43.75 25M25 43.75V39.5833M43.75 25C43.75 22.5377 43.265 20.0995 42.3227 17.8247C41.3805 15.5498 39.9993 13.4828 38.2582 11.7417C36.5172 10.0006 34.4502 8.61953 32.1753 7.67726C29.9005 6.73498 27.4623 6.25 25 6.25M43.75 25H39.5833M25 6.25V10.4167" stroke="#FF5C5C" stroke-width="3" stroke-linecap="round" stroke-linejoin="round"/>
</svg>
