<svg width="50" height="50" viewBox="0 0 50 50" fill="none" xmlns="http://www.w3.org/2000/svg">
<path d="M12.5 12.5001C12.5 11.395 12.939 10.3352 13.7204 9.5538C14.5018 8.7724 15.5616 8.33341 16.6667 8.33341C17.2192 8.33341 17.7491 8.11392 18.1398 7.72322C18.5305 7.33252 18.75 6.80262 18.75 6.25008C18.75 5.69755 18.5305 5.16764 18.1398 4.77694C17.7491 4.38624 17.2192 4.16675 16.6667 4.16675C14.4566 4.16675 12.337 5.04472 10.7741 6.60752C9.21135 8.17033 8.33337 10.2899 8.33337 12.5001V18.7501C8.33337 19.8551 7.89439 20.915 7.11299 21.6964C6.33158 22.4778 5.27178 22.9167 4.16671 22.9167C3.61417 22.9167 3.08427 23.1362 2.69357 23.5269C2.30287 23.9176 2.08337 24.4475 2.08337 25.0001C2.08337 25.5526 2.30287 26.0825 2.69357 26.4732C3.08427 26.8639 3.61417 27.0834 4.16671 27.0834C5.27178 27.0834 6.33158 27.5224 7.11299 28.3038C7.89439 29.0852 8.33337 30.145 8.33337 31.2501V37.5001C8.33337 39.7102 9.21135 41.8298 10.7741 43.3926C12.337 44.9554 14.4566 45.8334 16.6667 45.8334C17.2192 45.8334 17.7491 45.6139 18.1398 45.2232C18.5305 44.8325 18.75 44.3026 18.75 43.7501C18.75 43.1975 18.5305 42.6676 18.1398 42.2769C17.7491 41.8862 17.2192 41.6667 16.6667 41.6667C15.5616 41.6667 14.5018 41.2278 13.7204 40.4464C12.939 39.665 12.5 38.6051 12.5 37.5001V31.2501C12.4933 30.0637 12.2334 28.8924 11.7376 27.8146C11.2418 26.7367 10.5215 25.7772 9.62504 25.0001C10.5215 24.223 11.2418 23.2634 11.7376 22.1856C12.2334 21.1078 12.4933 19.9365 12.5 18.7501V12.5001ZM45.8334 22.9167C44.7283 22.9167 43.6685 22.4778 42.8871 21.6964C42.1057 20.915 41.6667 19.8551 41.6667 18.7501V12.5001C41.6667 10.2899 40.7887 8.17033 39.2259 6.60752C37.6631 5.04472 35.5435 4.16675 33.3334 4.16675C32.7808 4.16675 32.2509 4.38624 31.8602 4.77694C31.4695 5.16764 31.25 5.69755 31.25 6.25008C31.25 6.80262 31.4695 7.33252 31.8602 7.72322C32.2509 8.11392 32.7808 8.33341 33.3334 8.33341C34.4384 8.33341 35.4982 8.7724 36.2797 9.5538C37.0611 10.3352 37.5 11.395 37.5 12.5001V18.7501C37.5067 19.9365 37.7667 21.1078 38.2625 22.1856C38.7583 23.2634 39.4785 24.223 40.375 25.0001C39.4785 25.7772 38.7583 26.7367 38.2625 27.8146C37.7667 28.8924 37.5067 30.0637 37.5 31.2501V37.5001C37.5 38.6051 37.0611 39.665 36.2797 40.4464C35.4982 41.2278 34.4384 41.6667 33.3334 41.6667C32.7808 41.6667 32.2509 41.8862 31.8602 42.2769C31.4695 42.6676 31.25 43.1975 31.25 43.7501C31.25 44.3026 31.4695 44.8325 31.8602 45.2232C32.2509 45.6139 32.7808 45.8334 33.3334 45.8334C35.5435 45.8334 37.6631 44.9554 39.2259 43.3926C40.7887 41.8298 41.6667 39.7102 41.6667 37.5001V31.2501C41.6667 30.145 42.1057 29.0852 42.8871 28.3038C43.6685 27.5224 44.7283 27.0834 45.8334 27.0834C46.3859 27.0834 46.9158 26.8639 47.3065 26.4732C47.6972 26.0825 47.9167 25.5526 47.9167 25.0001C47.9167 24.4475 47.6972 23.9176 47.3065 23.5269C46.9158 23.1362 46.3859 22.9167 45.8334 22.9167Z" fill="#FF5C5C"/>
</svg>
