<svg width="90" height="90" viewBox="0 0 90 90" fill="none" xmlns="http://www.w3.org/2000/svg">
<g clip-path="url(#clip0_436_61)">
<path d="M11.25 11.25C11.25 9.26088 12.0402 7.35322 13.4467 5.9467C14.8532 4.54018 16.7609 3.75 18.75 3.75H56.1825C58.1715 3.75042 60.0788 4.54088 61.485 5.9475L76.5525 21.015C77.9591 22.4212 78.7496 24.3285 78.75 26.3175V78.75C78.75 80.7391 77.9598 82.6468 76.5533 84.0533C75.1468 85.4598 73.2391 86.25 71.25 86.25H17.8125C17.0666 86.25 16.3512 85.9537 15.8238 85.4262C15.2963 84.8988 15 84.1834 15 83.4375C15 82.6916 15.2963 81.9762 15.8238 81.4488C16.3512 80.9213 17.0666 80.625 17.8125 80.625H71.25C71.7473 80.625 72.2242 80.4275 72.5758 80.0758C72.9275 79.7242 73.125 79.2473 73.125 78.75V31.875H58.125C56.1359 31.875 54.2282 31.0848 52.8217 29.6783C51.4152 28.2718 50.625 26.3641 50.625 24.375V9.375H18.75C18.2527 9.375 17.7758 9.57254 17.4242 9.92418C17.0725 10.2758 16.875 10.7527 16.875 11.25V34.6875C16.875 35.4334 16.5787 36.1488 16.0512 36.6762C15.5238 37.2037 14.8084 37.5 14.0625 37.5C13.3166 37.5 12.6012 37.2037 12.0738 36.6762C11.5463 36.1488 11.25 35.4334 11.25 34.6875V11.25ZM56.25 9.375V24.375C56.25 24.8723 56.4475 25.3492 56.7992 25.7008C57.1508 26.0525 57.6277 26.25 58.125 26.25H73.125C73.1085 25.7759 72.9128 25.3256 72.5775 24.99L57.51 9.9225C57.1744 9.58716 56.7241 9.39152 56.25 9.375Z" fill="#2E353B" fill-opacity="0.12"/>
<path d="M16.9875 45.9C17.2389 46.1706 17.4346 46.4881 17.5633 46.8343C17.692 47.1805 17.7513 47.5487 17.7377 47.9178C17.7241 48.2869 17.638 48.6497 17.4841 48.9855C17.3303 49.3214 17.1119 49.6236 16.8413 49.875L6.945 59.0625L16.845 68.25C17.1159 68.5016 17.3345 68.8042 17.4884 69.1403C17.6424 69.4764 17.7286 69.8396 17.7422 70.2091C17.7557 70.5785 17.6964 70.9471 17.5676 71.2936C17.4387 71.6401 17.2429 71.9579 16.9913 72.2287C16.7396 72.4996 16.4371 72.7182 16.1009 72.8722C15.7648 73.0261 15.4016 73.1123 15.0322 73.1259C14.286 73.1533 13.5595 72.8832 13.0125 72.375L0.900001 61.125C0.616019 60.8617 0.389466 60.5426 0.234535 60.1877C0.0796043 59.8328 -0.000366211 59.4497 -0.000366211 59.0625C-0.000366211 58.6752 0.0796043 58.2922 0.234535 57.9373C0.389466 57.5824 0.616019 57.2633 0.900001 57L13.0125 45.75C13.2833 45.4988 13.601 45.3034 13.9473 45.175C14.2937 45.0466 14.662 44.9877 15.0311 45.0016C15.4002 45.0156 15.763 45.1021 16.0986 45.2562C16.4343 45.4103 16.7364 45.6291 16.9875 45.9ZM31.9088 49.875C31.6379 49.6238 31.4192 49.3218 31.265 48.9861C31.1109 48.6504 31.0244 48.2877 31.0105 47.9186C30.9824 47.1731 31.2515 46.447 31.7588 45.9C32.266 45.353 32.9697 45.0299 33.7152 45.0017C34.4606 44.9736 35.1867 45.2428 35.7338 45.75L47.85 57C48.134 57.2633 48.3605 57.5824 48.5155 57.9373C48.6704 58.2922 48.7504 58.6752 48.7504 59.0625C48.7504 59.4497 48.6704 59.8328 48.5155 60.1877C48.3605 60.5426 48.134 60.8617 47.85 61.125L35.7375 72.375C35.1905 72.8827 34.4642 73.1523 33.7184 73.1246C32.9726 73.0968 32.2683 72.7739 31.7606 72.2269C31.2529 71.6799 30.9833 70.9536 31.0111 70.2077C31.0388 69.4619 31.3617 68.7577 31.9088 68.25L41.805 59.0625L31.9088 49.875Z" fill="#2E353B" fill-opacity="0.12"/>
</g>
<defs>
<clipPath id="clip0_436_61">
<rect width="90" height="90" fill="white"/>
</clipPath>
</defs>
</svg>
