<svg width="81" height="80" viewBox="0 0 81 80" fill="none" xmlns="http://www.w3.org/2000/svg">
<path d="M77.5 40C77.5 19.2888 60.7112 2.5 40 2.5C19.2888 2.5 2.5 19.2888 2.5 40C2.5 60.7112 19.2888 77.5 40 77.5" stroke="#DFE0E0" stroke-width="5" stroke-linecap="round" stroke-linejoin="round"/>
<path d="M43.75 2.6875C43.75 2.6875 55 17.5 55 40M36.25 77.3125C36.25 77.3125 25 62.5 25 40C25 17.5 36.25 2.6875 36.25 2.6875M4.86255 53.125H40M4.86255 26.875H75.1376" stroke="#DFE0E0" stroke-width="5" stroke-linecap="round" stroke-linejoin="round"/>
<path d="M77.0463 62.1888C78.8988 63.3288 78.7825 66.1 76.8775 66.3175L67.2513 67.4088L62.935 76.0788C62.08 77.8 59.4363 76.9563 58.9975 74.8263L54.2913 51.8913C53.92 50.0913 55.54 48.9588 57.1038 49.9225L77.0463 62.1888Z" stroke="#DFE0E0" stroke-width="5"/>
</svg>
