<svg width="90" height="90" viewBox="0 0 90 90" fill="none" xmlns="http://www.w3.org/2000/svg">
<path d="M23.32 70.3428C24.5371 70.3428 25.557 69.9296 26.3796 69.1033C27.1985 68.2807 27.608 67.2589 27.608 66.038C27.608 64.8171 27.1948 63.7973 26.3685 62.9784C25.5421 62.1595 24.5204 61.75 23.3032 61.75C22.086 61.75 21.0662 62.1632 20.2435 62.9895C19.4209 63.8159 19.0115 64.8376 19.0152 66.0548C19.0189 67.2719 19.4321 68.29 20.2547 69.1089C21.0773 69.9278 22.0991 70.3428 23.32 70.3428ZM23.32 49.2936C24.5371 49.2936 25.557 48.8823 26.3796 48.0597C27.1985 47.2334 27.608 46.2098 27.608 44.9889C27.608 43.768 27.1948 42.75 26.3685 41.9348C25.5421 41.1196 24.5204 40.7102 23.3032 40.7065C22.086 40.7027 21.0662 41.114 20.2435 41.9404C19.4209 42.7667 19.0115 43.7903 19.0152 45.0112C19.0189 46.2321 19.4321 47.2501 20.2547 48.0653C21.0773 48.8805 22.0991 49.2899 23.32 49.2936ZM23.32 28.25C24.5371 28.25 25.557 27.8387 26.3796 27.0161C27.1985 26.1898 27.608 25.1662 27.608 23.9453C27.608 22.7244 27.1948 21.7064 26.3685 20.8912C25.5421 20.076 24.5204 19.6666 23.3032 19.6629C22.086 19.6591 21.0662 20.0705 20.2435 20.8968C19.4247 21.7231 19.0152 22.7449 19.0152 23.962C19.0152 25.1792 19.4284 26.1991 20.2547 27.0217C21.081 27.8443 22.1028 28.2538 23.32 28.25ZM40.4887 68.8409H70.555V63.2575H40.4887V68.8409ZM40.4887 47.7917H70.555V42.2084H40.4887V47.7917ZM40.4887 26.7425H70.555V21.1592H40.4887V26.7425ZM9.35604 89.6667C6.78399 89.6667 4.63812 88.8069 2.91846 87.0872C1.19879 85.3675 0.337096 83.2198 0.333374 80.644V9.35604C0.333374 6.78399 1.19507 4.63812 2.91846 2.91846C4.64185 1.19879 6.78771 0.337096 9.35604 0.333374H80.6496C83.218 0.333374 85.3638 1.19507 87.0872 2.91846C88.8106 4.64185 89.6704 6.78771 89.6667 9.35604V80.6496C89.6667 83.218 88.8069 85.3638 87.0872 87.0872C85.3675 88.8106 83.2198 89.6704 80.644 89.6667H9.35604ZM9.35604 84.0834H80.6496C81.5057 84.0834 82.293 83.726 83.0114 83.0114C83.7298 82.2967 84.0871 81.5076 84.0834 80.644V9.35604C84.0834 8.49621 83.726 7.7071 83.0114 6.98871C82.2967 6.27032 81.5076 5.91298 80.644 5.91671H9.35604C8.49621 5.91671 7.7071 6.27404 6.98871 6.98871C6.27032 7.70337 5.91298 8.49249 5.91671 9.35604V80.6496C5.91671 81.5057 6.27404 82.293 6.98871 83.0114C7.70337 83.7298 8.49062 84.0871 9.35046 84.0834" fill="#2E353B" fill-opacity="0.12"/>
</svg>
