<svg width="110" height="110" viewBox="0 0 110 110" fill="none" xmlns="http://www.w3.org/2000/svg">
<path d="M27.504 10.8036C27.5039 10.2639 27.3556 9.73455 27.0752 9.27336C26.7948 8.81217 26.3932 8.43685 25.914 8.18837C25.4349 7.93989 24.8967 7.82778 24.3582 7.86429C23.8197 7.90081 23.3016 8.08453 22.8604 8.39542C16.4057 12.9408 12.5793 16.9086 10.4107 20.7429C8.19111 24.6715 7.86111 28.1954 7.86111 31.4286C7.86111 35.8679 9.96289 39.8122 13.2236 42.3265C11.8207 43.6434 10.7099 45.2401 9.96289 47.0133C8.18325 51.0793 7.85718 56.0608 7.85718 60.0561C7.85718 66.5893 8.89825 76.5954 10.8036 85.0065C11.7543 89.1983 12.9565 93.1701 14.4375 96.1636C15.1761 97.6526 16.06 99.0551 17.1404 100.124C18.2286 101.204 19.7332 102.143 21.619 102.143C23.5047 102.143 25.0054 101.204 26.0975 100.124C27.174 99.0551 28.0579 97.6486 28.7925 96.1597C30.2736 93.1701 31.4718 89.1983 32.4186 85.0026C34.32 76.5954 35.3572 66.5893 35.3572 60.0561C35.3572 56.0608 35.039 51.0833 33.2633 47.0133C32.5167 45.2387 31.4058 43.6406 30.0025 42.3226C31.67 41.038 33.0202 39.3878 33.9493 37.499C34.8783 35.6103 35.3613 33.5335 35.3611 31.4286C35.3611 27.0051 33.1925 23.9368 31.4522 21.4736L30.91 20.6997C29.0872 18.0676 27.504 15.4001 27.504 10.8036ZM21.509 45.1786H21.7211C23.485 45.1983 24.6872 45.6579 25.5672 46.2943C26.4917 46.957 27.2565 47.9836 27.8615 49.3743C29.1186 52.254 29.4643 56.1865 29.4643 60.0601C29.4643 66.1376 28.4822 75.7036 26.675 83.7101C25.7636 87.7251 24.6872 91.1743 23.5125 93.5472C22.9233 94.7415 22.3811 95.5115 21.945 95.9397C21.8466 96.0429 21.7373 96.1351 21.619 96.2147C21.4992 96.1354 21.3886 96.0432 21.289 95.9397C20.8529 95.5076 20.3107 94.7415 19.7175 93.5433C18.539 91.1704 17.4625 87.7211 16.5511 83.7061C14.74 75.7036 13.75 66.1376 13.75 60.0561C13.75 56.1904 14.0997 52.2579 15.3607 49.3783C15.9684 47.9902 16.7357 46.9635 17.6629 46.2983C18.5429 45.6579 19.749 45.1983 21.509 45.1786ZM21.7172 39.2858H21.5129C19.4454 39.261 17.4711 38.4222 16.0179 36.9514C14.5647 35.4806 13.7499 33.4962 13.75 31.4286C13.75 28.6943 14.0211 26.3254 15.5375 23.6461C16.7161 21.5561 18.7354 19.1361 22.2554 16.2368C23.1 19.5604 24.6361 21.9922 26.0582 24.0547L26.5297 24.7265C28.38 27.3901 29.4643 28.9536 29.4643 31.4286C29.4645 33.4942 28.6513 35.4768 27.2006 36.9473C25.75 38.4178 23.7826 39.2579 21.7172 39.2858ZM49.1072 17.6786C44.3536 17.6786 39.93 19.0851 36.2254 21.5051C35.6675 20.6093 35.1136 19.8393 34.65 19.1872L34.1393 18.4643C33.7153 17.8638 33.3156 17.2465 32.9411 16.614C37.2454 13.7896 42.2146 12.1422 47.3537 11.8361C52.4929 11.53 57.6225 12.5757 62.2317 14.8692C66.8408 17.1626 70.7686 20.6237 73.6238 24.9077C76.4789 29.1917 78.1618 34.149 78.5047 39.2858H87.4108C91.3173 39.2858 95.0639 40.8374 97.8266 43.5993C100.589 46.3613 102.142 50.1075 102.143 54.014V79.5497C102.143 81.4847 101.763 83.4008 101.023 85.1887C100.282 86.9765 99.1974 88.601 97.8293 89.9694C96.4613 91.3379 94.837 92.4234 93.0494 93.164C91.2618 93.9046 89.3457 94.2858 87.4108 94.2858H61.875C57.9678 94.2858 54.2206 92.7337 51.4578 89.9708C48.695 87.208 47.1429 83.4608 47.1429 79.5536V70.6515C44.3075 70.4639 41.5142 69.8671 38.8497 68.8797C39.0461 66.6797 39.1758 64.5819 39.2425 62.6647C41.6782 63.7883 44.3418 64.5111 47.1429 64.7429V54.0179C47.1429 50.1107 48.695 46.3635 51.4578 43.6007C54.2206 40.8379 57.9678 39.2858 61.875 39.2858H72.6C72.1074 33.3943 69.4187 27.903 65.0673 23.9008C60.7158 19.8986 55.0193 17.6778 49.1072 17.6786ZM78.3122 45.1786C77.4492 51.5787 74.5086 57.5184 69.9421 62.0849C65.3755 66.6515 59.4359 69.5921 53.0358 70.4551V79.5536C53.0358 81.898 53.967 84.1463 55.6247 85.804C57.2824 87.4616 59.5307 88.3929 61.875 88.3929H87.4108C89.7551 88.3929 92.0034 87.4616 93.6611 85.804C95.3188 84.1463 96.25 81.898 96.25 79.5536V54.0179C96.25 51.6736 95.3188 49.4253 93.6611 47.7676C92.0034 46.1099 89.7551 45.1786 87.4108 45.1786H78.3122ZM72.3525 45.1786H61.875C59.5307 45.1786 57.2824 46.1099 55.6247 47.7676C53.967 49.4253 53.0358 51.6736 53.0358 54.0179V64.4954C57.8616 63.6774 62.3136 61.3786 65.7746 57.9175C69.2357 54.4564 71.5345 50.0045 72.3525 45.1786Z" fill="#2E353B" fill-opacity="0.12"/>
</svg>
