<svg width="110" height="110" viewBox="0 0 110 110" fill="none" xmlns="http://www.w3.org/2000/svg">
<path d="M108.5 46.75L97.539 24.8144C97.1861 24.1077 96.6974 23.4773 96.1008 22.9595C95.5043 22.4416 94.8116 22.0462 94.0623 21.7961C93.3129 21.5459 92.5217 21.4458 91.7337 21.5014C90.9456 21.557 90.1763 21.7673 89.4695 22.1203L78.4867 27.6117L55.6574 21.5703C55.2262 21.4585 54.7737 21.4585 54.3426 21.5703L31.5133 27.6117L20.5348 22.1203C19.8278 21.7666 19.0581 21.5558 18.2696 21.4998C17.4811 21.4439 16.6893 21.5438 15.9395 21.7941C15.1897 22.0443 14.4965 22.4398 13.8996 22.958C13.3027 23.4763 12.8139 24.1071 12.4609 24.8144L1.4996 46.75C0.786465 48.1768 0.669217 49.8284 1.17364 51.3417C1.67806 52.8549 2.76284 54.1059 4.18944 54.8195L15.8555 60.6546L39.7504 77.7218C40.0094 77.9085 40.3008 78.0455 40.6098 78.1257L68.1097 85.0007C68.3191 85.0532 68.5342 85.0792 68.75 85.0781C69.4335 85.0775 70.0888 84.8055 70.5719 84.3218L94.3379 60.5558L105.811 54.8195C107.237 54.1059 108.322 52.8549 108.826 51.3417C109.331 49.8284 109.214 48.1768 108.5 46.75ZM85.7269 61.8578L70.3441 49.5343C69.848 49.1373 69.2228 48.9374 68.5884 48.9731C67.954 49.0088 67.3551 49.2775 66.9066 49.7277C58.893 57.8015 49.934 56.7832 44.2234 53.1308C44.1112 53.0616 44.0163 52.9674 43.9463 52.8557C43.8762 52.7439 43.8329 52.6175 43.8195 52.4863C43.8043 52.366 43.816 52.2438 43.854 52.1285C43.8919 52.0133 43.955 51.908 44.0387 51.8203L62.9191 33.5156H77.4683L89.6758 57.9304L85.7269 61.8578ZM6.06288 49.7105C5.99182 49.4951 6.00881 49.2603 6.11014 49.0574L17.0758 27.1175C17.1478 26.9745 17.2584 26.8545 17.3951 26.7709C17.5318 26.6874 17.689 26.6438 17.8492 26.6449C17.9819 26.645 18.1128 26.6759 18.2316 26.7351L27.775 31.5046L16.0359 55L6.49256 50.2304C6.38958 50.1772 6.29842 50.1037 6.22458 50.0144C6.15074 49.925 6.09573 49.8217 6.06288 49.7105ZM67.9594 79.6468L42.35 73.2445L20.4789 57.621L33.0172 32.5488L55 26.7308L61.3594 28.4152C60.873 28.5093 60.4248 28.7438 60.0703 29.0898L40.4336 48.1464C39.796 48.7836 39.3098 49.556 39.0108 50.4063C38.7119 51.2567 38.6078 52.1634 38.7064 53.0594C38.805 53.9554 39.1037 54.8178 39.5804 55.5828C40.0571 56.3478 40.6997 56.9959 41.4605 57.4792C50.1488 63.0308 60.689 61.9867 68.8746 54.9484L82.0703 65.5273L67.9594 79.6468ZM103.937 49.7105C103.902 49.8177 103.846 49.917 103.772 50.0025C103.698 50.088 103.608 50.1582 103.507 50.2089L93.9641 55L82.225 31.5046L91.7683 26.7351C91.8694 26.6844 91.9795 26.6541 92.0923 26.6459C92.2052 26.6378 92.3185 26.6521 92.4258 26.6878C92.533 26.7232 92.6322 26.7794 92.7177 26.8531C92.8033 26.9268 92.8734 27.0167 92.9242 27.1175L103.89 49.0574C103.991 49.2603 104.008 49.4951 103.937 49.7105ZM55.8121 93.4355C55.6466 94.0986 55.2247 94.6689 54.6389 95.021C54.0531 95.3731 53.3515 95.4782 52.6883 95.3132L34.7574 90.8316C34.4481 90.7523 34.1565 90.6152 33.898 90.4277L22.5672 82.3453C22.0105 81.9464 21.635 81.3427 21.5234 80.6671C21.4118 79.9914 21.5732 79.299 21.9721 78.7423C22.3709 78.1856 22.9746 77.8102 23.6503 77.6986C24.3259 77.587 25.0183 77.7484 25.575 78.1472L36.4848 85.9375L53.9344 90.2988C54.2637 90.3811 54.5735 90.5276 54.8461 90.73C55.1187 90.9324 55.3486 91.1866 55.5226 91.478C55.6967 91.7694 55.8115 92.0924 55.8604 92.4283C55.9094 92.7642 55.8915 93.1065 55.8078 93.4355H55.8121Z" fill="#2E353B" fill-opacity="0.12"/>
</svg>
