<svg width="1575" height="377" viewBox="0 0 1575 377" fill="none" xmlns="http://www.w3.org/2000/svg">
<path d="M187.915 0.00119603C188.643 0.000603992 188.643 0.000603992 189.385 0C217.215 0.0356525 244.726 6.16563 269.807 18.2808C270.363 18.5474 270.919 18.814 271.491 19.0888C286.423 26.3351 300.6 35.5054 312.815 46.7877C314.021 47.8914 315.245 48.9637 316.482 50.0324C318.942 52.1799 321.279 54.4311 323.586 56.7409C323.995 57.1506 324.404 57.5602 324.826 57.9822C327.511 60.6993 330.007 63.4672 332.365 66.4748C333.645 68.1003 334.992 69.6534 336.345 71.2184C363.155 103.423 376.968 146.343 376.999 187.915C376.999 188.643 376.999 188.643 377 189.385C376.964 217.215 370.834 244.726 358.719 269.808C358.453 270.363 358.186 270.919 357.911 271.491C350.665 286.423 341.495 300.6 330.212 312.815C329.109 314.021 328.036 315.245 326.968 316.482C324.82 318.942 322.569 321.279 320.259 323.586C319.849 323.995 319.44 324.404 319.018 324.826C316.301 327.511 313.533 330.007 310.525 332.365C308.9 333.645 307.347 334.992 305.782 336.345C273.577 363.155 230.657 376.968 189.085 376.999C188.357 376.999 188.357 376.999 187.615 377C159.785 376.964 132.274 370.834 107.193 358.719C106.637 358.453 106.081 358.186 105.509 357.911C90.5775 350.665 76.4004 341.495 64.1853 330.212C62.9788 329.109 61.7552 328.036 60.518 326.968C58.0582 324.82 55.7211 322.569 53.4141 320.259C53.0049 319.849 52.5958 319.44 52.1742 319.018C49.4889 316.301 46.9933 313.533 44.6353 310.525C43.3554 308.9 42.008 307.347 40.6549 305.782C13.8454 273.577 0.0319059 230.657 0.00119603 189.085C0.00060399 188.357 0.000603992 188.357 0 187.615C0.0356525 159.785 6.16563 132.274 18.2808 107.193C18.5474 106.637 18.814 106.081 19.0888 105.509C26.3351 90.5775 35.5054 76.4004 46.7877 64.1853C47.8914 62.9789 48.9637 61.7552 50.0323 60.518C52.1799 58.0582 54.4311 55.7211 56.7409 53.4141C57.1506 53.0049 57.5602 52.5958 57.9822 52.1742C60.6993 49.4889 63.4672 46.9933 66.4748 44.6353C68.1003 43.3554 69.6534 42.0081 71.2184 40.6549C103.423 13.8454 146.343 0.0319059 187.915 0.00119603ZM90.2291 62.1517C90.0361 62.5378 89.843 62.9238 89.6441 63.3216C91.3814 66.7962 93.1187 70.2707 94.9087 73.8506C124.25 73.8506 153.59 73.8506 183.82 73.8506C183.82 80.7998 183.82 87.7489 183.82 94.9087C157.568 94.9087 131.316 94.9087 104.268 94.9087C107.504 102.352 110.779 109.781 114.212 117.137C130.234 117.137 146.255 117.137 162.762 117.137C162.762 125.051 162.762 132.965 162.762 141.119C150.794 141.119 138.826 141.119 126.496 141.119C130.879 150.87 130.879 150.87 135.472 160.513C138.512 166.714 141.482 172.942 144.373 179.214C146.937 184.775 149.558 190.304 152.233 195.812C155.247 202.017 158.18 208.255 161.069 214.519C163.337 219.422 165.667 224.294 168.027 229.154C170.737 234.735 173.395 240.338 175.997 245.971C178.521 251.429 181.058 256.881 183.638 262.313C183.933 262.942 184.229 263.572 184.534 264.22C184.807 264.793 185.081 265.367 185.363 265.957C185.602 266.463 185.842 266.968 186.089 267.489C186.656 268.728 186.656 268.728 187.915 269.223C193.35 258.074 198.781 246.923 204.115 235.726C205.522 232.777 206.937 229.832 208.352 226.887C208.79 225.975 208.79 225.975 209.237 225.044C209.828 223.812 210.42 222.581 211.011 221.349C212.477 218.296 213.942 215.243 215.408 212.19C215.992 210.972 216.577 209.753 217.162 208.534C217.597 207.63 217.597 207.63 218.04 206.706C230.616 180.506 243.192 154.305 255.769 128.104C256.058 127.501 256.348 126.898 256.646 126.277C257.232 125.056 257.818 123.836 258.404 122.615C259.852 119.598 261.3 116.581 262.747 113.563C265.709 107.386 268.679 101.212 271.659 95.0437C275.126 87.8683 278.588 80.6907 282.008 73.4927C282.622 72.2102 283.245 70.9332 283.874 69.6577C284.202 68.9784 284.531 68.299 284.87 67.599C285.144 67.0418 285.419 66.4845 285.702 65.9104C286.258 64.2797 286.198 63.7394 285.601 62.1517C284.747 61.2464 284.747 61.2464 283.631 60.486C283.215 60.1834 282.8 59.8808 282.371 59.569C281.69 59.092 281.69 59.092 280.995 58.6055C280.525 58.272 280.054 57.9386 279.57 57.5951C271.7 52.1036 263.269 47.5246 254.599 43.4334C254.24 43.2619 253.882 43.0903 253.512 42.9136C237.699 35.4139 220.474 31.2455 203.124 29.3947C202.422 29.3178 201.721 29.2409 200.999 29.1617C162.62 25.74 120.06 37.2014 90.2291 62.1517ZM64.4915 86.7194C63.617 87.6305 63.617 87.6305 62.7252 88.8467C62.3722 89.311 62.0192 89.7753 61.6554 90.2537C61.0867 91.0197 61.0867 91.0197 60.5065 91.8011C59.918 92.5932 59.918 92.5932 59.3176 93.4012C37.8257 122.727 27.6105 156.986 28.2248 193.18C28.5626 193.167 28.9004 193.155 29.2483 193.142C51.1701 192.456 70.6366 202.146 86.5161 217.018C86.9692 217.452 87.4224 217.886 87.8893 218.332C88.3968 218.796 88.9042 219.26 89.4271 219.738C107.798 237.115 120.658 265.599 124.741 290.281C124.818 290.722 124.895 291.164 124.974 291.62C126.995 305.766 123.895 319.372 117.137 331.812C152.869 350.851 196.871 352.562 235.153 341.179C262.466 332.642 289.953 316.298 308.012 293.681C309.383 291.973 310.757 290.277 312.184 288.615C317.043 282.957 321.146 276.894 324.792 270.392C324.431 270.306 324.07 270.221 323.698 270.132C315.742 268.025 311.01 263.158 306.906 256.196C295.065 235.186 295.355 212.158 301.575 189.334C305.608 175.187 312.385 160.408 325.441 152.567C335.302 147.21 335.302 147.21 340.001 148.139C341.63 149.606 341.63 149.606 342.926 151.063C337.724 127.485 326.362 106.997 311.924 87.8893C310.437 89.2293 309.604 90.555 308.713 92.3406C308.434 92.8945 308.156 93.4484 307.869 94.0191C307.568 94.6262 307.267 95.2332 306.957 95.8586C306.636 96.4991 306.316 97.1396 305.985 97.7994C305.105 99.5586 304.228 101.319 303.352 103.081C302.428 104.937 301.501 106.791 300.574 108.645C299.012 111.772 297.452 114.899 295.895 118.028C293.916 122.001 291.934 125.972 289.95 129.943C288.226 133.394 286.503 136.845 284.782 140.297C284.238 141.386 283.695 142.474 283.152 143.563C279.727 150.424 276.321 157.292 273.03 164.218C269.548 171.545 265.918 178.797 262.28 186.047C261.333 187.935 260.387 189.825 259.441 191.714C256.847 196.896 254.25 202.077 251.653 207.258C249.266 212.019 246.881 216.78 244.497 221.542C243.563 223.407 242.629 225.271 241.694 227.134C238.239 234.019 234.801 240.908 231.496 247.867C228.004 255.22 224.361 262.496 220.71 269.771C219.759 271.667 218.81 273.564 217.86 275.461C215.46 280.255 213.058 285.049 210.655 289.842C208.054 295.031 205.454 300.219 202.855 305.41C201.917 307.283 200.979 309.156 200.039 311.029C196.429 318.224 192.826 325.417 189.432 332.717C187.972 335.85 187.972 335.85 187.33 336.491C184.188 330.268 181.07 324.035 178.081 317.737C174.844 310.922 171.527 304.148 168.21 297.373C164.395 289.58 160.584 281.785 156.803 273.975C153.45 267.048 150.085 260.127 146.713 253.21C143.198 245.998 139.687 238.784 136.184 231.567C132.574 224.129 128.952 216.696 125.326 209.266C121.496 201.419 117.674 193.57 113.861 185.715C110.572 178.939 107.276 172.166 103.975 165.395C100.46 158.183 96.9499 150.969 93.4463 143.752C88.8138 134.209 84.1692 124.673 79.5219 115.138C77.7498 111.502 75.9783 107.865 74.2071 104.229C73.6894 103.166 73.1718 102.104 72.6542 101.041C71.9042 99.5012 71.1542 97.9614 70.4042 96.4217C69.7175 95.0117 69.0307 93.6018 68.3439 92.1919C68.0367 91.5611 68.0367 91.5611 67.7234 90.9176C66.6996 88.815 66.6996 88.815 65.6614 86.7194C65.2753 86.7194 64.8892 86.7194 64.4915 86.7194Z" fill="#E9DCF9"/>
<path d="M198.443 135.27C200.739 136.62 202.275 137.991 203.123 140.534C203.341 143.471 203.203 145.212 201.368 147.554C199.637 149.437 198.353 150.064 195.848 150.186C193.234 150.068 191.679 149.27 189.669 147.554C188.009 145.064 188.127 142.873 188.499 139.949C190.642 135.663 193.802 134.357 198.443 135.27Z" fill="#E9DCF9"/>
<path d="M282.639 266.158C284.754 267.271 285.924 268.177 286.772 270.392C287.147 272.784 287.331 275.205 286.157 277.382C285.127 278.637 284.136 279.607 282.678 280.337C280.03 280.58 277.608 280.635 275.11 279.679C272.971 277.734 272.248 275.867 271.893 273.025C272.271 269.994 273.49 268.277 275.841 266.371C278.201 265.383 280.218 265.205 282.639 266.158Z" fill="#E9DCF9"/>
<path d="M244.069 91.3991C245.68 92.4494 246.717 93.1846 247.579 94.9087C247.809 97.3546 247.842 98.5994 246.482 100.685C244.779 102.388 244.303 102.49 241.839 102.732C239.857 102.696 239.38 102.506 237.635 101.343C236.327 99.3821 236.067 98.3429 236.211 96.0398C236.61 94.2617 237.519 93.2317 238.805 91.984C240.618 91.0772 242.068 91.2295 244.069 91.3991Z" fill="#E9DCF9"/>
<path d="M60.9832 169.782C62.6306 171.302 63.2306 172.224 63.652 174.425C63.1926 176.926 62.2638 178.019 60.3983 179.726C58.0644 180.434 56.8959 180.574 54.6585 179.58C52.69 178.005 52.2375 177.053 51.9531 174.534C51.9987 172.472 52.1963 172.138 53.5617 170.403C56.3278 168.281 57.806 168.555 60.9832 169.782Z" fill="#E9DCF9"/>
<path d="M214.237 62.1517C215.37 62.8098 215.37 62.8098 215.992 63.9065C216.307 66.0216 216.239 67.0308 215.078 68.842C213.652 69.756 213.652 69.756 211.532 69.7194C209.558 69.1711 209.558 69.1711 208.388 67.4162C208.199 65.6102 208.103 64.4095 209.009 62.8098C210.79 61.7757 212.227 61.9363 214.237 62.1517Z" fill="#E9DCF9"/>
<path d="M235.296 311.339C236.429 312.326 236.429 312.326 237.051 313.678C236.922 315.827 236.834 316.819 235.296 318.358C232.759 318.542 231.595 318.621 229.446 317.188C228.934 315.835 228.934 315.835 228.861 314.263C230.473 310.886 231.686 310.381 235.296 311.339Z" fill="#E9DCF9"/>
<path d="M273.098 202.575C275.072 203.124 275.072 203.124 276.242 204.878C275.977 208.653 275.977 208.653 274.487 210.143C270.947 210.465 270.947 210.465 269.259 209.485C268.328 207.841 268.373 206.734 268.638 204.878C269.991 202.767 270.566 202.532 273.098 202.575Z" fill="#E9DCF9"/>
<path d="M244.91 270.795C246.994 270.977 246.994 270.977 248.128 271.599C249.12 273.408 249.001 274.812 248.749 276.827C247.799 277.997 247.799 277.997 246.409 278.582C244.373 278.54 243.312 278.356 241.766 277.01C240.919 275.166 241.186 274.072 241.73 272.147C242.9 270.977 242.9 270.977 244.91 270.795Z" fill="#E9DCF9"/>
<path d="M76.5553 138.816C78.5295 139.365 78.5295 139.365 79.6994 141.12C79.5897 143.203 79.5897 143.203 79.1144 145.214C77.3596 146.384 77.3596 146.384 75.2757 146.238C73.265 145.799 73.265 145.799 72.0951 144.629C71.8221 142.536 71.8598 141.487 73.0091 139.694C74.4349 138.78 74.4349 138.78 76.5553 138.816Z" fill="#E9DCF9"/>
<path d="M94.9456 190.291C97.5922 191.136 97.5922 191.136 98.4187 192.595C98.2238 196.299 98.2238 196.299 96.6639 197.859C93.1236 198.181 93.1236 198.181 91.4359 197.201C90.5045 195.557 90.5493 194.45 90.8144 192.595C92.0914 190.679 92.6189 190.244 94.9456 190.291Z" fill="#E9DCF9"/>
<path d="M184.076 197.676C186.16 197.859 186.16 197.859 187.294 198.517C188.2 200.117 188.103 201.317 187.915 203.124C186.745 204.878 186.745 204.878 185.1 205.427C183.236 205.463 183.236 205.463 181.517 204.586C180.311 203.124 180.311 203.124 180.347 201.003C181.073 198.391 181.348 197.924 184.076 197.676Z" fill="#E9DCF9"/>
<path d="M475.85 182.7C475.85 187.5 472.9 189.9 467 189.9C461.1 189.9 458.15 187.5 458.15 182.7V78.9C458.15 76.6 458.8 74.55 460.1 72.75C461.4 70.85 463.9 69.9 467.6 69.9H518.6C522.2 69.9 524.1 72.4 524.3 77.4C524.5 82.5 522.6 85.05 518.6 85.05H475.85V182.7ZM514.25 127.05C514.25 128.75 513.9 130.4 513.2 132C512.6 133.5 511.7 134.8 510.5 135.9C509.4 137 508.1 137.9 506.6 138.6C505.1 139.2 503.45 139.5 501.65 139.5C498.25 139.5 495.35 138.3 492.95 135.9C490.55 133.5 489.35 130.55 489.35 127.05C489.35 123.55 490.55 120.6 492.95 118.2C495.35 115.8 498.25 114.6 501.65 114.6C503.45 114.6 505.1 114.95 506.6 115.65C508.1 116.25 509.4 117.15 510.5 118.35C511.7 119.45 512.6 120.75 513.2 122.25C513.9 123.75 514.25 125.35 514.25 127.05ZM574.067 84.6L541.217 185.4V185.25C540.617 186.75 539.767 188 538.667 189C537.667 189.9 536.417 190.35 534.917 190.35C534.117 190.35 533.317 190.25 532.517 190.05C531.817 189.95 531.067 189.8 530.267 189.6H530.417C524.717 187.8 522.617 184.6 524.117 180L558.317 76.05C558.817 74.45 559.667 73.1 560.867 72C562.167 70.9 563.667 70.25 565.367 70.05C567.067 69.75 568.717 69.55 570.317 69.45C571.917 69.25 573.167 69.15 574.067 69.15C574.967 69.15 576.217 69.25 577.817 69.45C579.417 69.55 581.067 69.7 582.767 69.9C584.167 70.1 585.517 70.85 586.817 72.15C588.217 73.45 589.267 74.75 589.967 76.05C595.567 93.25 601.217 110.6 606.917 128.1C612.717 145.5 618.417 162.8 624.017 180C625.417 184.6 623.317 187.8 617.717 189.6C616.917 189.8 616.167 189.95 615.467 190.05C614.867 190.25 614.167 190.35 613.367 190.35C611.967 190.35 610.667 189.9 609.467 189C608.367 188 607.567 186.75 607.067 185.25V185.4L574.067 84.6ZM585.317 153C585.317 156.2 584.167 158.95 581.867 161.25C579.667 163.45 576.967 164.55 573.767 164.55C570.567 164.55 567.867 163.45 565.667 161.25C563.467 158.95 562.367 156.2 562.367 153C562.367 149.8 563.467 147.1 565.667 144.9C567.867 142.6 570.567 141.45 573.767 141.45C576.967 141.45 579.667 142.6 581.867 144.9C584.167 147.1 585.317 149.8 585.317 153ZM693.699 144.75C693.699 142.45 692.849 140.25 691.149 138.15C689.449 135.95 686.449 134.7 682.149 134.4C679.349 137.8 675.949 139.5 671.949 139.5C668.549 139.5 665.649 138.3 663.249 135.9C660.849 133.5 659.649 130.55 659.649 127.05C659.649 123.55 660.849 120.6 663.249 118.2C665.649 115.8 668.549 114.6 671.949 114.6C673.749 114.6 675.499 115.1 677.199 116.1C678.999 117.1 680.599 118.3 681.999 119.7C684.199 119.6 685.899 119.25 687.099 118.65C688.299 118.05 689.149 117.35 689.649 116.55C690.249 115.65 690.599 114.65 690.699 113.55C690.799 112.45 690.849 111.35 690.849 110.25V95.1C690.849 92.6 690.049 90.3 688.449 88.2C686.949 86.1 684.349 85.05 680.649 85.05H649.299L649.149 184.05C649.149 186.05 648.199 187.6 646.299 188.7C644.499 189.7 642.499 190.2 640.299 190.2C634.399 190.2 631.449 187.8 631.449 183V78.9C631.449 75.3 632.349 72.9 634.149 71.7C636.049 70.5 638.299 69.9 640.899 69.9H684.399C686.999 69.9 689.749 70.4 692.649 71.4C695.649 72.4 698.449 73.75 701.049 75.45H700.899C703.499 77.35 705.399 79.85 706.599 82.95C707.899 86.05 708.549 89.65 708.549 93.75V110.7C708.549 114.7 707.699 118 705.999 120.6C704.299 123.1 702.499 125.1 700.599 126.6C701.899 127.4 703.149 128.25 704.349 129.15C705.549 129.95 706.549 130.85 707.349 131.85C708.649 133.25 709.649 134.9 710.349 136.8C711.149 138.7 711.549 140.95 711.549 143.55V165C711.549 173.2 708.349 179.25 701.949 183.15C698.749 185.15 695.699 186.65 692.799 187.65C689.999 188.65 687.199 189.15 684.399 189.15H662.199C660.499 189.15 659.149 188.45 658.149 187.05C657.249 185.65 656.799 183.8 656.799 181.5C656.799 176.5 658.899 174 663.099 174H683.649C687.349 174 689.949 172.95 691.449 170.85C692.949 168.75 693.699 166.4 693.699 163.8V144.75ZM746.438 182.7C746.438 187.5 743.438 189.9 737.438 189.9C731.538 189.9 728.588 187.5 728.588 182.7V76.35C728.588 71.55 731.538 69.15 737.438 69.15C743.438 69.15 746.438 71.55 746.438 76.35V182.7ZM803.919 84.6L771.069 185.4V185.25C770.469 186.75 769.619 188 768.519 189C767.519 189.9 766.269 190.35 764.769 190.35C763.969 190.35 763.169 190.25 762.369 190.05C761.669 189.95 760.919 189.8 760.119 189.6H760.269C754.569 187.8 752.469 184.6 753.969 180L788.169 76.05C788.669 74.45 789.519 73.1 790.719 72C792.019 70.9 793.519 70.25 795.219 70.05C796.919 69.75 798.569 69.55 800.169 69.45C801.769 69.25 803.019 69.15 803.919 69.15C804.819 69.15 806.069 69.25 807.669 69.45C809.269 69.55 810.919 69.7 812.619 69.9C814.019 70.1 815.369 70.85 816.669 72.15C818.069 73.45 819.119 74.75 819.819 76.05C825.419 93.25 831.069 110.6 836.769 128.1C842.569 145.5 848.269 162.8 853.869 180C855.269 184.6 853.169 187.8 847.569 189.6C846.769 189.8 846.019 189.95 845.319 190.05C844.719 190.25 844.019 190.35 843.219 190.35C841.819 190.35 840.519 189.9 839.319 189C838.219 188 837.419 186.75 836.919 185.25V185.4L803.919 84.6ZM815.169 153C815.169 156.2 814.019 158.95 811.719 161.25C809.519 163.45 806.819 164.55 803.619 164.55C800.419 164.55 797.719 163.45 795.519 161.25C793.319 158.95 792.219 156.2 792.219 153C792.219 149.8 793.319 147.1 795.519 144.9C797.719 142.6 800.419 141.45 803.619 141.45C806.819 141.45 809.519 142.6 811.719 144.9C814.019 147.1 815.169 149.8 815.169 153ZM927.751 76.35C927.751 71.55 930.701 69.15 936.601 69.15C942.501 69.15 945.451 71.55 945.451 76.35V179.85C945.451 183.35 943.601 185.9 939.901 187.5H940.051C938.451 188.2 936.751 188.75 934.951 189.15C933.151 189.55 931.401 189.75 929.701 189.75C928.401 189.75 927.051 189.6 925.651 189.3C924.251 189.1 922.901 188.75 921.601 188.25C920.401 187.65 919.251 186.9 918.151 186C917.151 185 916.351 183.8 915.751 182.4L883.201 101.25L879.151 101.7V182.7C879.151 187.5 876.151 189.9 870.151 189.9C864.251 189.9 861.301 187.5 861.301 182.7V79.35C861.301 75.25 863.101 72.5 866.701 71.1C870.001 69.8 873.501 69.15 877.201 69.15C879.801 69.15 882.401 69.7 885.001 70.8C887.701 71.8 889.751 73.75 891.151 76.65L923.551 157.95L927.751 157.5V76.35ZM971.395 189.15C967.695 189.15 965.195 188.2 963.895 186.3C962.595 184.4 961.945 182.3 961.945 180V78.9C961.945 76.6 962.595 74.55 963.895 72.75C965.195 70.85 967.695 69.9 971.395 69.9H1023.59C1027.29 69.9 1029.24 72.4 1029.44 77.4C1029.64 82.5 1027.69 85.05 1023.59 85.05H979.645V174H1026.29C1029.99 174 1031.89 176.45 1031.99 181.35C1032.19 186.55 1030.29 189.15 1026.29 189.15H971.395ZM1018.04 127.05C1018.04 130.55 1016.79 133.5 1014.29 135.9C1011.89 138.3 1008.94 139.5 1005.44 139.5C1002.04 139.5 999.145 138.3 996.745 135.9C994.345 133.5 993.145 130.55 993.145 127.05C993.145 123.55 994.345 120.6 996.745 118.2C999.145 115.8 1002.04 114.6 1005.44 114.6C1008.94 114.6 1011.89 115.8 1014.29 118.2C1016.79 120.6 1018.04 123.55 1018.04 127.05ZM1116.44 189.75C1114.44 189.75 1112.29 189.45 1109.99 188.85C1107.79 188.15 1106.19 186.9 1105.19 185.1C1102.89 177.3 1100.49 169.3 1097.99 161.1C1095.49 152.9 1092.99 144.85 1090.49 136.95C1087.69 127.65 1084.69 118 1081.49 108C1078.29 97.9 1075.29 88.25 1072.49 79.05C1071.89 76.85 1072.24 74.95 1073.54 73.35C1074.84 71.65 1076.69 70.4 1079.09 69.6C1080.59 69.2 1081.89 69 1082.99 69C1086.39 69 1088.59 70.7 1089.59 74.1L1100.69 109.65C1101.69 113.25 1102.84 117.2 1104.14 121.5C1105.54 125.8 1106.94 130.2 1108.34 134.7C1109.74 139.2 1111.14 143.7 1112.54 148.2C1113.94 152.6 1115.24 156.7 1116.44 160.5C1118.34 154.2 1120.39 147.4 1122.59 140.1C1124.89 132.7 1127.19 125.2 1129.49 117.6C1131.89 110 1134.24 102.5 1136.54 95.1C1138.84 87.6 1140.99 80.6 1142.99 74.1C1144.09 70.7 1146.24 69 1149.44 69C1150.64 69 1152.04 69.2 1153.64 69.6C1159.14 71.1 1161.29 74.25 1160.09 79.05C1154.69 96.55 1149.24 114.2 1143.74 132C1138.24 149.8 1132.79 167.5 1127.39 185.1C1126.59 187.1 1125.09 188.4 1122.89 189C1120.79 189.5 1118.64 189.75 1116.44 189.75ZM1186.81 182.7C1186.81 187.5 1183.81 189.9 1177.81 189.9C1171.91 189.9 1168.96 187.5 1168.96 182.7V76.35C1168.96 71.55 1171.91 69.15 1177.81 69.15C1183.81 69.15 1186.81 71.55 1186.81 76.35V182.7ZM1214.44 189.15C1210.74 189.15 1208.24 188.2 1206.94 186.3C1205.64 184.4 1204.99 182.3 1204.99 180V78.9C1204.99 76.6 1205.64 74.55 1206.94 72.75C1208.24 70.85 1210.74 69.9 1214.44 69.9H1266.64C1270.34 69.9 1272.29 72.4 1272.49 77.4C1272.69 82.5 1270.74 85.05 1266.64 85.05H1222.69V174H1269.34C1273.04 174 1274.94 176.45 1275.04 181.35C1275.24 186.55 1273.34 189.15 1269.34 189.15H1214.44ZM1261.09 127.05C1261.09 130.55 1259.84 133.5 1257.34 135.9C1254.94 138.3 1251.99 139.5 1248.49 139.5C1245.09 139.5 1242.19 138.3 1239.79 135.9C1237.39 133.5 1236.19 130.55 1236.19 127.05C1236.19 123.55 1237.39 120.6 1239.79 118.2C1242.19 115.8 1245.09 114.6 1248.49 114.6C1251.99 114.6 1254.94 115.8 1257.34 118.2C1259.84 120.6 1261.09 123.55 1261.09 127.05ZM1346.91 134.85C1346.91 129.95 1349.91 127.5 1355.91 127.5C1361.81 127.5 1364.76 129.85 1364.76 134.55V165C1364.76 173.1 1362.06 179.15 1356.66 183.15C1354.06 185.05 1351.36 186.55 1348.56 187.65C1345.86 188.65 1343.21 189.15 1340.61 189.15H1309.41C1306.81 189.15 1304.11 188.65 1301.31 187.65C1298.61 186.55 1295.96 185.05 1293.36 183.15C1290.76 181.15 1288.76 178.7 1287.36 175.8C1285.96 172.8 1285.26 169.2 1285.26 165V93.75C1285.26 89.65 1285.96 86.1 1287.36 83.1C1288.86 80.1 1290.86 77.65 1293.36 75.75H1293.21C1295.81 74.05 1298.51 72.65 1301.31 71.55C1304.11 70.45 1306.81 69.9 1309.41 69.9H1339.11C1341.71 69.9 1344.41 70.45 1347.21 71.55C1350.01 72.65 1352.71 74.05 1355.31 75.75H1355.16C1360.46 79.65 1363.11 85.65 1363.11 93.75V104.1C1363.11 108.9 1360.16 111.3 1354.26 111.3C1348.36 111.3 1345.41 108.9 1345.41 104.1V95.1C1345.41 92.6 1344.66 90.3 1343.16 88.2C1341.66 86.1 1339.06 85.05 1335.36 85.05H1313.31C1309.51 85.05 1306.86 86.1 1305.36 88.2C1303.86 90.3 1303.11 92.6 1303.11 95.1V163.8C1303.11 165.1 1303.26 166.35 1303.56 167.55C1303.96 168.75 1304.56 169.85 1305.36 170.85C1306.16 171.75 1307.21 172.5 1308.51 173.1C1309.81 173.7 1311.41 174 1313.31 174H1336.86C1340.56 174 1343.16 172.95 1344.66 170.85C1346.16 168.75 1346.91 166.4 1346.91 163.8V134.85ZM1339.86 133.2C1339.86 134.9 1339.51 136.55 1338.81 138.15C1338.21 139.65 1337.31 140.95 1336.11 142.05C1335.01 143.15 1333.71 144.05 1332.21 144.75C1330.71 145.35 1329.06 145.65 1327.26 145.65C1323.86 145.65 1320.96 144.45 1318.56 142.05C1316.16 139.65 1314.96 136.7 1314.96 133.2C1314.96 129.8 1316.16 126.9 1318.56 124.5C1320.96 122.1 1323.86 120.9 1327.26 120.9C1329.06 120.9 1330.71 121.25 1332.21 121.95C1333.71 122.55 1335.01 123.4 1336.11 124.5C1337.31 125.6 1338.21 126.9 1338.81 128.4C1339.51 129.9 1339.86 131.5 1339.86 133.2ZM1421.25 84.6L1388.4 185.4V185.25C1387.8 186.75 1386.95 188 1385.85 189C1384.85 189.9 1383.6 190.35 1382.1 190.35C1381.3 190.35 1380.5 190.25 1379.7 190.05C1379 189.95 1378.25 189.8 1377.45 189.6H1377.6C1371.9 187.8 1369.8 184.6 1371.3 180L1405.5 76.05C1406 74.45 1406.85 73.1 1408.05 72C1409.35 70.9 1410.85 70.25 1412.55 70.05C1414.25 69.75 1415.9 69.55 1417.5 69.45C1419.1 69.25 1420.35 69.15 1421.25 69.15C1422.15 69.15 1423.4 69.25 1425 69.45C1426.6 69.55 1428.25 69.7 1429.95 69.9C1431.35 70.1 1432.7 70.85 1434 72.15C1435.4 73.45 1436.45 74.75 1437.15 76.05C1442.75 93.25 1448.4 110.6 1454.1 128.1C1459.9 145.5 1465.6 162.8 1471.2 180C1472.6 184.6 1470.5 187.8 1464.9 189.6C1464.1 189.8 1463.35 189.95 1462.65 190.05C1462.05 190.25 1461.35 190.35 1460.55 190.35C1459.15 190.35 1457.85 189.9 1456.65 189C1455.55 188 1454.75 186.75 1454.25 185.25V185.4L1421.25 84.6ZM1432.5 153C1432.5 156.2 1431.35 158.95 1429.05 161.25C1426.85 163.45 1424.15 164.55 1420.95 164.55C1417.75 164.55 1415.05 163.45 1412.85 161.25C1410.65 158.95 1409.55 156.2 1409.55 153C1409.55 149.8 1410.65 147.1 1412.85 144.9C1415.05 142.6 1417.75 141.45 1420.95 141.45C1424.15 141.45 1426.85 142.6 1429.05 144.9C1431.35 147.1 1432.5 149.8 1432.5 153ZM1535.48 120.45C1538.08 120.45 1540.78 121 1543.58 122.1C1546.38 123.2 1549.08 124.65 1551.68 126.45H1551.53C1554.13 128.25 1556.13 130.7 1557.53 133.8C1558.93 136.9 1559.63 140.45 1559.63 144.45V165C1559.63 173.1 1556.93 179.15 1551.53 183.15C1548.93 185.05 1546.23 186.55 1543.43 187.65C1540.73 188.65 1538.08 189.15 1535.48 189.15H1502.78C1500.18 189.15 1497.48 188.65 1494.68 187.65C1491.98 186.55 1489.33 185.05 1486.73 183.15C1481.33 179.15 1478.63 173.1 1478.63 165V155.1C1478.63 150.4 1481.58 148.05 1487.48 148.05C1493.48 148.05 1496.48 150.4 1496.48 155.1V163.8C1496.48 166.4 1497.23 168.75 1498.73 170.85C1500.23 172.95 1502.83 174 1506.53 174H1531.73C1535.43 174 1538.03 172.95 1539.53 170.85C1541.03 168.75 1541.78 166.4 1541.78 163.8V145.65C1541.78 143.15 1541.03 140.85 1539.53 138.75C1538.03 136.55 1535.43 135.45 1531.73 135.45H1502.78C1497.58 135.45 1492.23 133.55 1486.73 129.75C1481.33 125.55 1478.63 119.5 1478.63 111.6V93.75C1478.63 89.75 1479.33 86.25 1480.73 83.25C1482.13 80.15 1484.13 77.65 1486.73 75.75H1486.58C1489.18 74.05 1491.88 72.65 1494.68 71.55C1497.48 70.45 1500.18 69.9 1502.78 69.9H1535.48C1538.08 69.9 1540.78 70.45 1543.58 71.55C1546.38 72.65 1549.08 74.05 1551.68 75.75H1551.53C1554.13 77.65 1556.13 80.15 1557.53 83.25C1558.93 86.25 1559.63 89.75 1559.63 93.75V102.6C1559.63 107.3 1556.63 109.65 1550.63 109.65C1544.73 109.65 1541.78 107.3 1541.78 102.6V95.1C1541.78 92.6 1541.03 90.3 1539.53 88.2C1538.03 86.1 1535.43 85.05 1531.73 85.05H1506.53C1502.83 85.05 1500.23 86.1 1498.73 88.2C1497.23 90.3 1496.48 92.6 1496.48 95.1V110.4C1496.48 113 1497.23 115.35 1498.73 117.45C1500.23 119.45 1502.83 120.45 1506.53 120.45H1535.48Z" fill="#E9DCF9"/>
<path d="M448.16 263.35H458.69L467.51 316.36H469.4L481.1 263.53H492.8L504.5 316.36H506.48L515.3 263.35H525.83L513.68 325H497.57L486.95 275.59L476.42 325H460.22L448.16 263.35ZM543.662 325V263.35H582.542V272.08H553.652V289.54H577.142V298.18H553.652V316.18H582.542V325H543.662ZM601.958 263.35H625.358C631.658 263.35 636.368 264.64 639.488 267.22C642.608 269.74 644.168 273.79 644.168 279.37C644.168 283.03 643.568 285.91 642.368 288.01C641.228 290.11 639.398 291.85 636.878 293.23C642.758 295.51 645.698 300.28 645.698 307.54C645.698 319.18 639.158 325 626.078 325H601.958V263.35ZM625.358 298.09H611.948V316.36H625.538C628.838 316.36 631.298 315.67 632.918 314.29C634.598 312.91 635.438 310.54 635.438 307.18C635.438 303.82 634.478 301.48 632.558 300.16C630.638 298.78 628.238 298.09 625.358 298.09ZM624.818 271.99H611.948V289.63H625.178C631.058 289.63 633.998 286.6 633.998 280.54C633.998 274.84 630.938 271.99 624.818 271.99ZM715.271 325H693.941V263.35H715.271C724.751 263.35 731.231 265.75 734.711 270.55C738.191 275.35 739.931 282.88 739.931 293.14C739.931 298.36 739.571 302.8 738.851 306.46C738.191 310.06 736.991 313.33 735.251 316.27C731.831 322.09 725.171 325 715.271 325ZM729.581 293.14C729.581 285.7 728.651 280.33 726.791 277.03C724.931 273.73 721.091 272.08 715.271 272.08H703.931V316.18H715.271C721.211 316.18 725.171 313.99 727.151 309.61C728.111 307.39 728.741 305.02 729.041 302.5C729.401 299.98 729.581 296.86 729.581 293.14ZM760.147 325V263.35H799.027V272.08H770.137V289.54H793.627V298.18H770.137V316.18H799.027V325H760.147ZM836.533 271.09C828.913 271.09 825.103 273.76 825.103 279.1C825.103 281.86 826.003 283.84 827.803 285.04C829.603 286.18 833.563 287.62 839.683 289.36C845.863 291.04 850.213 293.08 852.733 295.48C855.253 297.82 856.513 301.54 856.513 306.64C856.513 313.12 854.653 317.98 850.933 321.22C847.273 324.4 842.263 325.99 835.903 325.99C830.803 325.99 825.163 325.39 818.983 324.19L815.743 323.56L816.733 315.55C824.833 316.63 831.013 317.17 835.273 317.17C842.713 317.17 846.433 313.87 846.433 307.27C846.433 304.69 845.593 302.8 843.913 301.6C842.233 300.34 838.453 298.99 832.573 297.55C826.693 296.05 822.313 294.01 819.433 291.43C816.553 288.85 815.113 284.77 815.113 279.19C815.113 273.61 816.913 269.41 820.513 266.59C824.173 263.71 829.213 262.27 835.633 262.27C840.253 262.27 845.713 262.81 852.013 263.89L855.163 264.43L854.353 272.53C845.953 271.57 840.013 271.09 836.533 271.09ZM875.86 325V263.35H885.85V325H875.86ZM933.69 301.42V292.6H951.24V323.92C949.62 324.34 946.32 324.79 941.34 325.27C936.42 325.75 932.85 325.99 930.63 325.99C921.27 325.99 914.82 323.41 911.28 318.25C907.74 313.09 905.97 305.02 905.97 294.04C905.97 283 907.77 274.96 911.37 269.92C915.03 264.88 921.33 262.36 930.27 262.36C935.55 262.36 941.49 262.96 948.09 264.16L951.24 264.79L950.88 272.71C943.62 271.75 937.11 271.27 931.35 271.27C925.59 271.27 921.63 272.89 919.47 276.13C917.37 279.37 916.32 285.37 916.32 294.13C916.32 302.89 917.31 308.95 919.29 312.31C921.33 315.61 925.41 317.26 931.53 317.26C935.91 317.26 939.18 316.99 941.34 316.45V301.42H933.69ZM972.326 325V263.35H989.786L1008.51 316.18H1009.86V263.35H1019.85V325H1002.75L983.576 272.08H982.316V325H972.326ZM1042.57 325V263.35H1081.45V272.08H1052.56V289.54H1076.05V298.18H1052.56V316.18H1081.45V325H1042.57ZM1110.86 303.04V325H1100.87V263.35H1124.27C1138.19 263.35 1145.15 269.89 1145.15 282.97C1145.15 291.73 1141.79 297.67 1135.07 300.79L1145.24 325H1134.26L1125.35 303.04H1110.86ZM1134.89 283.06C1134.89 275.68 1131.35 271.99 1124.27 271.99H1110.86V294.4H1124.45C1128.05 294.4 1130.69 293.38 1132.37 291.34C1134.05 289.24 1134.89 286.48 1134.89 283.06Z" fill="#E9DCF9"/>
<line x1="446" y1="223" x2="1225" y2="223" stroke="#E9DCF9" stroke-width="2"/>
</svg>
