<svg width="1656" height="556" viewBox="0 0 1656 556" fill="none" xmlns="http://www.w3.org/2000/svg">
<path d="M556.85 260.7C556.85 265.5 553.9 267.9 548 267.9C542.1 267.9 539.15 265.5 539.15 260.7V156.9C539.15 154.6 539.8 152.55 541.1 150.75C542.4 148.85 544.9 147.9 548.6 147.9H599.6C603.2 147.9 605.1 150.4 605.3 155.4C605.5 160.5 603.6 163.05 599.6 163.05H556.85V260.7ZM595.25 205.05C595.25 206.75 594.9 208.4 594.2 210C593.6 211.5 592.7 212.8 591.5 213.9C590.4 215 589.1 215.9 587.6 216.6C586.1 217.2 584.45 217.5 582.65 217.5C579.25 217.5 576.35 216.3 573.95 213.9C571.55 211.5 570.35 208.55 570.35 205.05C570.35 201.55 571.55 198.6 573.95 196.2C576.35 193.8 579.25 192.6 582.65 192.6C584.45 192.6 586.1 192.95 587.6 193.65C589.1 194.25 590.4 195.15 591.5 196.35C592.7 197.45 593.6 198.75 594.2 200.25C594.9 201.75 595.25 203.35 595.25 205.05ZM655.067 162.6L622.217 263.4V263.25C621.617 264.75 620.767 266 619.667 267C618.667 267.9 617.417 268.35 615.917 268.35C615.117 268.35 614.317 268.25 613.517 268.05C612.817 267.95 612.067 267.8 611.267 267.6H611.417C605.717 265.8 603.617 262.6 605.117 258L639.317 154.05C639.817 152.45 640.667 151.1 641.867 150C643.167 148.9 644.667 148.25 646.367 148.05C648.067 147.75 649.717 147.55 651.317 147.45C652.917 147.25 654.167 147.15 655.067 147.15C655.967 147.15 657.217 147.25 658.817 147.45C660.417 147.55 662.067 147.7 663.767 147.9C665.167 148.1 666.517 148.85 667.817 150.15C669.217 151.45 670.267 152.75 670.967 154.05C676.567 171.25 682.217 188.6 687.917 206.1C693.717 223.5 699.417 240.8 705.017 258C706.417 262.6 704.317 265.8 698.717 267.6C697.917 267.8 697.167 267.95 696.467 268.05C695.867 268.25 695.167 268.35 694.367 268.35C692.967 268.35 691.667 267.9 690.467 267C689.367 266 688.567 264.75 688.067 263.25V263.4L655.067 162.6ZM666.317 231C666.317 234.2 665.167 236.95 662.867 239.25C660.667 241.45 657.967 242.55 654.767 242.55C651.567 242.55 648.867 241.45 646.667 239.25C644.467 236.95 643.367 234.2 643.367 231C643.367 227.8 644.467 225.1 646.667 222.9C648.867 220.6 651.567 219.45 654.767 219.45C657.967 219.45 660.667 220.6 662.867 222.9C665.167 225.1 666.317 227.8 666.317 231ZM774.699 222.75C774.699 220.45 773.849 218.25 772.149 216.15C770.449 213.95 767.449 212.7 763.149 212.4C760.349 215.8 756.949 217.5 752.949 217.5C749.549 217.5 746.649 216.3 744.249 213.9C741.849 211.5 740.649 208.55 740.649 205.05C740.649 201.55 741.849 198.6 744.249 196.2C746.649 193.8 749.549 192.6 752.949 192.6C754.749 192.6 756.499 193.1 758.199 194.1C759.999 195.1 761.599 196.3 762.999 197.7C765.199 197.6 766.899 197.25 768.099 196.65C769.299 196.05 770.149 195.35 770.649 194.55C771.249 193.65 771.599 192.65 771.699 191.55C771.799 190.45 771.849 189.35 771.849 188.25V173.1C771.849 170.6 771.049 168.3 769.449 166.2C767.949 164.1 765.349 163.05 761.649 163.05H730.299L730.149 262.05C730.149 264.05 729.199 265.6 727.299 266.7C725.499 267.7 723.499 268.2 721.299 268.2C715.399 268.2 712.449 265.8 712.449 261V156.9C712.449 153.3 713.349 150.9 715.149 149.7C717.049 148.5 719.299 147.9 721.899 147.9H765.399C767.999 147.9 770.749 148.4 773.649 149.4C776.649 150.4 779.449 151.75 782.049 153.45H781.899C784.499 155.35 786.399 157.85 787.599 160.95C788.899 164.05 789.549 167.65 789.549 171.75V188.7C789.549 192.7 788.699 196 786.999 198.6C785.299 201.1 783.499 203.1 781.599 204.6C782.899 205.4 784.149 206.25 785.349 207.15C786.549 207.95 787.549 208.85 788.349 209.85C789.649 211.25 790.649 212.9 791.349 214.8C792.149 216.7 792.549 218.95 792.549 221.55V243C792.549 251.2 789.349 257.25 782.949 261.15C779.749 263.15 776.699 264.65 773.799 265.65C770.999 266.65 768.199 267.15 765.399 267.15H743.199C741.499 267.15 740.149 266.45 739.149 265.05C738.249 263.65 737.799 261.8 737.799 259.5C737.799 254.5 739.899 252 744.099 252H764.649C768.349 252 770.949 250.95 772.449 248.85C773.949 246.75 774.699 244.4 774.699 241.8V222.75ZM827.438 260.7C827.438 265.5 824.438 267.9 818.438 267.9C812.538 267.9 809.588 265.5 809.588 260.7V154.35C809.588 149.55 812.538 147.15 818.438 147.15C824.438 147.15 827.438 149.55 827.438 154.35V260.7ZM884.919 162.6L852.069 263.4V263.25C851.469 264.75 850.619 266 849.519 267C848.519 267.9 847.269 268.35 845.769 268.35C844.969 268.35 844.169 268.25 843.369 268.05C842.669 267.95 841.919 267.8 841.119 267.6H841.269C835.569 265.8 833.469 262.6 834.969 258L869.169 154.05C869.669 152.45 870.519 151.1 871.719 150C873.019 148.9 874.519 148.25 876.219 148.05C877.919 147.75 879.569 147.55 881.169 147.45C882.769 147.25 884.019 147.15 884.919 147.15C885.819 147.15 887.069 147.25 888.669 147.45C890.269 147.55 891.919 147.7 893.619 147.9C895.019 148.1 896.369 148.85 897.669 150.15C899.069 151.45 900.119 152.75 900.819 154.05C906.419 171.25 912.069 188.6 917.769 206.1C923.569 223.5 929.269 240.8 934.869 258C936.269 262.6 934.169 265.8 928.569 267.6C927.769 267.8 927.019 267.95 926.319 268.05C925.719 268.25 925.019 268.35 924.219 268.35C922.819 268.35 921.519 267.9 920.319 267C919.219 266 918.419 264.75 917.919 263.25V263.4L884.919 162.6ZM896.169 231C896.169 234.2 895.019 236.95 892.719 239.25C890.519 241.45 887.819 242.55 884.619 242.55C881.419 242.55 878.719 241.45 876.519 239.25C874.319 236.95 873.219 234.2 873.219 231C873.219 227.8 874.319 225.1 876.519 222.9C878.719 220.6 881.419 219.45 884.619 219.45C887.819 219.45 890.519 220.6 892.719 222.9C895.019 225.1 896.169 227.8 896.169 231ZM1008.75 154.35C1008.75 149.55 1011.7 147.15 1017.6 147.15C1023.5 147.15 1026.45 149.55 1026.45 154.35V257.85C1026.45 261.35 1024.6 263.9 1020.9 265.5H1021.05C1019.45 266.2 1017.75 266.75 1015.95 267.15C1014.15 267.55 1012.4 267.75 1010.7 267.75C1009.4 267.75 1008.05 267.6 1006.65 267.3C1005.25 267.1 1003.9 266.75 1002.6 266.25C1001.4 265.65 1000.25 264.9 999.151 264C998.151 263 997.351 261.8 996.751 260.4L964.201 179.25L960.151 179.7V260.7C960.151 265.5 957.151 267.9 951.151 267.9C945.251 267.9 942.301 265.5 942.301 260.7V157.35C942.301 153.25 944.101 150.5 947.701 149.1C951.001 147.8 954.501 147.15 958.201 147.15C960.801 147.15 963.401 147.7 966.001 148.8C968.701 149.8 970.751 151.75 972.151 154.65L1004.55 235.95L1008.75 235.5V154.35ZM1052.39 267.15C1048.69 267.15 1046.19 266.2 1044.89 264.3C1043.59 262.4 1042.94 260.3 1042.94 258V156.9C1042.94 154.6 1043.59 152.55 1044.89 150.75C1046.19 148.85 1048.69 147.9 1052.39 147.9H1104.59C1108.29 147.9 1110.24 150.4 1110.44 155.4C1110.64 160.5 1108.69 163.05 1104.59 163.05H1060.64V252H1107.29C1110.99 252 1112.89 254.45 1112.99 259.35C1113.19 264.55 1111.29 267.15 1107.29 267.15H1052.39ZM1099.04 205.05C1099.04 208.55 1097.79 211.5 1095.29 213.9C1092.89 216.3 1089.94 217.5 1086.44 217.5C1083.04 217.5 1080.14 216.3 1077.74 213.9C1075.34 211.5 1074.14 208.55 1074.14 205.05C1074.14 201.55 1075.34 198.6 1077.74 196.2C1080.14 193.8 1083.04 192.6 1086.44 192.6C1089.94 192.6 1092.89 193.8 1095.29 196.2C1097.79 198.6 1099.04 201.55 1099.04 205.05ZM1197.44 267.75C1195.44 267.75 1193.29 267.45 1190.99 266.85C1188.79 266.15 1187.19 264.9 1186.19 263.1C1183.89 255.3 1181.49 247.3 1178.99 239.1C1176.49 230.9 1173.99 222.85 1171.49 214.95C1168.69 205.65 1165.69 196 1162.49 186C1159.29 175.9 1156.29 166.25 1153.49 157.05C1152.89 154.85 1153.24 152.95 1154.54 151.35C1155.84 149.65 1157.69 148.4 1160.09 147.6C1161.59 147.2 1162.89 147 1163.99 147C1167.39 147 1169.59 148.7 1170.59 152.1L1181.69 187.65C1182.69 191.25 1183.84 195.2 1185.14 199.5C1186.54 203.8 1187.94 208.2 1189.34 212.7C1190.74 217.2 1192.14 221.7 1193.54 226.2C1194.94 230.6 1196.24 234.7 1197.44 238.5C1199.34 232.2 1201.39 225.4 1203.59 218.1C1205.89 210.7 1208.19 203.2 1210.49 195.6C1212.89 188 1215.24 180.5 1217.54 173.1C1219.84 165.6 1221.99 158.6 1223.99 152.1C1225.09 148.7 1227.24 147 1230.44 147C1231.64 147 1233.04 147.2 1234.64 147.6C1240.14 149.1 1242.29 152.25 1241.09 157.05C1235.69 174.55 1230.24 192.2 1224.74 210C1219.24 227.8 1213.79 245.5 1208.39 263.1C1207.59 265.1 1206.09 266.4 1203.89 267C1201.79 267.5 1199.64 267.75 1197.44 267.75ZM1267.81 260.7C1267.81 265.5 1264.81 267.9 1258.81 267.9C1252.91 267.9 1249.96 265.5 1249.96 260.7V154.35C1249.96 149.55 1252.91 147.15 1258.81 147.15C1264.81 147.15 1267.81 149.55 1267.81 154.35V260.7ZM1295.44 267.15C1291.74 267.15 1289.24 266.2 1287.94 264.3C1286.64 262.4 1285.99 260.3 1285.99 258V156.9C1285.99 154.6 1286.64 152.55 1287.94 150.75C1289.24 148.85 1291.74 147.9 1295.44 147.9H1347.64C1351.34 147.9 1353.29 150.4 1353.49 155.4C1353.69 160.5 1351.74 163.05 1347.64 163.05H1303.69V252H1350.34C1354.04 252 1355.94 254.45 1356.04 259.35C1356.24 264.55 1354.34 267.15 1350.34 267.15H1295.44ZM1342.09 205.05C1342.09 208.55 1340.84 211.5 1338.34 213.9C1335.94 216.3 1332.99 217.5 1329.49 217.5C1326.09 217.5 1323.19 216.3 1320.79 213.9C1318.39 211.5 1317.19 208.55 1317.19 205.05C1317.19 201.55 1318.39 198.6 1320.79 196.2C1323.19 193.8 1326.09 192.6 1329.49 192.6C1332.99 192.6 1335.94 193.8 1338.34 196.2C1340.84 198.6 1342.09 201.55 1342.09 205.05ZM1427.91 212.85C1427.91 207.95 1430.91 205.5 1436.91 205.5C1442.81 205.5 1445.76 207.85 1445.76 212.55V243C1445.76 251.1 1443.06 257.15 1437.66 261.15C1435.06 263.05 1432.36 264.55 1429.56 265.65C1426.86 266.65 1424.21 267.15 1421.61 267.15H1390.41C1387.81 267.15 1385.11 266.65 1382.31 265.65C1379.61 264.55 1376.96 263.05 1374.36 261.15C1371.76 259.15 1369.76 256.7 1368.36 253.8C1366.96 250.8 1366.26 247.2 1366.26 243V171.75C1366.26 167.65 1366.96 164.1 1368.36 161.1C1369.86 158.1 1371.86 155.65 1374.36 153.75H1374.21C1376.81 152.05 1379.51 150.65 1382.31 149.55C1385.11 148.45 1387.81 147.9 1390.41 147.9H1420.11C1422.71 147.9 1425.41 148.45 1428.21 149.55C1431.01 150.65 1433.71 152.05 1436.31 153.75H1436.16C1441.46 157.65 1444.11 163.65 1444.11 171.75V182.1C1444.11 186.9 1441.16 189.3 1435.26 189.3C1429.36 189.3 1426.41 186.9 1426.41 182.1V173.1C1426.41 170.6 1425.66 168.3 1424.16 166.2C1422.66 164.1 1420.06 163.05 1416.36 163.05H1394.31C1390.51 163.05 1387.86 164.1 1386.36 166.2C1384.86 168.3 1384.11 170.6 1384.11 173.1V241.8C1384.11 243.1 1384.26 244.35 1384.56 245.55C1384.96 246.75 1385.56 247.85 1386.36 248.85C1387.16 249.75 1388.21 250.5 1389.51 251.1C1390.81 251.7 1392.41 252 1394.31 252H1417.86C1421.56 252 1424.16 250.95 1425.66 248.85C1427.16 246.75 1427.91 244.4 1427.91 241.8V212.85ZM1420.86 211.2C1420.86 212.9 1420.51 214.55 1419.81 216.15C1419.21 217.65 1418.31 218.95 1417.11 220.05C1416.01 221.15 1414.71 222.05 1413.21 222.75C1411.71 223.35 1410.06 223.65 1408.26 223.65C1404.86 223.65 1401.96 222.45 1399.56 220.05C1397.16 217.65 1395.96 214.7 1395.96 211.2C1395.96 207.8 1397.16 204.9 1399.56 202.5C1401.96 200.1 1404.86 198.9 1408.26 198.9C1410.06 198.9 1411.71 199.25 1413.21 199.95C1414.71 200.55 1416.01 201.4 1417.11 202.5C1418.31 203.6 1419.21 204.9 1419.81 206.4C1420.51 207.9 1420.86 209.5 1420.86 211.2ZM1502.25 162.6L1469.4 263.4V263.25C1468.8 264.75 1467.95 266 1466.85 267C1465.85 267.9 1464.6 268.35 1463.1 268.35C1462.3 268.35 1461.5 268.25 1460.7 268.05C1460 267.95 1459.25 267.8 1458.45 267.6H1458.6C1452.9 265.8 1450.8 262.6 1452.3 258L1486.5 154.05C1487 152.45 1487.85 151.1 1489.05 150C1490.35 148.9 1491.85 148.25 1493.55 148.05C1495.25 147.75 1496.9 147.55 1498.5 147.45C1500.1 147.25 1501.35 147.15 1502.25 147.15C1503.15 147.15 1504.4 147.25 1506 147.45C1507.6 147.55 1509.25 147.7 1510.95 147.9C1512.35 148.1 1513.7 148.85 1515 150.15C1516.4 151.45 1517.45 152.75 1518.15 154.05C1523.75 171.25 1529.4 188.6 1535.1 206.1C1540.9 223.5 1546.6 240.8 1552.2 258C1553.6 262.6 1551.5 265.8 1545.9 267.6C1545.1 267.8 1544.35 267.95 1543.65 268.05C1543.05 268.25 1542.35 268.35 1541.55 268.35C1540.15 268.35 1538.85 267.9 1537.65 267C1536.55 266 1535.75 264.75 1535.25 263.25V263.4L1502.25 162.6ZM1513.5 231C1513.5 234.2 1512.35 236.95 1510.05 239.25C1507.85 241.45 1505.15 242.55 1501.95 242.55C1498.75 242.55 1496.05 241.45 1493.85 239.25C1491.65 236.95 1490.55 234.2 1490.55 231C1490.55 227.8 1491.65 225.1 1493.85 222.9C1496.05 220.6 1498.75 219.45 1501.95 219.45C1505.15 219.45 1507.85 220.6 1510.05 222.9C1512.35 225.1 1513.5 227.8 1513.5 231ZM1616.48 198.45C1619.08 198.45 1621.78 199 1624.58 200.1C1627.38 201.2 1630.08 202.65 1632.68 204.45H1632.53C1635.13 206.25 1637.13 208.7 1638.53 211.8C1639.93 214.9 1640.63 218.45 1640.63 222.45V243C1640.63 251.1 1637.93 257.15 1632.53 261.15C1629.93 263.05 1627.23 264.55 1624.43 265.65C1621.73 266.65 1619.08 267.15 1616.48 267.15H1583.78C1581.18 267.15 1578.48 266.65 1575.68 265.65C1572.98 264.55 1570.33 263.05 1567.73 261.15C1562.33 257.15 1559.63 251.1 1559.63 243V233.1C1559.63 228.4 1562.58 226.05 1568.48 226.05C1574.48 226.05 1577.48 228.4 1577.48 233.1V241.8C1577.48 244.4 1578.23 246.75 1579.73 248.85C1581.23 250.95 1583.83 252 1587.53 252H1612.73C1616.43 252 1619.03 250.95 1620.53 248.85C1622.03 246.75 1622.78 244.4 1622.78 241.8V223.65C1622.78 221.15 1622.03 218.85 1620.53 216.75C1619.03 214.55 1616.43 213.45 1612.73 213.45H1583.78C1578.58 213.45 1573.23 211.55 1567.73 207.75C1562.33 203.55 1559.63 197.5 1559.63 189.6V171.75C1559.63 167.75 1560.33 164.25 1561.73 161.25C1563.13 158.15 1565.13 155.65 1567.73 153.75H1567.58C1570.18 152.05 1572.88 150.65 1575.68 149.55C1578.48 148.45 1581.18 147.9 1583.78 147.9H1616.48C1619.08 147.9 1621.78 148.45 1624.58 149.55C1627.38 150.65 1630.08 152.05 1632.68 153.75H1632.53C1635.13 155.65 1637.13 158.15 1638.53 161.25C1639.93 164.25 1640.63 167.75 1640.63 171.75V180.6C1640.63 185.3 1637.63 187.65 1631.63 187.65C1625.73 187.65 1622.78 185.3 1622.78 180.6V173.1C1622.78 170.6 1622.03 168.3 1620.53 166.2C1619.03 164.1 1616.43 163.05 1612.73 163.05H1587.53C1583.83 163.05 1581.23 164.1 1579.73 166.2C1578.23 168.3 1577.48 170.6 1577.48 173.1V188.4C1577.48 191 1578.23 193.35 1579.73 195.45C1581.23 197.45 1583.83 198.45 1587.53 198.45H1616.48Z" fill="#F4EAFA"/>
<path d="M529.16 341.35H539.69L548.51 394.36H550.4L562.1 341.53H573.8L585.5 394.36H587.48L596.3 341.35H606.83L594.68 403H578.57L567.95 353.59L557.42 403H541.22L529.16 341.35ZM624.662 403V341.35H663.542V350.08H634.652V367.54H658.142V376.18H634.652V394.18H663.542V403H624.662ZM682.958 341.35H706.358C712.658 341.35 717.368 342.64 720.488 345.22C723.608 347.74 725.168 351.79 725.168 357.37C725.168 361.03 724.568 363.91 723.368 366.01C722.228 368.11 720.398 369.85 717.878 371.23C723.758 373.51 726.698 378.28 726.698 385.54C726.698 397.18 720.158 403 707.078 403H682.958V341.35ZM706.358 376.09H692.948V394.36H706.538C709.838 394.36 712.298 393.67 713.918 392.29C715.598 390.91 716.438 388.54 716.438 385.18C716.438 381.82 715.478 379.48 713.558 378.16C711.638 376.78 709.238 376.09 706.358 376.09ZM705.818 349.99H692.948V367.63H706.178C712.058 367.63 714.998 364.6 714.998 358.54C714.998 352.84 711.938 349.99 705.818 349.99ZM796.271 403H774.941V341.35H796.271C805.751 341.35 812.231 343.75 815.711 348.55C819.191 353.35 820.931 360.88 820.931 371.14C820.931 376.36 820.571 380.8 819.851 384.46C819.191 388.06 817.991 391.33 816.251 394.27C812.831 400.09 806.171 403 796.271 403ZM810.581 371.14C810.581 363.7 809.651 358.33 807.791 355.03C805.931 351.73 802.091 350.08 796.271 350.08H784.931V394.18H796.271C802.211 394.18 806.171 391.99 808.151 387.61C809.111 385.39 809.741 383.02 810.041 380.5C810.401 377.98 810.581 374.86 810.581 371.14ZM841.147 403V341.35H880.027V350.08H851.137V367.54H874.627V376.18H851.137V394.18H880.027V403H841.147ZM917.533 349.09C909.913 349.09 906.103 351.76 906.103 357.1C906.103 359.86 907.003 361.84 908.803 363.04C910.603 364.18 914.563 365.62 920.683 367.36C926.863 369.04 931.213 371.08 933.733 373.48C936.253 375.82 937.513 379.54 937.513 384.64C937.513 391.12 935.653 395.98 931.933 399.22C928.273 402.4 923.263 403.99 916.903 403.99C911.803 403.99 906.163 403.39 899.983 402.19L896.743 401.56L897.733 393.55C905.833 394.63 912.013 395.17 916.273 395.17C923.713 395.17 927.433 391.87 927.433 385.27C927.433 382.69 926.593 380.8 924.913 379.6C923.233 378.34 919.453 376.99 913.573 375.55C907.693 374.05 903.313 372.01 900.433 369.43C897.553 366.85 896.113 362.77 896.113 357.19C896.113 351.61 897.913 347.41 901.513 344.59C905.173 341.71 910.213 340.27 916.633 340.27C921.253 340.27 926.713 340.81 933.013 341.89L936.163 342.43L935.353 350.53C926.953 349.57 921.013 349.09 917.533 349.09ZM956.86 403V341.35H966.85V403H956.86ZM1014.69 379.42V370.6H1032.24V401.92C1030.62 402.34 1027.32 402.79 1022.34 403.27C1017.42 403.75 1013.85 403.99 1011.63 403.99C1002.27 403.99 995.82 401.41 992.28 396.25C988.74 391.09 986.97 383.02 986.97 372.04C986.97 361 988.77 352.96 992.37 347.92C996.03 342.88 1002.33 340.36 1011.27 340.36C1016.55 340.36 1022.49 340.96 1029.09 342.16L1032.24 342.79L1031.88 350.71C1024.62 349.75 1018.11 349.27 1012.35 349.27C1006.59 349.27 1002.63 350.89 1000.47 354.13C998.37 357.37 997.32 363.37 997.32 372.13C997.32 380.89 998.31 386.95 1000.29 390.31C1002.33 393.61 1006.41 395.26 1012.53 395.26C1016.91 395.26 1020.18 394.99 1022.34 394.45V379.42H1014.69ZM1053.33 403V341.35H1070.79L1089.51 394.18H1090.86V341.35H1100.85V403H1083.75L1064.58 350.08H1063.32V403H1053.33ZM1123.57 403V341.35H1162.45V350.08H1133.56V367.54H1157.05V376.18H1133.56V394.18H1162.45V403H1123.57ZM1191.86 381.04V403H1181.87V341.35H1205.27C1219.19 341.35 1226.15 347.89 1226.15 360.97C1226.15 369.73 1222.79 375.67 1216.07 378.79L1226.24 403H1215.26L1206.35 381.04H1191.86ZM1215.89 361.06C1215.89 353.68 1212.35 349.99 1205.27 349.99H1191.86V372.4H1205.45C1209.05 372.4 1211.69 371.38 1213.37 369.34C1215.05 367.24 1215.89 364.48 1215.89 361.06Z" fill="#F4EAFA"/>
<line x1="527" y1="301" x2="1306" y2="301" stroke="#F9FAFE" stroke-width="2"/>
<g filter="url(#filter0_d_150_644)">
<circle cx="277.855" cy="277.74" r="207.74" fill="url(#paint0_linear_150_644)"/>
<circle cx="277.855" cy="277.74" r="192.74" stroke="#0D001E" stroke-width="30"/>
</g>
<path d="M276.677 439.62L141.058 160.935L169.671 140.553L175.55 152.704H272.757V175.045H185.349L196.716 200.131H249.239V225.608H209.651L276.677 367.107L385.642 140.161L415.039 160.935L276.677 439.62Z" fill="url(#paint1_linear_150_644)"/>
<path d="M179.242 323.369C205.522 361.255 222.857 408.35 194.456 440.452C156.739 435.308 139.101 409.047 119.503 378.474C101.081 340.453 90.8896 333.006 90.8897 300.081C90.8897 264.399 154.388 287.538 179.242 323.369Z" fill="url(#paint2_linear_150_644)"/>
<path d="M179.242 323.369C205.522 361.255 222.857 408.35 194.456 440.452C156.739 435.308 139.101 409.047 119.503 378.474C101.081 340.453 90.8896 333.006 90.8897 300.081C90.8897 264.399 154.388 287.538 179.242 323.369Z" fill="url(#paint3_linear_150_644)"/>
<path d="M179.242 323.369C205.522 361.255 222.857 408.35 194.456 440.452C156.739 435.308 139.101 409.047 119.503 378.474C101.081 340.453 90.8896 333.006 90.8897 300.081C90.8897 264.399 154.388 287.538 179.242 323.369Z" fill="url(#paint4_linear_150_644)"/>
<path d="M179.242 323.369C205.522 361.255 222.857 408.35 194.456 440.452C156.739 435.308 139.101 409.047 119.503 378.474C101.081 340.453 90.8896 333.006 90.8897 300.081C90.8897 264.399 154.388 287.538 179.242 323.369Z" fill="url(#paint5_linear_150_644)"/>
<path d="M172.809 335.75C197.426 370.304 209.195 407.775 184.406 435.794C150.299 430.254 133.755 406.317 115.339 378.472C97.7969 343.993 96.0188 338.95 95.2005 309.489C94.3136 277.56 149.526 303.07 172.809 335.75Z" fill="url(#paint6_linear_150_644)"/>
<path d="M172.809 335.75C197.426 370.304 209.195 407.775 184.406 435.794C150.299 430.254 133.755 406.317 115.339 378.472C97.7969 343.993 96.0188 338.95 95.2005 309.489C94.3136 277.56 149.526 303.07 172.809 335.75Z" fill="url(#paint7_linear_150_644)"/>
<path d="M172.809 335.75C197.426 370.304 209.195 407.775 184.406 435.794C150.299 430.254 133.755 406.317 115.339 378.472C97.7969 343.993 96.0188 338.95 95.2005 309.489C94.3136 277.56 149.526 303.07 172.809 335.75Z" fill="url(#paint8_linear_150_644)"/>
<path d="M172.809 335.75C197.426 370.304 209.195 407.775 184.406 435.794C150.299 430.254 133.755 406.317 115.339 378.472C97.7969 343.993 96.0188 338.95 95.2005 309.489C94.3136 277.56 149.526 303.07 172.809 335.75Z" fill="url(#paint9_linear_150_644)"/>
<path d="M158.741 340.426C178.926 368.915 192.599 404.08 171.969 427.398C143.798 422.977 130.237 403.238 115.146 380.274C100.81 351.813 93.1001 346.131 92.5662 321.743C91.9876 295.312 139.65 313.481 158.741 340.426Z" fill="url(#paint10_linear_150_644)"/>
<path d="M158.741 340.426C178.926 368.915 192.599 404.08 171.969 427.398C143.798 422.977 130.237 403.238 115.146 380.274C100.81 351.813 93.1001 346.131 92.5662 321.743C91.9876 295.312 139.65 313.481 158.741 340.426Z" fill="url(#paint11_linear_150_644)"/>
<path d="M158.741 340.426C178.926 368.915 192.599 404.08 171.969 427.398C143.798 422.977 130.237 403.238 115.146 380.274C100.81 351.813 93.1001 346.131 92.5662 321.743C91.9876 295.312 139.65 313.481 158.741 340.426Z" fill="url(#paint12_linear_150_644)"/>
<path d="M158.741 340.426C178.926 368.915 192.599 404.08 171.969 427.398C143.798 422.977 130.237 403.238 115.146 380.274C100.81 351.813 93.1001 346.131 92.5662 321.743C91.9876 295.312 139.65 313.481 158.741 340.426Z" fill="url(#paint13_linear_150_644)"/>
<path d="M141.059 343.59C157.12 364.607 173.598 400.288 160.385 415.222C140.129 410.43 129.302 395.894 117.193 379.024C105.283 358.383 99.4662 353.966 97.5978 336.997C95.573 318.606 125.869 323.712 141.059 343.59Z" fill="url(#paint14_linear_150_644)"/>
<path d="M141.059 343.59C157.12 364.607 173.598 400.288 160.385 415.222C140.129 410.43 129.302 395.894 117.193 379.024C105.283 358.383 99.4662 353.966 97.5978 336.997C95.573 318.606 125.869 323.712 141.059 343.59Z" fill="url(#paint15_linear_150_644)"/>
<path d="M141.059 343.59C157.12 364.607 173.598 400.288 160.385 415.222C140.129 410.43 129.302 395.894 117.193 379.024C105.283 358.383 99.4662 353.966 97.5978 336.997C95.573 318.606 125.869 323.712 141.059 343.59Z" fill="url(#paint16_linear_150_644)"/>
<path d="M141.059 343.59C157.12 364.607 173.598 400.288 160.385 415.222C140.129 410.43 129.302 395.894 117.193 379.024C105.283 358.383 99.4662 353.966 97.5978 336.997C95.573 318.606 125.869 323.712 141.059 343.59Z" fill="url(#paint17_linear_150_644)"/>
<path d="M179.242 323.369C205.522 361.255 222.857 408.35 194.456 440.452C156.739 435.308 139.101 409.047 119.503 378.474C101.081 340.453 90.8896 333.006 90.8897 300.081C90.8897 264.399 154.388 287.538 179.242 323.369Z" fill="url(#paint18_linear_150_644)" fill-opacity="0.2"/>
<path d="M179.242 323.369C205.522 361.255 222.857 408.35 194.456 440.452C156.739 435.308 139.101 409.047 119.503 378.474C101.081 340.453 90.8896 333.006 90.8897 300.081C90.8897 264.399 154.388 287.538 179.242 323.369Z" fill="url(#paint19_linear_150_644)" fill-opacity="0.2"/>
<path d="M179.242 323.369C205.522 361.255 222.857 408.35 194.456 440.452C156.739 435.308 139.101 409.047 119.503 378.474C101.081 340.453 90.8896 333.006 90.8897 300.081C90.8897 264.399 154.388 287.538 179.242 323.369Z" fill="url(#paint20_linear_150_644)" fill-opacity="0.2"/>
<path d="M179.242 323.369C205.522 361.255 222.857 408.35 194.456 440.452C156.739 435.308 139.101 409.047 119.503 378.474C101.081 340.453 90.8896 333.006 90.8897 300.081C90.8897 264.399 154.388 287.538 179.242 323.369Z" fill="url(#paint21_linear_150_644)" fill-opacity="0.2"/>
<path d="M396.496 307.437C399.228 273.508 411.342 238.392 442.47 232.976C461.518 253.307 459.296 276.56 456.176 303.199C448.914 333.587 451.235 342.571 435.873 361.54C419.226 382.098 393.913 339.526 396.496 307.437Z" fill="url(#paint22_linear_150_644)"/>
<path d="M396.496 307.437C399.228 273.508 411.342 238.392 442.47 232.976C461.518 253.307 459.296 276.56 456.176 303.199C448.914 333.587 451.235 342.571 435.873 361.54C419.226 382.098 393.913 339.526 396.496 307.437Z" fill="url(#paint23_linear_150_644)"/>
<path d="M396.496 307.437C399.228 273.508 411.342 238.392 442.47 232.976C461.518 253.307 459.296 276.56 456.176 303.199C448.914 333.587 451.235 342.571 435.873 361.54C419.226 382.098 393.913 339.526 396.496 307.437Z" fill="url(#paint24_linear_150_644)"/>
<path d="M396.496 307.437C399.228 273.508 411.342 238.392 442.47 232.976C461.518 253.307 459.296 276.56 456.176 303.199C448.914 333.587 451.235 342.571 435.873 361.54C419.226 382.098 393.913 339.526 396.496 307.437Z" fill="url(#paint25_linear_150_644)"/>
<path d="M405.931 303.267C408.053 272.023 418.843 245.015 446.012 240.287C462.822 259.185 461.062 280.595 458.544 305.117C452.433 333.06 451.091 336.784 437.811 354.135C423.419 372.939 403.924 332.817 405.931 303.267Z" fill="url(#paint26_linear_150_644)"/>
<path d="M405.931 303.267C408.053 272.023 418.843 245.015 446.012 240.287C462.822 259.185 461.062 280.595 458.544 305.117C452.433 333.06 451.091 336.784 437.811 354.135C423.419 372.939 403.924 332.817 405.931 303.267Z" fill="url(#paint27_linear_150_644)"/>
<path d="M405.931 303.267C408.053 272.023 418.843 245.015 446.012 240.287C462.822 259.185 461.062 280.595 458.544 305.117C452.433 333.06 451.091 336.784 437.811 354.135C423.419 372.939 403.924 332.817 405.931 303.267Z" fill="url(#paint28_linear_150_644)"/>
<path d="M405.931 303.267C408.053 272.023 418.843 245.015 446.012 240.287C462.822 259.185 461.062 280.595 458.544 305.117C452.433 333.06 451.091 336.784 437.811 354.135C423.419 372.939 403.924 332.817 405.931 303.267Z" fill="url(#paint29_linear_150_644)"/>
<path d="M416.112 307.051C417.925 281.343 426.556 254.786 449.166 250.851C463.123 266.371 461.626 283.988 459.493 304.168C454.367 327.167 456.1 333.991 445.026 348.288C433.023 363.782 414.397 331.366 416.112 307.051Z" fill="url(#paint30_linear_150_644)"/>
<path d="M416.112 307.051C417.925 281.343 426.556 254.786 449.166 250.851C463.123 266.371 461.626 283.988 459.493 304.168C454.367 327.167 456.1 333.991 445.026 348.288C433.023 363.782 414.397 331.366 416.112 307.051Z" fill="url(#paint31_linear_150_644)"/>
<path d="M416.112 307.051C417.925 281.343 426.556 254.786 449.166 250.851C463.123 266.371 461.626 283.988 459.493 304.168C454.367 327.167 456.1 333.991 445.026 348.288C433.023 363.782 414.397 331.366 416.112 307.051Z" fill="url(#paint32_linear_150_644)"/>
<path d="M416.112 307.051C417.925 281.343 426.556 254.786 449.166 250.851C463.123 266.371 461.626 283.988 459.493 304.168C454.367 327.167 456.1 333.991 445.026 348.288C433.023 363.782 414.397 331.366 416.112 307.051Z" fill="url(#paint33_linear_150_644)"/>
<path d="M427.643 313.37C428.316 293.865 435.592 265.721 450.073 263.201C459.356 275.289 458.731 288.65 457.747 303.945C454.889 321.322 456.136 326.545 449.281 337.182C441.853 348.71 427.007 331.817 427.643 313.37Z" fill="url(#paint34_linear_150_644)"/>
<path d="M427.643 313.37C428.316 293.865 435.592 265.721 450.073 263.201C459.356 275.289 458.731 288.65 457.747 303.945C454.889 321.322 456.136 326.545 449.281 337.182C441.853 348.71 427.007 331.817 427.643 313.37Z" fill="url(#paint35_linear_150_644)"/>
<path d="M427.643 313.37C428.316 293.865 435.592 265.721 450.073 263.201C459.356 275.289 458.731 288.65 457.747 303.945C454.889 321.322 456.136 326.545 449.281 337.182C441.853 348.71 427.007 331.817 427.643 313.37Z" fill="url(#paint36_linear_150_644)"/>
<path d="M427.643 313.37C428.316 293.865 435.592 265.721 450.073 263.201C459.356 275.289 458.731 288.65 457.747 303.945C454.889 321.322 456.136 326.545 449.281 337.182C441.853 348.71 427.007 331.817 427.643 313.37Z" fill="url(#paint37_linear_150_644)"/>
<path d="M396.496 307.437C399.228 273.508 411.342 238.392 442.47 232.976C461.518 253.307 459.296 276.56 456.176 303.199C448.914 333.587 451.235 342.571 435.873 361.54C419.226 382.098 393.913 339.526 396.496 307.437Z" fill="url(#paint38_linear_150_644)" fill-opacity="0.2"/>
<path d="M396.496 307.437C399.228 273.508 411.342 238.392 442.47 232.976C461.518 253.307 459.296 276.56 456.176 303.199C448.914 333.587 451.235 342.571 435.873 361.54C419.226 382.098 393.913 339.526 396.496 307.437Z" fill="url(#paint39_linear_150_644)" fill-opacity="0.2"/>
<path d="M396.496 307.437C399.228 273.508 411.342 238.392 442.47 232.976C461.518 253.307 459.296 276.56 456.176 303.199C448.914 333.587 451.235 342.571 435.873 361.54C419.226 382.098 393.913 339.526 396.496 307.437Z" fill="url(#paint40_linear_150_644)" fill-opacity="0.2"/>
<path d="M396.496 307.437C399.228 273.508 411.342 238.392 442.47 232.976C461.518 253.307 459.296 276.56 456.176 303.199C448.914 333.587 451.235 342.571 435.873 361.54C419.226 382.098 393.913 339.526 396.496 307.437Z" fill="url(#paint41_linear_150_644)" fill-opacity="0.2"/>
<path d="M458.053 277.74C458.053 377.693 377.025 458.721 277.072 458.721C177.119 458.721 96.0913 377.693 96.0913 277.74C96.0913 177.787 177.119 96.7587 277.072 96.7587C377.025 96.7587 458.053 177.787 458.053 277.74Z" stroke="url(#paint42_linear_150_644)" stroke-width="30"/>
<ellipse cx="303.727" cy="143.689" rx="3.91962" ry="3.91962" fill="#D9D9D9"/>
<ellipse cx="273.151" cy="291.85" rx="3.91962" ry="3.91962" fill="#D9D9D9"/>
<ellipse cx="154.778" cy="227.569" rx="3.91962" ry="3.91962" fill="#582596"/>
<ellipse cx="175.161" cy="284.011" rx="3.91962" ry="3.91962" fill="#582596"/>
<ellipse cx="326.458" cy="415.711" rx="3.91962" ry="3.91962" fill="#2F017A"/>
<ellipse cx="339.785" cy="371.811" rx="3.91962" ry="3.91962" fill="#D29FE7"/>
<ellipse cx="369.574" cy="297.338" rx="3.91962" ry="3.91962" fill="#D9D9D9"/>
<ellipse cx="336.257" cy="177.79" rx="5.87943" ry="5.87943" fill="#582596"/>
<ellipse cx="134.79" cy="262.453" rx="5.87943" ry="5.87943" fill="#D9D9D9"/>
<ellipse cx="285.695" cy="227.569" rx="7.83924" ry="7.83924" fill="#C077DD"/>
<ellipse cx="377.413" cy="370.243" rx="7.83924" ry="7.83924" fill="#D9D9D9"/>
<defs>
<filter id="filter0_d_150_644" x="0.115234" y="0" width="555.48" height="555.48" filterUnits="userSpaceOnUse" color-interpolation-filters="sRGB">
<feFlood flood-opacity="0" result="BackgroundImageFix"/>
<feColorMatrix in="SourceAlpha" type="matrix" values="0 0 0 0 0 0 0 0 0 0 0 0 0 0 0 0 0 0 127 0" result="hardAlpha"/>
<feOffset/>
<feGaussianBlur stdDeviation="35"/>
<feComposite in2="hardAlpha" operator="out"/>
<feColorMatrix type="matrix" values="0 0 0 0 0.2 0 0 0 0 0 0 0 0 0 1 0 0 0 0.15 0"/>
<feBlend mode="normal" in2="BackgroundImageFix" result="effect1_dropShadow_150_644"/>
<feBlend mode="normal" in="SourceGraphic" in2="effect1_dropShadow_150_644" result="shape"/>
</filter>
<linearGradient id="paint0_linear_150_644" x1="277.855" y1="70" x2="277.855" y2="485.48" gradientUnits="userSpaceOnUse">
<stop stop-color="#120026"/>
<stop offset="1" stop-color="#0D001E"/>
</linearGradient>
<linearGradient id="paint1_linear_150_644" x1="265.702" y1="171.518" x2="275.893" y2="436.092" gradientUnits="userSpaceOnUse">
<stop stop-color="#FDFEFF"/>
<stop offset="0.239583" stop-color="#7150B9"/>
<stop offset="0.630208" stop-color="#3C2067"/>
<stop offset="1" stop-color="#23133D"/>
</linearGradient>
<linearGradient id="paint2_linear_150_644" x1="88.1459" y1="282.835" x2="201.423" y2="404.343" gradientUnits="userSpaceOnUse">
<stop stop-color="#FBF7FB"/>
<stop offset="0.413592" stop-color="#B77AE8"/>
<stop offset="1" stop-color="#2D0665"/>
</linearGradient>
<linearGradient id="paint3_linear_150_644" x1="88.1459" y1="282.835" x2="201.423" y2="404.343" gradientUnits="userSpaceOnUse">
<stop stop-color="#FBF7FB"/>
<stop offset="0.413592" stop-color="#B77AE8"/>
<stop offset="1" stop-color="#2D0665"/>
</linearGradient>
<linearGradient id="paint4_linear_150_644" x1="88.1459" y1="282.835" x2="201.423" y2="404.343" gradientUnits="userSpaceOnUse">
<stop stop-color="#FBF7FB"/>
<stop offset="0.413592" stop-color="#B77AE8"/>
<stop offset="1" stop-color="#2D0665"/>
</linearGradient>
<linearGradient id="paint5_linear_150_644" x1="88.1459" y1="282.835" x2="201.423" y2="404.343" gradientUnits="userSpaceOnUse">
<stop stop-color="#FBF7FB"/>
<stop offset="0.413592" stop-color="#B77AE8"/>
<stop offset="1" stop-color="#2D0665"/>
</linearGradient>
<linearGradient id="paint6_linear_150_644" x1="82.217" y1="306.525" x2="203.691" y2="413.996" gradientUnits="userSpaceOnUse">
<stop stop-color="#683BC8"/>
<stop offset="0.505989" stop-color="#442780"/>
<stop offset="1" stop-color="#0E0023"/>
</linearGradient>
<linearGradient id="paint7_linear_150_644" x1="82.217" y1="306.525" x2="203.691" y2="413.996" gradientUnits="userSpaceOnUse">
<stop stop-color="#683BC8"/>
<stop offset="0.505989" stop-color="#442780"/>
<stop offset="1" stop-color="#0E0023"/>
</linearGradient>
<linearGradient id="paint8_linear_150_644" x1="82.217" y1="306.525" x2="203.691" y2="413.996" gradientUnits="userSpaceOnUse">
<stop stop-color="#683BC8"/>
<stop offset="0.505989" stop-color="#442780"/>
<stop offset="1" stop-color="#0E0023"/>
</linearGradient>
<linearGradient id="paint9_linear_150_644" x1="82.217" y1="306.525" x2="203.691" y2="413.996" gradientUnits="userSpaceOnUse">
<stop stop-color="#683BC8"/>
<stop offset="0.505989" stop-color="#442780"/>
<stop offset="1" stop-color="#0E0023"/>
</linearGradient>
<linearGradient id="paint10_linear_150_644" x1="88.1112" y1="320.867" x2="188.019" y2="409.258" gradientUnits="userSpaceOnUse">
<stop stop-color="#4B2677"/>
<stop offset="0.505989" stop-color="#2E1155"/>
<stop offset="1" stop-color="#180C2B"/>
</linearGradient>
<linearGradient id="paint11_linear_150_644" x1="88.1112" y1="320.867" x2="188.019" y2="409.258" gradientUnits="userSpaceOnUse">
<stop stop-color="#4B2677"/>
<stop offset="0.505989" stop-color="#2E1155"/>
<stop offset="1" stop-color="#180C2B"/>
</linearGradient>
<linearGradient id="paint12_linear_150_644" x1="88.1112" y1="320.867" x2="188.019" y2="409.258" gradientUnits="userSpaceOnUse">
<stop stop-color="#4B2677"/>
<stop offset="0.505989" stop-color="#2E1155"/>
<stop offset="1" stop-color="#180C2B"/>
</linearGradient>
<linearGradient id="paint13_linear_150_644" x1="88.1112" y1="320.867" x2="188.019" y2="409.258" gradientUnits="userSpaceOnUse">
<stop stop-color="#4B2677"/>
<stop offset="0.505989" stop-color="#2E1155"/>
<stop offset="1" stop-color="#180C2B"/>
</linearGradient>
<linearGradient id="paint14_linear_150_644" x1="94.3836" y1="336.116" x2="170.664" y2="403.604" gradientUnits="userSpaceOnUse">
<stop stop-color="#240A49"/>
<stop offset="0.505989" stop-color="#1D0C36"/>
<stop offset="1" stop-color="#181029"/>
</linearGradient>
<linearGradient id="paint15_linear_150_644" x1="94.3836" y1="336.116" x2="170.664" y2="403.604" gradientUnits="userSpaceOnUse">
<stop stop-color="#240A49"/>
<stop offset="0.505989" stop-color="#1D0C36"/>
<stop offset="1" stop-color="#181029"/>
</linearGradient>
<linearGradient id="paint16_linear_150_644" x1="94.3836" y1="336.116" x2="170.664" y2="403.604" gradientUnits="userSpaceOnUse">
<stop stop-color="#240A49"/>
<stop offset="0.505989" stop-color="#1D0C36"/>
<stop offset="1" stop-color="#181029"/>
</linearGradient>
<linearGradient id="paint17_linear_150_644" x1="94.3836" y1="336.116" x2="170.664" y2="403.604" gradientUnits="userSpaceOnUse">
<stop stop-color="#240A49"/>
<stop offset="0.505989" stop-color="#1D0C36"/>
<stop offset="1" stop-color="#181029"/>
</linearGradient>
<linearGradient id="paint18_linear_150_644" x1="88.1459" y1="282.835" x2="193.584" y2="429.037" gradientUnits="userSpaceOnUse">
<stop stop-color="#CDA5EC" stop-opacity="0.46"/>
<stop offset="0.559613" stop-color="#301852" stop-opacity="0.85"/>
<stop offset="1" stop-color="#160A25" stop-opacity="0.93"/>
</linearGradient>
<linearGradient id="paint19_linear_150_644" x1="88.1459" y1="282.835" x2="193.584" y2="429.037" gradientUnits="userSpaceOnUse">
<stop stop-color="#CDA5EC" stop-opacity="0.46"/>
<stop offset="0.559613" stop-color="#301852" stop-opacity="0.85"/>
<stop offset="1" stop-color="#160A25" stop-opacity="0.93"/>
</linearGradient>
<linearGradient id="paint20_linear_150_644" x1="88.1459" y1="282.835" x2="193.584" y2="429.037" gradientUnits="userSpaceOnUse">
<stop stop-color="#CDA5EC" stop-opacity="0.46"/>
<stop offset="0.559613" stop-color="#301852" stop-opacity="0.85"/>
<stop offset="1" stop-color="#160A25" stop-opacity="0.93"/>
</linearGradient>
<linearGradient id="paint21_linear_150_644" x1="88.1459" y1="282.835" x2="193.584" y2="429.037" gradientUnits="userSpaceOnUse">
<stop stop-color="#CDA5EC" stop-opacity="0.46"/>
<stop offset="0.559613" stop-color="#301852" stop-opacity="0.85"/>
<stop offset="1" stop-color="#160A25" stop-opacity="0.93"/>
</linearGradient>
<linearGradient id="paint22_linear_150_644" x1="429.387" y1="372.74" x2="420.07" y2="250.693" gradientUnits="userSpaceOnUse">
<stop stop-color="#FBF7FB"/>
<stop offset="0.413592" stop-color="#7952B3"/>
<stop offset="1" stop-color="#2D0665"/>
</linearGradient>
<linearGradient id="paint23_linear_150_644" x1="429.387" y1="372.74" x2="420.07" y2="250.693" gradientUnits="userSpaceOnUse">
<stop stop-color="#FBF7FB"/>
<stop offset="0.413592" stop-color="#7952B3"/>
<stop offset="1" stop-color="#2D0665"/>
</linearGradient>
<linearGradient id="paint24_linear_150_644" x1="429.387" y1="372.74" x2="420.07" y2="250.693" gradientUnits="userSpaceOnUse">
<stop stop-color="#FBF7FB"/>
<stop offset="0.413592" stop-color="#7952B3"/>
<stop offset="1" stop-color="#2D0665"/>
</linearGradient>
<linearGradient id="paint25_linear_150_644" x1="429.387" y1="372.74" x2="420.07" y2="250.693" gradientUnits="userSpaceOnUse">
<stop stop-color="#FBF7FB"/>
<stop offset="0.413592" stop-color="#7952B3"/>
<stop offset="1" stop-color="#2D0665"/>
</linearGradient>
<linearGradient id="paint26_linear_150_644" x1="443.812" y1="361.821" x2="423.349" y2="244.231" gradientUnits="userSpaceOnUse">
<stop stop-color="#7944D0"/>
<stop offset="0.505989" stop-color="#4F1F7B"/>
<stop offset="1" stop-color="#0E0023"/>
</linearGradient>
<linearGradient id="paint27_linear_150_644" x1="443.812" y1="361.821" x2="423.349" y2="244.231" gradientUnits="userSpaceOnUse">
<stop stop-color="#7944D0"/>
<stop offset="0.505989" stop-color="#4F1F7B"/>
<stop offset="1" stop-color="#0E0023"/>
</linearGradient>
<linearGradient id="paint28_linear_150_644" x1="443.812" y1="361.821" x2="423.349" y2="244.231" gradientUnits="userSpaceOnUse">
<stop stop-color="#7944D0"/>
<stop offset="0.505989" stop-color="#4F1F7B"/>
<stop offset="1" stop-color="#0E0023"/>
</linearGradient>
<linearGradient id="paint29_linear_150_644" x1="443.812" y1="361.821" x2="423.349" y2="244.231" gradientUnits="userSpaceOnUse">
<stop stop-color="#7944D0"/>
<stop offset="0.505989" stop-color="#4F1F7B"/>
<stop offset="1" stop-color="#0E0023"/>
</linearGradient>
<linearGradient id="paint30_linear_150_644" x1="447.151" y1="350.844" x2="430.321" y2="254.131" gradientUnits="userSpaceOnUse">
<stop stop-color="#33036D"/>
<stop offset="0.505989" stop-color="#240152"/>
<stop offset="1" stop-color="#11002A"/>
</linearGradient>
<linearGradient id="paint31_linear_150_644" x1="447.151" y1="350.844" x2="430.321" y2="254.131" gradientUnits="userSpaceOnUse">
<stop stop-color="#33036D"/>
<stop offset="0.505989" stop-color="#240152"/>
<stop offset="1" stop-color="#11002A"/>
</linearGradient>
<linearGradient id="paint32_linear_150_644" x1="447.151" y1="350.844" x2="430.321" y2="254.131" gradientUnits="userSpaceOnUse">
<stop stop-color="#33036D"/>
<stop offset="0.505989" stop-color="#240152"/>
<stop offset="1" stop-color="#11002A"/>
</linearGradient>
<linearGradient id="paint33_linear_150_644" x1="447.151" y1="350.844" x2="430.321" y2="254.131" gradientUnits="userSpaceOnUse">
<stop stop-color="#33036D"/>
<stop offset="0.505989" stop-color="#240152"/>
<stop offset="1" stop-color="#11002A"/>
</linearGradient>
<linearGradient id="paint34_linear_150_644" x1="450.699" y1="339.169" x2="437.849" y2="265.328" gradientUnits="userSpaceOnUse">
<stop stop-color="#1D0047"/>
<stop offset="0.505989" stop-color="#150134"/>
<stop offset="1" stop-color="#0E002E"/>
</linearGradient>
<linearGradient id="paint35_linear_150_644" x1="450.699" y1="339.169" x2="437.849" y2="265.328" gradientUnits="userSpaceOnUse">
<stop stop-color="#1D0047"/>
<stop offset="0.505989" stop-color="#150134"/>
<stop offset="1" stop-color="#0E002E"/>
</linearGradient>
<linearGradient id="paint36_linear_150_644" x1="450.699" y1="339.169" x2="437.849" y2="265.328" gradientUnits="userSpaceOnUse">
<stop stop-color="#1D0047"/>
<stop offset="0.505989" stop-color="#150134"/>
<stop offset="1" stop-color="#0E002E"/>
</linearGradient>
<linearGradient id="paint37_linear_150_644" x1="450.699" y1="339.169" x2="437.849" y2="265.328" gradientUnits="userSpaceOnUse">
<stop stop-color="#1D0047"/>
<stop offset="0.505989" stop-color="#150134"/>
<stop offset="1" stop-color="#0E002E"/>
</linearGradient>
<linearGradient id="paint38_linear_150_644" x1="429.387" y1="372.74" x2="435.992" y2="239.872" gradientUnits="userSpaceOnUse">
<stop stop-color="#CDA5EC" stop-opacity="0.46"/>
<stop offset="0.559613" stop-color="#301753" stop-opacity="0.85"/>
<stop offset="1" stop-color="#0E011F" stop-opacity="0.93"/>
</linearGradient>
<linearGradient id="paint39_linear_150_644" x1="429.387" y1="372.74" x2="435.992" y2="239.872" gradientUnits="userSpaceOnUse">
<stop stop-color="#CDA5EC" stop-opacity="0.46"/>
<stop offset="0.559613" stop-color="#301753" stop-opacity="0.85"/>
<stop offset="1" stop-color="#0E011F" stop-opacity="0.93"/>
</linearGradient>
<linearGradient id="paint40_linear_150_644" x1="429.387" y1="372.74" x2="435.992" y2="239.872" gradientUnits="userSpaceOnUse">
<stop stop-color="#CDA5EC" stop-opacity="0.46"/>
<stop offset="0.559613" stop-color="#301753" stop-opacity="0.85"/>
<stop offset="1" stop-color="#0E011F" stop-opacity="0.93"/>
</linearGradient>
<linearGradient id="paint41_linear_150_644" x1="429.387" y1="372.74" x2="435.992" y2="239.872" gradientUnits="userSpaceOnUse">
<stop stop-color="#CDA5EC" stop-opacity="0.46"/>
<stop offset="0.559613" stop-color="#301753" stop-opacity="0.85"/>
<stop offset="1" stop-color="#0E011F" stop-opacity="0.93"/>
</linearGradient>
<linearGradient id="paint42_linear_150_644" x1="277.072" y1="172.302" x2="277.072" y2="396.504" gradientUnits="userSpaceOnUse">
<stop stop-color="#F9FAFE"/>
<stop offset="0.462817" stop-color="#966CF0"/>
<stop offset="1" stop-color="#261140"/>
</linearGradient>
</defs>
</svg>
