<svg width="270" height="270" viewBox="0 0 270 270" fill="none" xmlns="http://www.w3.org/2000/svg">
<path d="M134.581 0.000856571C135.102 0.000432567 135.102 0.000432567 135.634 0C155.565 0.0255336 175.268 4.4157 193.231 13.0923C193.629 13.2833 194.027 13.4743 194.436 13.671C205.13 18.8607 215.284 25.4283 224.032 33.5085C224.896 34.2989 225.772 35.0669 226.658 35.8322C228.42 37.3702 230.094 38.9825 231.746 40.6368C232.039 40.9301 232.332 41.2235 232.634 41.5257C234.557 43.4717 236.344 45.454 238.033 47.608C238.95 48.7721 239.915 49.8844 240.884 51.0052C260.084 74.0696 269.977 104.808 269.999 134.581C270 135.102 270 135.102 270 135.634C269.974 155.565 265.584 175.268 256.908 193.231C256.717 193.629 256.526 194.027 256.329 194.436C251.139 205.13 244.572 215.284 236.492 224.032C235.701 224.896 234.933 225.772 234.168 226.658C232.63 228.42 231.018 230.094 229.363 231.746C229.07 232.039 228.777 232.332 228.474 232.634C226.528 234.557 224.546 236.344 222.392 238.033C221.228 238.95 220.116 239.915 218.995 240.884C195.93 260.084 165.192 269.977 135.419 269.999C134.898 270 134.898 270 134.366 270C114.435 269.975 94.7318 265.584 76.7692 256.908C76.3713 256.717 75.9735 256.526 75.5635 256.329C64.8698 251.139 54.7165 244.572 45.9682 236.492C45.1042 235.701 44.2278 234.933 43.3418 234.168C41.5802 232.63 39.9064 231.018 38.2541 229.363C37.9611 229.07 37.668 228.777 37.3661 228.474C35.443 226.528 33.6557 224.546 31.9669 222.392C31.0503 221.228 30.0853 220.116 29.1163 218.995C9.91577 195.93 0.0228504 165.192 0.00085657 135.419C0.000432566 134.898 0.000432567 134.898 0 134.366C0.0255336 114.435 4.4157 94.7318 13.0923 76.7692C13.2833 76.3713 13.4742 75.9735 13.671 75.5636C18.8607 64.8698 25.4283 54.7165 33.5085 45.9683C34.2989 45.1042 35.0669 44.2278 35.8322 43.3418C37.3702 41.5802 38.9825 39.9064 40.6368 38.2541C40.9301 37.9611 41.2235 37.6681 41.5257 37.3661C43.4717 35.443 45.454 33.6557 47.608 31.9669C48.7721 31.0503 49.8844 30.0853 51.0052 29.1163C74.0696 9.91577 104.808 0.0228504 134.581 0.000856571ZM64.6203 44.5118C64.4821 44.7883 64.3438 45.0648 64.2014 45.3497C65.4456 47.8381 66.6898 50.3265 67.9717 52.8904C88.9851 52.8904 109.998 52.8904 131.649 52.8904C131.649 57.8672 131.649 62.8441 131.649 67.9717C112.847 67.9717 94.0457 67.9717 74.6745 67.9717C76.9924 73.3029 79.338 78.6231 81.7963 83.8909C93.2707 83.8909 104.745 83.8909 116.567 83.8909C116.567 89.559 116.567 95.2271 116.567 101.067C107.996 101.067 99.4247 101.067 90.5938 101.067C93.7326 108.05 93.7326 108.05 97.0223 114.956C99.1993 119.397 101.327 123.858 103.397 128.35C105.233 132.332 107.111 136.292 109.027 140.237C111.185 144.68 113.285 149.148 115.355 153.634C116.979 157.146 118.647 160.635 120.338 164.115C122.279 168.113 124.182 172.125 126.045 176.16C127.854 180.069 129.67 183.973 131.518 187.863C131.729 188.314 131.941 188.765 132.159 189.229C132.355 189.64 132.551 190.05 132.753 190.473C132.925 190.835 133.096 191.197 133.273 191.57C133.679 192.458 133.679 192.458 134.581 192.812C138.473 184.827 142.363 176.842 146.183 168.822C147.191 166.71 148.204 164.601 149.217 162.492C149.531 161.839 149.531 161.839 149.851 161.172C150.275 160.29 150.698 159.408 151.122 158.526C152.172 156.34 153.221 154.153 154.271 151.967C154.69 151.094 155.108 150.221 155.527 149.348C155.838 148.7 155.838 148.7 156.156 148.039C165.163 129.275 174.17 110.51 183.177 91.7458C183.384 91.3139 183.591 90.8821 183.805 90.4371C184.224 89.563 184.644 88.6888 185.064 87.8147C186.101 85.6539 187.138 83.4929 188.174 81.3316C190.296 76.9077 192.423 72.4862 194.557 68.0684C197.04 62.9296 199.519 57.7891 201.969 52.6341C202.408 51.7155 202.855 50.801 203.305 49.8875C203.54 49.401 203.776 48.9144 204.018 48.4131C204.215 48.014 204.411 47.6149 204.614 47.2038C205.013 46.0359 204.97 45.6489 204.542 44.5118C203.93 43.8635 203.93 43.8635 203.131 43.3189C202.833 43.1022 202.535 42.8854 202.229 42.6621C201.741 42.3206 201.741 42.3206 201.243 41.9721C200.906 41.7333 200.57 41.4945 200.223 41.2485C194.586 37.3156 188.548 34.0362 182.339 31.1062C182.082 30.9833 181.825 30.8605 181.56 30.7339C170.235 25.3628 157.899 22.3774 145.473 21.0519C144.971 20.9968 144.469 20.9418 143.951 20.885C116.466 18.4345 85.9845 26.6429 64.6203 44.5118ZM46.1875 62.1068C45.5612 62.7592 45.5612 62.7592 44.9226 63.6303C44.6697 63.9628 44.4169 64.2953 44.1564 64.6379C43.7491 65.1865 43.7491 65.1865 43.3336 65.7462C42.9121 66.3134 42.9121 66.3134 42.4821 66.8921C27.0901 87.8943 19.7741 112.431 20.2141 138.351C20.456 138.343 20.6979 138.334 20.9471 138.325C36.6471 137.833 50.5885 144.773 61.9611 155.424C62.2857 155.735 62.6102 156.045 62.9446 156.365C63.308 156.697 63.6715 157.03 64.0459 157.372C77.2026 169.817 86.4127 190.217 89.337 207.893C89.3921 208.21 89.4471 208.526 89.5039 208.852C90.9513 218.984 88.731 228.728 83.8909 237.637C109.482 251.272 140.995 252.498 168.412 244.346C187.973 238.232 207.658 226.527 220.592 210.328C221.574 209.105 222.558 207.89 223.58 206.7C227.06 202.648 229.999 198.306 232.61 193.65C232.351 193.588 232.093 193.527 231.826 193.463C226.128 191.954 222.739 188.468 219.8 183.483C211.32 168.435 211.527 151.943 215.982 135.597C218.87 125.466 223.724 114.881 233.075 109.265C240.137 105.429 240.137 105.429 243.502 106.094C244.669 107.145 244.669 107.145 245.597 108.189C241.871 91.3026 233.734 76.629 223.394 62.9446C222.329 63.9042 221.732 64.8537 221.094 66.1326C220.895 66.5293 220.695 66.9259 220.49 67.3347C220.274 67.7694 220.059 68.2042 219.837 68.6521C219.607 69.1108 219.377 69.5694 219.14 70.042C218.51 71.3019 217.882 72.5629 217.255 73.8244C216.593 75.1536 215.929 76.4815 215.265 77.8096C214.146 80.0486 213.03 82.2886 211.914 84.5292C210.497 87.3748 209.077 90.2189 207.656 93.0625C206.422 95.5339 205.188 98.006 203.955 100.478C203.566 101.258 203.177 102.037 202.788 102.817C200.335 107.731 197.896 112.649 195.539 117.61C193.045 122.857 190.445 128.051 187.84 133.243C187.161 134.596 186.484 135.949 185.807 137.302C183.949 141.013 182.089 144.724 180.229 148.434C178.52 151.844 176.811 155.254 175.104 158.664C174.435 159.999 173.766 161.335 173.097 162.669C170.622 167.6 168.16 172.534 165.793 177.517C163.292 182.783 160.683 187.994 158.068 193.205C157.387 194.563 156.707 195.921 156.027 197.279C154.308 200.713 152.588 204.146 150.867 207.579C149.004 211.295 147.142 215.011 145.281 218.728C144.609 220.07 143.937 221.412 143.264 222.753C140.679 227.905 138.098 233.057 135.668 238.285C134.622 240.529 134.622 240.529 134.162 240.989C131.912 236.531 129.679 232.067 127.538 227.557C125.22 222.677 122.844 217.825 120.468 212.973C117.736 207.392 115.007 201.809 112.299 196.216C109.898 191.255 107.488 186.298 105.073 181.344C102.555 176.179 100.041 171.013 97.5322 165.844C94.9466 160.516 92.3532 155.193 89.7559 149.872C87.0132 144.253 84.2757 138.631 81.5453 133.006C79.1897 128.152 76.8287 123.302 74.4651 118.452C71.9477 113.287 69.4336 108.121 66.9244 102.952C63.6067 96.1181 60.2803 89.2883 56.952 82.4594C55.6829 79.8554 54.4142 77.2511 53.1456 74.6467C52.7749 73.8857 52.4042 73.1246 52.0335 72.3635C51.4963 71.2608 50.9592 70.1581 50.4221 69.0553C49.9303 68.0455 49.4384 67.0358 48.9466 66.026C48.7266 65.5743 48.7266 65.5743 48.5021 65.1134C47.7689 63.6076 47.7689 63.6076 47.0254 62.1068C46.7489 62.1068 46.4724 62.1068 46.1875 62.1068Z" fill="#FDF9FC" fill-opacity="0.64"/>
<path d="M142.121 96.8778C143.765 97.8449 144.865 98.8269 145.472 100.648C145.628 102.751 145.53 103.998 144.215 105.675C142.976 107.024 142.056 107.473 140.262 107.56C138.39 107.476 137.276 106.904 135.837 105.675C134.648 103.892 134.732 102.323 134.999 100.229C136.534 97.1596 138.797 96.2241 142.121 96.8778Z" fill="#FDF9FC" fill-opacity="0.64"/>
<path d="M202.421 190.617C203.936 191.414 204.774 192.063 205.381 193.649C205.65 195.362 205.782 197.096 204.941 198.655C204.203 199.554 203.493 200.249 202.449 200.771C200.553 200.946 198.818 200.985 197.029 200.3C195.497 198.907 194.979 197.57 194.725 195.535C194.996 193.364 195.869 192.135 197.553 190.769C199.243 190.062 200.687 189.934 202.421 190.617Z" fill="#FDF9FC" fill-opacity="0.64"/>
<path d="M174.797 65.4586C175.95 66.2109 176.693 66.7374 177.311 67.9722C177.476 69.7239 177.499 70.6154 176.525 72.1091C175.305 73.3291 174.964 73.4018 173.2 73.5754C171.78 73.5495 171.439 73.4135 170.189 72.5804C169.253 71.176 169.066 70.4317 169.169 68.7822C169.455 67.5088 170.106 66.7712 171.027 65.8776C172.326 65.2281 173.364 65.3372 174.797 65.4586Z" fill="#FDF9FC" fill-opacity="0.64"/>
<path d="M43.6749 121.594C44.8547 122.683 45.2844 123.343 45.5862 124.92C45.2572 126.711 44.592 127.494 43.256 128.716C41.5845 129.224 40.7476 129.324 39.1452 128.611C37.7354 127.484 37.4114 126.802 37.2077 124.998C37.2403 123.521 37.3819 123.282 38.3598 122.039C40.3407 120.519 41.3994 120.716 43.6749 121.594Z" fill="#FDF9FC" fill-opacity="0.64"/>
<path d="M153.433 44.5125C154.244 44.9838 154.244 44.9838 154.69 45.7692C154.915 47.284 154.866 48.0068 154.035 49.3039C153.014 49.9585 153.014 49.9585 151.495 49.9323C150.081 49.5396 150.081 49.5396 149.243 48.2828C149.109 46.9893 149.039 46.1295 149.689 44.9838C150.964 44.2432 151.993 44.3582 153.433 44.5125Z" fill="#FDF9FC" fill-opacity="0.64"/>
<path d="M168.514 222.974C169.326 223.681 169.326 223.681 169.771 224.65C169.679 226.188 169.616 226.899 168.514 228.001C166.698 228.133 165.864 228.189 164.325 227.163C163.959 226.194 163.959 226.194 163.906 225.068C165.061 222.65 165.929 222.288 168.514 222.974Z" fill="#FDF9FC" fill-opacity="0.64"/>
<path d="M195.587 145.08C197.001 145.473 197.001 145.473 197.839 146.73C197.649 149.433 197.649 149.433 196.582 150.5C194.047 150.731 194.047 150.731 192.838 150.029C192.171 148.851 192.203 148.059 192.393 146.73C193.362 145.217 193.774 145.049 195.587 145.08Z" fill="#FDF9FC" fill-opacity="0.64"/>
<path d="M175.4 193.938C176.892 194.069 176.892 194.069 177.704 194.514C178.414 195.81 178.33 196.815 178.149 198.258C177.468 199.096 177.468 199.096 176.473 199.515C175.015 199.485 174.255 199.353 173.148 198.389C172.542 197.069 172.732 196.285 173.122 194.907C173.96 194.069 173.96 194.069 175.4 193.938Z" fill="#FDF9FC" fill-opacity="0.64"/>
<path d="M54.8278 99.4183C56.2416 99.811 56.2416 99.811 57.0795 101.068C57.0009 102.56 57.0009 102.56 56.6606 104C55.4038 104.838 55.4038 104.838 53.9114 104.733C52.4713 104.419 52.4713 104.419 51.6334 103.581C51.4379 102.082 51.4649 101.331 52.288 100.047C53.3092 99.3921 53.3092 99.3921 54.8278 99.4183Z" fill="#FDF9FC" fill-opacity="0.64"/>
<path d="M67.9982 136.282C69.8936 136.887 69.8936 136.887 70.4855 137.932C70.3459 140.585 70.3459 140.585 69.2288 141.702C66.6933 141.933 66.6933 141.933 65.4846 141.231C64.8175 140.054 64.8496 139.261 65.0395 137.932C65.954 136.56 66.3318 136.248 67.9982 136.282Z" fill="#FDF9FC" fill-opacity="0.64"/>
<path d="M131.832 141.572C133.324 141.703 133.324 141.703 134.136 142.174C134.785 143.32 134.716 144.18 134.581 145.473C133.743 146.73 133.743 146.73 132.565 147.123C131.23 147.149 131.23 147.149 129.999 146.521C129.135 145.473 129.135 145.473 129.161 143.955C129.681 142.084 129.877 141.75 131.832 141.572Z" fill="#FDF9FC" fill-opacity="0.64"/>
</svg>
