<svg width="29" height="24" viewBox="0 0 29 24" fill="none" xmlns="http://www.w3.org/2000/svg">
<g clip-path="url(#clip0_79_33)">
<path d="M0 11.3742C0 10.8374 0.235986 10.3002 0.70796 9.89107C1.65191 9.07147 3.18111 9.07147 4.12506 9.89107L14.4991 18.9015L24.8749 9.89107C25.8189 9.07147 27.3481 9.07147 28.292 9.89107C29.236 10.7107 29.236 12.0384 28.292 12.858L16.2095 23.349C15.2656 24.1686 13.7364 24.1686 12.7924 23.349L0.709848 12.858C0.234098 12.4482 0 11.9112 0 11.3742Z" fill="#fff"/>
<path d="M0 2.09786C0 1.56099 0.235988 1.02385 0.707962 0.614703C1.65191 -0.204901 3.18111 -0.204901 4.12506 0.614703L14.4991 9.62511L24.8749 0.614703C25.8189 -0.204901 27.3481 -0.204901 28.292 0.614703C29.236 1.43431 29.236 2.76207 28.292 3.58167L16.2095 14.0726C15.2655 14.8922 13.7363 14.8922 12.7924 14.0726L0.70985 3.58167C0.2341 3.17187 0 2.63486 0 2.09786Z" fill="#fff"/>
</g>
<defs>
<clipPath id="clip0_79_33">
<rect width="29" height="24" fill="white"/>
</clipPath>
</defs>
</svg>
