<svg width="25" height="30" viewBox="0 0 25 30" fill="none" xmlns="http://www.w3.org/2000/svg">
<path d="M11.8923 29.4817C11.3554 29.4817 10.8183 29.2457 10.4091 28.7737C9.58953 27.8298 9.58953 26.3006 10.4091 25.3566L19.4195 14.9826L10.4091 4.60674C9.58953 3.6628 9.58953 2.1336 10.4091 1.18965C11.2287 0.245702 12.5565 0.245702 13.3761 1.18965L23.867 13.2722C24.6866 14.2161 24.6866 15.7453 23.867 16.6893L13.3761 28.7718C12.9663 29.2476 12.4293 29.4817 11.8923 29.4817Z" fill="#550979"/>
<path d="M2.61617 29.4817C2.0793 29.4817 1.54216 29.2457 1.13301 28.7737C0.313409 27.8298 0.313409 26.3006 1.13301 25.3566L10.1434 14.9826L1.13301 4.60675C0.313409 3.6628 0.313409 2.1336 1.13301 1.18965C1.95262 0.245702 3.28038 0.245702 4.09998 1.18965L14.5909 13.2722C15.4105 14.2161 15.4105 15.7453 14.5909 16.6893L4.09998 28.7718C3.69018 29.2476 3.15318 29.4817 2.61617 29.4817Z" fill="#550979"/>
</svg>
