<svg width="43" height="44" viewBox="0 0 43 44" fill="none" xmlns="http://www.w3.org/2000/svg">
<path d="M36.5596 6.31986C32.5379 2.28861 27.1821 0.0714264 21.4904 0.0714264C9.74219 0.0714264 0.182366 9.63125 0.182366 21.3795C0.182366 25.1324 1.16138 28.7989 3.02344 32.0335L0 43.0714L11.2971 40.1056C14.4069 41.8045 17.9103 42.6971 21.4808 42.6971H21.4904C33.229 42.6971 43 33.1373 43 21.3891C43 15.6973 40.5812 10.3511 36.5596 6.31986ZM21.4904 39.1074C18.3038 39.1074 15.1844 38.2531 12.4681 36.6406L11.825 36.2567L5.12545 38.0132L6.91071 31.4768L6.48839 30.8049C4.71272 27.983 3.7817 24.7292 3.7817 21.3795C3.7817 11.6181 11.729 3.67076 21.5 3.67076C26.2319 3.67076 30.6759 5.51361 34.0161 8.86339C37.3563 12.2132 39.4103 16.6571 39.4007 21.3891C39.4007 31.16 31.2518 39.1074 21.4904 39.1074ZM31.2038 25.8426C30.6759 25.5739 28.0556 24.2877 27.5661 24.115C27.0766 23.9326 26.7214 23.8462 26.3663 24.3837C26.0112 24.9212 24.9937 26.1114 24.677 26.4761C24.3699 26.8312 24.0531 26.8792 23.5252 26.6105C20.3962 25.046 18.3422 23.8174 16.2786 20.2757C15.7315 19.335 16.8257 19.4022 17.8431 17.3674C18.0158 17.0123 17.9295 16.7051 17.7951 16.4364C17.6607 16.1676 16.5953 13.5473 16.1538 12.4819C15.7219 11.4453 15.2804 11.5893 14.954 11.5701C14.6469 11.5509 14.2917 11.5509 13.9366 11.5509C13.5815 11.5509 13.0056 11.6853 12.5161 12.2132C12.0266 12.7507 10.654 14.0368 10.654 16.6571C10.654 19.2775 12.5641 21.8114 12.8232 22.1665C13.092 22.5217 16.5761 27.8966 21.9223 30.2098C25.3009 31.6687 26.6254 31.7935 28.3147 31.544C29.3417 31.3904 31.4629 30.2578 31.9045 29.01C32.346 27.7623 32.346 26.6969 32.2116 26.4761C32.0868 26.2362 31.7317 26.1018 31.2038 25.8426Z" fill="white"/>
</svg>
