<svg width="40" height="40" viewBox="0 0 40 40" fill="none" xmlns="http://www.w3.org/2000/svg">
<path d="M36.25 0.937507H3.75C3.0126 0.930002 2.30233 1.21533 1.77506 1.73089C1.24778 2.24645 0.946566 2.95012 0.9375 3.68751V36.3187C0.948206 37.055 1.25014 37.7571 1.77724 38.2713C2.30434 38.7855 3.01367 39.07 3.75 39.0625H36.25C36.9874 39.0683 37.6972 38.782 38.2242 38.2662C38.7512 37.7503 39.0526 37.0468 39.0625 36.3094V3.67813C39.0493 2.94291 38.7465 2.24259 38.2199 1.7294C37.6932 1.21621 36.9853 0.931625 36.25 0.937507ZM12.2406 33.4375H6.58125V15.2281H12.2406V33.4375ZM9.42813 12.7469C8.77902 12.7475 8.14432 12.5556 7.60431 12.1954C7.0643 11.8352 6.64325 11.323 6.39442 10.7235C6.14559 10.124 6.08016 9.46411 6.20642 8.82741C6.33267 8.1907 6.64493 7.60575 7.1037 7.14654C7.56247 6.68734 8.14712 6.37452 8.78371 6.24766C9.42029 6.1208 10.0802 6.18559 10.68 6.43385C11.2797 6.68211 11.7924 7.10267 12.153 7.64234C12.5137 8.18201 12.7062 8.81653 12.7063 9.46563C12.7054 9.89706 12.6195 10.3241 12.4535 10.7223C12.2874 11.1205 12.0445 11.482 11.7386 11.7862C11.4326 12.0904 11.0697 12.3313 10.6706 12.495C10.2714 12.6588 9.84393 12.7423 9.4125 12.7406L9.42813 12.7469ZM33.4375 33.4375H27.7781V24.5781C27.7781 22.4688 27.7406 19.7531 24.8375 19.7531C21.9344 19.7531 21.4406 22.0531 21.4406 24.4406V33.4375H15.7906V15.2281H21.2156V17.7281H21.2906C22.0469 16.2969 23.8906 14.7875 26.6438 14.7875C32.375 14.775 33.4375 18.5469 33.4375 23.4375V33.4375Z" fill="#F4E5F3"/>
</svg>
