<svg width="41" height="41" viewBox="0 0 41 41" fill="none" xmlns="http://www.w3.org/2000/svg">
<path fill-rule="evenodd" clip-rule="evenodd" d="M20.5 0.714294C9.2975 0.714294 0.213409 9.79636 0.213409 21.0009C0.213409 29.9644 6.02614 37.5683 14.0866 40.2511C15.1001 40.4392 15.4724 39.811 15.4724 39.2752C15.4724 38.7915 15.4536 37.1934 15.4448 35.4983C9.80107 36.7255 8.61017 33.1047 8.61017 33.1047C7.68735 30.7599 6.35771 30.1364 6.35771 30.1364C4.51677 28.8773 6.49645 28.9035 6.49645 28.9035C8.53324 29.0463 9.60622 30.994 9.60622 30.994C11.4156 34.0947 14.352 33.1984 15.5097 32.6804C15.6917 31.3693 16.2175 30.474 16.7976 29.9674C12.2917 29.4551 7.55465 27.7153 7.55465 19.942C7.55465 17.7272 8.34746 15.9175 9.64519 14.4965C9.43422 13.9858 8.73984 11.9225 9.84138 9.12819C9.84138 9.12819 11.5446 8.58296 15.4213 11.2076C17.0398 10.7578 18.7756 10.5317 20.5 10.524C22.2234 10.5317 23.9602 10.7571 25.5817 11.207C29.4537 8.58229 31.1549 9.12751 31.1549 9.12751C32.2592 11.9215 31.5648 13.9852 31.3541 14.4958C32.6549 15.9168 33.442 17.7265 33.442 19.9413C33.442 27.7331 28.6962 29.4484 24.1789 29.9509C24.9068 30.5805 25.5552 31.8154 25.5552 33.7077C25.5552 36.4221 25.5317 38.6067 25.5317 39.2749C25.5317 39.8147 25.8972 40.4473 26.9251 40.2481C34.9809 37.5626 40.7869 29.961 40.7869 21.0009C40.7866 9.79704 31.7035 0.714294 20.5 0.714294Z" fill="#F4E5F3"/>
<path d="M7.89697 29.8411C7.85229 29.9419 7.69372 29.9721 7.54927 29.9032C7.40146 29.8374 7.31915 29.7 7.36686 29.5989C7.41053 29.4947 7.56943 29.4662 7.71623 29.5357C7.86405 29.6019 7.94803 29.7406 7.89663 29.8414L7.89697 29.8411ZM8.71867 30.7579C8.62226 30.8476 8.43312 30.8059 8.3048 30.6638C8.17176 30.5227 8.1469 30.3336 8.24533 30.2425C8.34544 30.1532 8.52887 30.1955 8.6619 30.3366C8.79426 30.4797 8.82046 30.6672 8.71901 30.7582L8.71867 30.7579ZM9.51887 31.9259C9.39458 32.0126 9.191 31.9316 9.06536 31.7512C8.94106 31.5705 8.94106 31.3538 9.06872 31.2675C9.19402 31.1808 9.39458 31.2591 9.52223 31.4378C9.64586 31.6209 9.64586 31.8379 9.51887 31.9259ZM10.6144 33.055C10.5035 33.1776 10.2663 33.1447 10.093 32.9777C9.91595 32.8141 9.86657 32.5813 9.97776 32.459C10.0906 32.3361 10.3288 32.3704 10.5032 32.5363C10.6802 32.6996 10.7336 32.9327 10.615 33.0547L10.6144 33.055ZM12.1261 33.7104C12.0767 33.8693 11.8489 33.9415 11.6188 33.8737C11.3894 33.8041 11.2392 33.6184 11.2862 33.4578C11.3333 33.2975 11.5627 33.2226 11.7942 33.2949C12.0236 33.3641 12.1738 33.5488 12.1261 33.7104ZM13.7866 33.8317C13.7923 33.999 13.5975 34.1374 13.3566 34.1408C13.1137 34.1465 12.9172 34.0107 12.9149 33.8461C12.9149 33.6772 13.1057 33.5404 13.3482 33.5357C13.5891 33.5314 13.787 33.6657 13.787 33.8314L13.7866 33.8317ZM15.3313 33.569C15.3602 33.7319 15.1925 33.8995 14.953 33.9442C14.7178 33.9879 14.4995 33.8864 14.4692 33.7249C14.4404 33.5576 14.611 33.3899 14.8462 33.3466C15.086 33.3053 15.301 33.4034 15.3313 33.569Z" fill="#F4E5F3"/>
</svg>
